<?xml version="1.0" standalone="no"?>
<!DOCTYPE svg PUBLIC "-//W3C//DTD SVG 1.1//EN" "http://www.w3.org/Graphics/SVG/1.1/DTD/svg11.dtd" >
<svg xmlns="http://www.w3.org/2000/svg" xmlns:xlink="http://www.w3.org/1999/xlink" version="1.1">
<metadata>
Created by FontForge 20161003 at Wed Feb  8 23:25:58 2017
 By www-data
HTF Knockout   1990-9 The Hoefler Type Foundry, Inc. http://www.typography.com
</metadata>
<defs>
<font id="KnockoutHTF34JuniorSumo" horiz-adv-x="889" >
  <font-face 
    font-family="KnockoutHTF34JuniorSumo"
    font-weight="500"
    font-stretch="normal"
    units-per-em="1000"
    panose-1="2 0 6 5 5 0 0 2 0 4"
    ascent="800"
    descent="-200"
    x-height="468"
    cap-height="666"
    bbox="-175 -248 1264 906"
    underline-thickness="63"
    underline-position="-198"
    unicode-range="U+0020-FB02"
  />
<missing-glyph horiz-adv-x="500" 
 />
    <glyph glyph-name=".notdef" horiz-adv-x="500" 
 />
    <glyph glyph-name=".null" horiz-adv-x="0" 
 />
    <glyph glyph-name="nonmarkingreturn" horiz-adv-x="331" 
 />
    <glyph glyph-name="space" unicode=" " horiz-adv-x="331" 
 />
    <glyph glyph-name="space" unicode="&#xa0;" horiz-adv-x="331" 
 />
    <glyph glyph-name="exclam" unicode="!" horiz-adv-x="275" 
d="M200 486v180h-125v-180l42 -262h40zM195 0v113h-116v-113h116z" />
    <glyph glyph-name="quotedbl" unicode="&#x22;" horiz-adv-x="448" 
d="M427 666h-114l-76 -221h81zM242 666h-114l-65 -221h81z" />
    <glyph glyph-name="numbersign" unicode="#" horiz-adv-x="798" 
d="M733 411v81h-137l33 174h-89l-34 -174h-153l34 174h-90l-34 -174h-167v-81h152l-30 -156h-153v-81h138l-33 -174h89l33 174h154l-33 -174h89l33 174h167v81h-151l30 156h152zM491 411l-30 -156h-153l30 156h153z" />
    <glyph glyph-name="dollar" unicode="$" horiz-adv-x="815" 
d="M747 187q0 63 -40.5 100t-101.5 58t-131.5 32.5t-131.5 23.5t-101.5 31t-40.5 55q0 43 56 71t154 28q37 0 73.5 -6t69.5 -16.5t62.5 -24t52.5 -28.5l69 84q-48 31 -114 57t-145 34v104h-116v-102q-65 -6 -117.5 -24.5t-90.5 -47t-58.5 -66t-20.5 -79.5q0 -46 23.5 -76
t62 -50t87.5 -32t100 -20.5t100 -17t87.5 -20.5t62 -31t23.5 -50q0 -19 -11.5 -36.5t-35.5 -30.5t-62.5 -21t-92.5 -8q-81 0 -159.5 21t-157.5 60l-46 -99q68 -32 144 -55t162 -29v-99h116v100q61 6 110.5 23.5t84.5 44.5t54.5 63t19.5 79z" />
    <glyph glyph-name="percent" unicode="%" horiz-adv-x="845" 
d="M795 148v12q0 80 -42.5 126.5t-117.5 46.5q-76 0 -119 -46.5t-43 -126.5v-12q0 -80 43 -126.5t119 -46.5q75 0 117.5 46.5t42.5 126.5zM712 134q0 -45 -21 -68.5t-56 -23.5q-39 0 -60.5 23.5t-21.5 68.5v40q0 45 21.5 68.5t60.5 23.5q35 0 56 -23.5t21 -68.5v-40z
M721 660l-50 37l-547 -691l51 -38zM372 506v12q0 80 -42.5 126.5t-117.5 46.5q-76 0 -119 -46.5t-43 -126.5v-12q0 -80 43 -126.5t119 -46.5q75 0 117.5 46.5t42.5 126.5zM289 492q0 -45 -21 -68.5t-56 -23.5q-39 0 -60.5 23.5t-21.5 68.5v40q0 45 21.5 68.5t60.5 23.5
q35 0 56 -23.5t21 -68.5v-40z" />
    <glyph glyph-name="ampersand" unicode="&#x26;" horiz-adv-x="876" 
d="M860 10l-33 83q-14 -8 -32.5 -13.5t-41.5 -5.5q-47 0 -114 46q53 54 94 102.5t63 82.5l-86 62q-22 -32 -61 -82.5t-96 -104.5q-38 31 -73.5 66t-65.5 71q111 32 164.5 86t53.5 111q0 33 -14 65t-41 56.5t-65.5 39.5t-87.5 15q-52 0 -93.5 -15.5t-71 -42.5t-45 -63
t-15.5 -77q0 -27 11 -59.5t31 -67.5q-44 -13 -79 -34t-60.5 -48t-39 -57.5t-13.5 -63.5q0 -41 18 -75.5t50.5 -59.5t77.5 -39t99 -14q81 0 142 21.5t109 53.5q110 -75 191 -75q36 0 66 8.5t58 27.5zM519 510q0 -39 -42 -72t-118 -53q-20 32 -31.5 61t-11.5 49q0 47 29 74.5
t76 27.5q48 0 73 -26.5t25 -60.5zM463 114q-27 -18 -64.5 -29.5t-72.5 -11.5q-72 0 -109 28.5t-37 72.5q0 80 112 119q34 -45 79 -92.5t92 -86.5z" />
    <glyph glyph-name="quotesingle" unicode="'" horiz-adv-x="260" 
d="M239 666h-129l-47 -221h72z" />
    <glyph glyph-name="parenleft" unicode="(" horiz-adv-x="394" 
d="M453 -192q-124 99 -188 222t-64 268t64.5 268t188.5 222l-30 37q-170 -100 -256 -235.5t-86 -291.5t85.5 -291.5t255.5 -235.5z" />
    <glyph glyph-name="parenright" unicode=")" horiz-adv-x="394" 
d="M312 298q0 156 -86 291.5t-256 235.5l-30 -37q124 -99 188.5 -222t64.5 -268t-64 -268t-188 -222l30 -37q170 100 255.5 235.5t85.5 291.5z" />
    <glyph glyph-name="asterisk" unicode="*" horiz-adv-x="421" 
d="M375 423q4 8 0.5 13.5t-8.5 8.5q-15 9 -46.5 23t-62.5 23q33 9 61.5 21.5t47.5 23.5q5 2 8 8t-1 14l-23 41q-4 8 -11 7.5t-12 -3.5q-16 -9 -43.5 -29t-50.5 -42q8 32 11 63.5t3 52.5q0 6 -3.5 12t-11.5 6h-47q-8 0 -11.5 -6t-3.5 -12q0 -18 3.5 -52t11.5 -65
q-24 23 -49.5 41.5t-44.5 29.5q-5 2 -11.5 2.5t-11.5 -6.5l-23 -42q-5 -7 -1.5 -12.5t8.5 -8.5q16 -9 47.5 -23.5t62.5 -22.5q-33 -9 -61.5 -22t-47.5 -24q-5 -2 -8.5 -8t1.5 -13l23 -42q5 -7 11 -7q7 0 12 3q16 9 43.5 29t50.5 43q-8 -33 -11 -64t-3 -53q0 -6 3.5 -11.5
t11.5 -5.5h47q8 0 11.5 5.5t3.5 11.5q0 18 -3.5 52.5t-11.5 65.5q24 -24 49.5 -42t44.5 -29q5 -3 12 -3.5t11 7.5z" />
    <glyph glyph-name="plus" unicode="+" horiz-adv-x="518" 
d="M458 287v92h-149v152h-101v-152h-148v-92h148v-152h101v152h149z" />
    <glyph glyph-name="comma" unicode="," horiz-adv-x="286" 
d="M201 13v100h-116v-113h52q0 -49 -24 -75.5t-63 -26.5v-32q44 0 73 14t46.5 35.5t24.5 47.5t7 50z" />
    <glyph glyph-name="hyphen" unicode="-" horiz-adv-x="476" 
d="M415 249v92h-356v-92h356z" />
    <glyph glyph-name="period" unicode="." horiz-adv-x="286" 
d="M201 0v113h-116v-113h116z" />
    <glyph glyph-name="slash" unicode="/" horiz-adv-x="466" 
d="M440 729h-80l-330 -862h81z" />
    <glyph glyph-name="zero" unicode="0" horiz-adv-x="847" 
d="M784 320v22q0 66 -24 128t-70.5 111t-113.5 78.5t-152 29.5q-86 0 -153 -29.5t-113.5 -78.5t-70.5 -111t-24 -128v-22q0 -66 24 -128t70.5 -111t113.5 -78.5t153 -29.5q85 0 152 29.5t113.5 78.5t70.5 111t24 128zM664 323q0 -51 -15.5 -96t-46 -78t-75.5 -52t-103 -19
t-103 19t-75.5 52t-46 78t-15.5 96v16q0 51 15.5 96t46 78t75.5 52t103 19t103 -19t75.5 -52t46 -78t15.5 -96v-16z" />
    <glyph glyph-name="one" unicode="1" horiz-adv-x="349" 
d="M236 0v666h-53q0 -27 -16 -45t-54 -18v-603h123z" />
    <glyph glyph-name="two" unicode="2" horiz-adv-x="736" 
d="M677 0v104h-497q3 51 40.5 84t92.5 56t118 42.5t117 44t90 60t36 91.5q0 43 -20.5 81t-59.5 66.5t-95 45t-126 16.5q-84 0 -159.5 -25t-153.5 -68l46 -91q66 35 130 56.5t133 21.5q91 0 136 -30t45 -77q0 -27 -21.5 -44.5t-56.5 -31.5t-79.5 -27t-91.5 -30t-91.5 -41
t-79.5 -60t-56.5 -86t-21.5 -120v-38h625z" />
    <glyph glyph-name="three" unicode="3" horiz-adv-x="734" 
d="M665 172v5q0 26 -9.5 50.5t-32 46t-59 38t-89.5 25.5q101 18 145.5 60.5t44.5 96.5v5q0 35 -20 69t-57.5 61t-92 44t-123.5 17q-42 0 -79.5 -5t-73.5 -15t-73 -25.5t-77 -35.5l55 -93q59 30 115 49t117 19q48 0 83 -8t58 -21.5t34 -31t11 -36.5v-4q0 -21 -10 -39.5
t-32.5 -32t-60 -21.5t-91.5 -8h-90v-95h90q95 0 144.5 -29.5t49.5 -74.5v-3q0 -18 -9.5 -36t-31 -32t-56.5 -23t-86 -9q-67 0 -134 19.5t-136 48.5l-49 -96q47 -19 87 -33.5t79 -24.5t80 -15t89 -5q69 0 123 19t91 48t56.5 64t19.5 67z" />
    <glyph glyph-name="four" unicode="4" horiz-adv-x="778" 
d="M717 174v98h-141v394h-100l-425 -405v-87h403v-174h122v174h141zM454 272h-250l250 244v-244z" />
    <glyph glyph-name="five" unicode="5" horiz-adv-x="761" 
d="M700 210v2q0 43 -17.5 82.5t-52 69.5t-86.5 48t-120 18q-65 0 -114.5 -17t-98.5 -48l15 197h331q31 0 52 3.5t35 15t21 32t10 53.5h-551l-28 -375l89 -28q48 34 99 50.5t115 16.5q89 0 133.5 -35t44.5 -83v-4q0 -26 -10.5 -49.5t-33.5 -40.5t-60 -27t-90 -10
q-67 0 -133 15.5t-142 42.5l-44 -94q30 -13 68 -25.5t79.5 -22.5t85.5 -16t86 -6q78 0 137 20t99 52.5t60.5 75t20.5 87.5z" />
    <glyph glyph-name="six" unicode="6" horiz-adv-x="772" 
d="M711 218v5q0 45 -18.5 84t-53.5 68.5t-85.5 46t-113.5 16.5q-75 0 -140.5 -26t-110.5 -64v9q0 49 18 91t50.5 72.5t78 47.5t101.5 17q60 0 106 -14.5t88 -37.5l55 92q-55 29 -112.5 46.5t-132.5 17.5q-81 0 -149 -28.5t-118 -77.5t-78 -114.5t-28 -138.5v-12
q0 -74 24.5 -137.5t69.5 -109.5t107.5 -72t139.5 -26q72 0 128 21t95 55t59 78t20 91zM590 209q0 -57 -48 -93.5t-137 -36.5q-45 0 -82.5 16.5t-65 43t-43.5 59t-19 64.5l-1 4q43 35 98.5 55.5t112.5 20.5q94 0 139.5 -36t45.5 -91v-6z" />
    <glyph glyph-name="seven" unicode="7" horiz-adv-x="737" 
d="M709 573v93h-652v-104h515q-74 -45 -136.5 -112.5t-110.5 -144t-81.5 -156t-48.5 -149.5h132q45 178 139 322t243 251z" />
    <glyph glyph-name="eight" unicode="8" horiz-adv-x="801" 
d="M728 165v6q0 25 -10.5 51.5t-32 49.5t-54.5 40.5t-78 25.5q88 20 124 62t36 92v5q0 34 -19 69t-58 62.5t-97.5 45t-137.5 17.5q-80 0 -138.5 -17.5t-97.5 -45t-58 -62.5t-19 -69v-5q0 -25 8.5 -49.5t27.5 -45.5t49.5 -38t74.5 -27q-45 -8 -78 -24.5t-54.5 -38.5
t-32 -47.5t-10.5 -50.5v-6q0 -36 22 -70t64 -61t103 -43t139 -16t138.5 16t102.5 43t64 61t22 70zM602 488q0 -21 -15 -40.5t-41.5 -34t-63.5 -23t-81 -8.5t-81 8.5t-64 23t-42 34t-15 40.5v2q0 18 11.5 36t36 32.5t62.5 23.5t92 9q53 0 91 -9t62.5 -23.5t36 -32.5t11.5 -36
v-2zM605 182q0 -47 -50.5 -76t-153.5 -29t-154 29t-51 76v4q0 21 14 40t40.5 33t64.5 22.5t86 8.5q47 0 85 -8.5t64.5 -22.5t40.5 -33t14 -40v-4z" />
    <glyph glyph-name="nine" unicode="9" horiz-adv-x="777" 
d="M710 339v12q0 66 -22.5 127t-65.5 108.5t-105.5 75.5t-142.5 28q-68 0 -124.5 -19.5t-97 -52.5t-63 -77t-22.5 -92v-5q0 -47 21 -85.5t59 -67t91 -44t118 -15.5q75 0 132 23t101 57v-10q0 -47 -15 -88t-44.5 -71t-73.5 -47.5t-103 -17.5q-60 0 -123 16t-118 45l-53 -91
q65 -34 136.5 -54t156.5 -20q89 0 156 29t112 78.5t67.5 116t22.5 141.5zM584 394q-46 -34 -93 -50t-112 -16q-97 0 -144 34t-47 88v7q0 25 12.5 48t36.5 40.5t58.5 28t78.5 10.5q50 0 89 -17t66 -43.5t41 -59.5t14 -66v-4z" />
    <glyph glyph-name="colon" unicode=":" horiz-adv-x="286" 
d="M201 332v113h-116v-113h116zM201 0v113h-116v-113h116z" />
    <glyph glyph-name="semicolon" unicode=";" horiz-adv-x="286" 
d="M201 332v113h-116v-113h116zM201 13v100h-116v-113h52q0 -49 -24 -75.5t-63 -26.5v-32q44 0 73 14t46.5 35.5t24.5 47.5t7 50z" />
    <glyph glyph-name="less" unicode="&#x3c;" horiz-adv-x="585" 
d="M492 55v116l-272 162l272 162v116l-426 -263v-29z" />
    <glyph glyph-name="equal" unicode="=" horiz-adv-x="516" 
d="M456 378v92h-396v-92h396zM456 196v92h-396v-92h396z" />
    <glyph glyph-name="greater" unicode="&#x3e;" horiz-adv-x="585" 
d="M519 319v29l-426 263v-116l272 -162l-272 -162v-116z" />
    <glyph glyph-name="question" unicode="?" horiz-adv-x="635" 
d="M597 502q0 39 -20.5 73.5t-57 60t-88.5 40.5t-115 15q-42 0 -79 -5.5t-72.5 -17t-71.5 -27.5t-75 -37l46 -91q33 17 62 30.5t58 22.5t58.5 14t64.5 5q86 0 126.5 -26t40.5 -64q0 -21 -18.5 -39t-47 -35t-61 -35.5t-61 -41.5t-47 -52.5t-18.5 -67.5h110q0 29 19.5 50.5
t49.5 39.5t64 35.5t64 38.5t49.5 48.5t19.5 65.5zM334 0v113h-116v-113h116z" />
    <glyph glyph-name="at" unicode="@" horiz-adv-x="818" 
d="M763 387q0 48 -19.5 101.5t-61 98.5t-105.5 74.5t-152 29.5q-77 0 -143 -28.5t-114 -77.5t-75.5 -114.5t-27.5 -139.5q0 -75 27.5 -140t75.5 -113t114 -75.5t143 -27.5q69 0 130.5 23t108.5 63l-36 44q-39 -36 -90.5 -55.5t-112.5 -19.5q-66 0 -120.5 23.5t-93.5 64.5
t-61 96t-22 119q0 62 22 117t61 96.5t93.5 65.5t120.5 24q60 0 110 -18.5t87 -52t57.5 -79.5t20.5 -101q0 -41 -10 -74t-26.5 -55.5t-37.5 -34.5t-44 -12q-31 0 -41 20.5t2 54.5l72 210h-93l-19 -53q-4 28 -24 45t-54 17q-41 0 -77 -21.5t-62.5 -54.5t-41.5 -72t-15 -74
q0 -53 30 -86t81 -33q37 0 66.5 20t52.5 58q0 -20 7.5 -36t21 -27t32.5 -17.5t40 -6.5q49 0 87 20t64 53t39 75t13 86zM485 394l-29 -86q-12 -35 -33 -59.5t-52 -24.5q-22 0 -34.5 14t-12.5 42q0 24 9 53.5t24.5 55t37 42.5t47.5 17q24 0 33.5 -16.5t9.5 -37.5z" />
    <glyph glyph-name="A" unicode="A" horiz-adv-x="857" 
d="M844 0l-366 666h-104l-360 -666h132l85 165h391l88 -165h134zM573 256h-295l145 280z" />
    <glyph glyph-name="B" unicode="B" horiz-adv-x="822" 
d="M759 180v9q0 21 -8.5 43.5t-26.5 42.5t-46.5 35.5t-68.5 21.5q35 7 61 22t43.5 35t26 44.5t8.5 50.5v9q0 78 -64.5 125.5t-189.5 47.5h-399v-666h402q62 0 111 13t82.5 36.5t51 56.5t17.5 74zM628 467q0 -37 -31.5 -64.5t-100.5 -27.5h-276v187h282q69 0 97.5 -27
t28.5 -65v-3zM628 193q0 -19 -7 -36t-22 -29.5t-39 -20t-58 -7.5h-282v188h276q35 0 60 -7.5t41 -20t23.5 -29t7.5 -35.5v-3z" />
    <glyph glyph-name="C" unicode="C" horiz-adv-x="850" 
d="M804 557q-26 28 -62 52t-80 42t-93.5 28.5t-102.5 10.5q-92 0 -167.5 -29.5t-129.5 -78t-84 -112t-30 -130.5v-22q0 -68 28 -130t80 -109.5t127 -76t170 -28.5q55 0 105.5 10.5t94.5 29t80.5 42.5t63.5 51l-75 79q-22 -20 -50 -39.5t-61 -34.5t-70.5 -24t-79.5 -9
q-70 0 -123.5 20.5t-90 54.5t-55 78t-18.5 91v13q0 48 18.5 92.5t54 79.5t87 56t118.5 21q45 0 83.5 -9t72 -24t61 -34t50.5 -40z" />
    <glyph glyph-name="D" unicode="D" horiz-adv-x="877" 
d="M822 321v22q0 67 -27 126t-77.5 103t-122 69t-159.5 25h-341v-666h341q88 0 159.5 25.5t122 69t77.5 102t27 124.5zM697 325q0 -48 -18.5 -89t-52.5 -71t-83 -46.5t-110 -16.5h-213v460h213q61 0 110 -16.5t83 -45.5t52.5 -70t18.5 -89v-16z" />
    <glyph glyph-name="E" unicode="E" horiz-adv-x="760" 
d="M700 0v104h-480v186h369v101h-369v171h480v104h-605v-666h605z" />
    <glyph glyph-name="F" unicode="F" horiz-adv-x="737" 
d="M688 562v104h-593v-666h124v272h349v99h-349v191h469z" />
    <glyph glyph-name="G" unicode="G" horiz-adv-x="882" 
d="M811 0v344h-339v-99h205v-7q0 -30 -16.5 -58.5t-45.5 -51t-70 -36t-89 -13.5q-64 0 -115 20t-86.5 54t-54.5 78.5t-19 93.5v11q0 49 18 94t54 79.5t89 55t123 20.5q40 0 77.5 -9t71 -24t61.5 -34t51 -40l78 79q-25 27 -59.5 51t-78 42t-94 29t-106.5 11q-92 0 -167.5 -29
t-129.5 -78.5t-84 -114t-30 -135.5v-12q0 -69 27.5 -132t78.5 -111t122.5 -76t160.5 -28q85 0 152.5 30t115.5 86l19 -90h80z" />
    <glyph glyph-name="H" unicode="H" horiz-adv-x="898" 
d="M803 0v666h-125v-282h-458v282h-125v-666h125v286h458v-286h125z" />
    <glyph glyph-name="I" unicode="I" horiz-adv-x="315" 
d="M220 0v666h-125v-666h125z" />
    <glyph glyph-name="J" unicode="J" horiz-adv-x="674" 
d="M589 200v466h-125v-457q0 -61 -36.5 -95t-116.5 -34q-64 0 -118.5 22.5t-100.5 57.5l-62 -86q58 -48 128.5 -74t161.5 -26q63 0 113 17.5t84.5 47.5t53 71.5t18.5 89.5z" />
    <glyph glyph-name="K" unicode="K" horiz-adv-x="830" 
d="M808 0l-23 20.5t-59 53t-81 73t-89 80t-82 74t-61 55.5l386 310h-169l-411 -341v341h-124v-666h124v201l111 88l23.5 -21t58.5 -53.5t76 -70t76 -69.5t58.5 -53.5l23.5 -21.5h162z" />
    <glyph glyph-name="L" unicode="L" horiz-adv-x="776" 
d="M741 0v104h-521v562h-125v-666h646z" />
    <glyph glyph-name="M" unicode="M" horiz-adv-x="1119" 
d="M1024 0v666h-171l-260 -457l-31 -56l-31 56l-263 457h-173v-666h122v527l33 -58l276 -469h61l279 469l33 58v-527h125z" />
    <glyph glyph-name="N" unicode="N" horiz-adv-x="898" 
d="M803 0v666h-125v-493l-43 48l-420 445h-120v-666h125v493l42 -47l433 -446h108z" />
    <glyph glyph-name="O" unicode="O" 
d="M834 321v22q0 67 -27.5 130t-78.5 111t-123 77t-161 29t-160.5 -29t-122.5 -77t-78.5 -111t-27.5 -130v-22q0 -66 27.5 -128.5t78.5 -111t122.5 -78t160.5 -29.5t161 29.5t123 78t78.5 111t27.5 128.5zM708 325q0 -48 -17.5 -92.5t-51 -78.5t-82.5 -54.5t-113 -20.5
t-113 20.5t-82.5 54.5t-50.5 78.5t-17 92.5v16q0 48 17 92.5t50.5 78t82.5 53.5t113 20t113 -20t82.5 -53.5t51 -78t17.5 -92.5v-16z" />
    <glyph glyph-name="P" unicode="P" horiz-adv-x="798" 
d="M747 457v4q0 46 -17 83.5t-53 64.5t-90.5 42t-129.5 15h-362v-666h124v249h238q75 0 129.5 15t90.5 42.5t53 66t17 84.5zM622 453q0 -21 -7.5 -40t-24.5 -33t-43.5 -22.5t-65.5 -8.5h-262v213h256q77 0 112 -29.5t35 -71.5v-8z" />
    <glyph glyph-name="Q" unicode="Q" 
d="M875 -13v75q-38 0 -73 7.5t-61 25.5q45 48 69 106t24 120v22q0 67 -27.5 130t-78.5 111t-123 77t-161 29t-160.5 -29t-122.5 -77t-78.5 -111t-27.5 -130v-22q0 -66 27.5 -128.5t78.5 -111t122.5 -78t160.5 -29.5q59 0 109.5 13t93.5 36q27 -24 63 -38.5t77 -14.5
q33 0 51 4.5t37 12.5zM708 325q0 -91 -55 -157l-95 89l-85 -70l91 -85q-26 -11 -56 -17.5t-64 -6.5q-64 0 -113 20.5t-82.5 54.5t-50.5 78.5t-17 93.5v16q0 49 17 93t50.5 78t82.5 54t113 20t113.5 -20t83 -53.5t50.5 -78t17 -93.5v-16z" />
    <glyph glyph-name="R" unicode="R" horiz-adv-x="829" 
d="M782 0v3q-24 25 -32 51t-9 61l-1 55q0 29 -7 54.5t-24.5 44.5t-48 31.5t-79.5 16.5q49 9 81 26t51 39t27 48t8 53q0 39 -17 72t-53 58t-90.5 39t-129.5 14h-363v-666h125v269h236q47 0 76.5 -5.5t47 -17t24 -29t8.5 -42.5l4 -68q3 -45 15 -76t38 -31h113zM622 459
q0 -40 -33 -68.5t-102 -28.5h-267v200h256q40 0 68 -8t45 -21.5t25 -30.5t8 -35v-8z" />
    <glyph glyph-name="S" unicode="S" horiz-adv-x="808" 
d="M755 187q0 47 -24 79t-63.5 53.5t-89.5 35t-102.5 23t-102.5 17.5t-89.5 19.5t-63.5 28.5t-24 44q0 21 15.5 39.5t44 32t68 21.5t88.5 8q37 0 74.5 -6.5t72 -17t64.5 -24.5t53 -29l68 84q-28 18 -64.5 35.5t-78.5 30.5t-89 21t-96 8q-79 0 -143 -17t-109 -46t-69 -69.5
t-24 -86.5t24 -76.5t63 -50.5t89.5 -32t102.5 -21t102.5 -17.5t89.5 -20.5t63 -30.5t24 -48.5q0 -19 -12.5 -37t-38 -31.5t-64.5 -21.5t-93 -8q-81 0 -162.5 22t-160.5 61l-46 -99q78 -37 169.5 -61.5t193.5 -24.5q74 0 136.5 15t107.5 42.5t70.5 67t25.5 88.5z" />
    <glyph glyph-name="T" unicode="T" horiz-adv-x="817" 
d="M762 562v104h-707v-104h291v-562h125v562h291z" />
    <glyph glyph-name="U" unicode="U" horiz-adv-x="877" 
d="M792 277v389h-125v-391q0 -92 -52.5 -144t-170.5 -52q-116 0 -175.5 51.5t-59.5 144.5v391h-124v-389q0 -65 21 -120.5t64.5 -96t109 -63.5t155.5 -23q94 0 161.5 24t111 65.5t64 96.5t20.5 117z" />
    <glyph glyph-name="V" unicode="V" horiz-adv-x="869" 
d="M857 666h-137l-284 -529l-285 529h-136l366 -666h99z" />
    <glyph glyph-name="W" unicode="W" horiz-adv-x="1271" 
d="M1264 666h-132l-212 -519l-233 519h-100l-225 -519l-212 519h-135l287 -666h111l223 509l220 -509h110z" />
    <glyph glyph-name="X" unicode="X" horiz-adv-x="841" 
d="M803 666h-148l-230 -266l-234 266h-148l298 -335l-298 -331h148l230 266l234 -266h148l-298 334z" />
    <glyph glyph-name="Y" unicode="Y" horiz-adv-x="814" 
d="M802 666h-148l-241 -309l-257 309h-148l336 -398v-268h125v266z" />
    <glyph glyph-name="Z" unicode="Z" horiz-adv-x="810" 
d="M758 631v35h-685v-104h478l-501 -527v-35h703v104h-496z" />
    <glyph glyph-name="bracketleft" unicode="[" horiz-adv-x="394" 
d="M418 -211v92h-201v834h201v92h-308v-1018h308z" />
    <glyph glyph-name="backslash" unicode="\" horiz-adv-x="466" 
d="M440 -133l-329 862h-81l330 -862h80z" />
    <glyph glyph-name="bracketright" unicode="]" horiz-adv-x="394" 
d="M284 -211v1018h-308v-92h201v-834h-201v-92h308z" />
    <glyph glyph-name="asciicircum" unicode="^" horiz-adv-x="481" 
d="M436 522v31q-17 0 -37 7.5t-38.5 22t-33.5 35.5t-24 48h-126q-9 -27 -24 -48t-33.5 -35.5t-38 -22t-36.5 -7.5v-31q14 -5 26.5 -6.5t26.5 -1.5q24 0 46.5 7.5t41 21t31.5 32t19 39.5q13 -42 51.5 -71t87.5 -29q14 0 30.5 1.5t30.5 6.5z" />
    <glyph glyph-name="underscore" unicode="_" horiz-adv-x="680" 
d="M665 -82v82h-650v-82h650z" />
    <glyph glyph-name="grave" unicode="`" horiz-adv-x="312" 
d="M240 552l-56 154h-127l115 -154h68z" />
    <glyph glyph-name="a" unicode="a" horiz-adv-x="657" 
d="M636 -8v79q-41 0 -54.5 8t-13.5 34v150q0 51 -14 91.5t-44 69t-77.5 44t-113.5 15.5q-70 0 -124.5 -20.5t-102.5 -55.5l49 -67q41 26 83 41.5t90 15.5q71 0 105.5 -28.5t34.5 -79.5v-31q-83 22 -156 22.5t-127.5 -16.5t-86 -49.5t-31.5 -77.5v-4q0 -34 15 -60.5
t41.5 -44.5t63.5 -27t82 -9q69 0 128 24t100 71q-2 -29 6.5 -47t24 -29t35.5 -15t43 -4h44zM454 183q0 -24 -17 -44t-42.5 -34t-57 -22t-59.5 -8q-48 0 -77.5 17.5t-29.5 42.5v4q0 25 19 43t55 26t88.5 4.5t120.5 -22.5v-7z" />
    <glyph glyph-name="b" unicode="b" horiz-adv-x="706" 
d="M655 230v15q0 47 -18 90t-50 76t-76 52.5t-96 19.5q-139 0 -211 -104v287h-114v-666h68l31 101q10 -26 31.5 -46t51 -34t64 -21.5t70.5 -7.5q54 0 99.5 19.5t78.5 52.5t52 76t19 90zM537 230q0 -76 -44 -116.5t-117 -40.5q-30 0 -59.5 10t-53.5 29t-39 47.5t-15 66.5v10
q0 37 12.5 68t35 52.5t53 33.5t66.5 12q73 0 117 -41t44 -116v-15z" />
    <glyph glyph-name="c" unicode="c" horiz-adv-x="632" 
d="M586 82l-66 55q-38 -31 -76.5 -45t-92.5 -14q-36 0 -69 11t-58 31t-39.5 48.5t-14.5 64.5v9q0 33 14 61.5t38.5 49.5t57.5 32.5t71 11.5q54 0 92.5 -17t73.5 -45l73 54q-38 42 -99 68t-145 26q-58 0 -111.5 -18.5t-94 -51t-65 -77.5t-24.5 -99v-8q0 -54 22.5 -97.5
t62 -74.5t93 -48t114.5 -17q75 0 133.5 21t109.5 69z" />
    <glyph glyph-name="d" unicode="d" horiz-adv-x="685" 
d="M617 0v666h-114v-268q-33 41 -79.5 63t-115.5 22q-51 0 -97.5 -20t-82 -53t-56.5 -76.5t-21 -91.5v-15q0 -48 18.5 -90.5t52.5 -74.5t81 -51t103 -19q73 0 130.5 30.5t81.5 81.5l19 -104h80zM497 227q0 -35 -13 -63t-35.5 -48.5t-52.5 -31.5t-64 -11q-35 0 -64.5 11
t-51.5 32t-34 50.5t-12 65.5v11q0 73 44.5 116t117.5 43q39 0 69.5 -13.5t51.5 -36t32.5 -52.5t11.5 -63v-10z" />
    <glyph glyph-name="e" unicode="e" horiz-adv-x="659" 
d="M612 218v15q0 52 -19.5 97.5t-56 79.5t-88.5 53.5t-118 19.5q-64 0 -115.5 -20t-88 -54t-56 -79t-19.5 -94v-9q0 -52 22.5 -95.5t61 -74.5t91 -48t112.5 -17q88 0 148.5 23t110.5 71l-60 56q-21 -17 -41 -30t-42.5 -21.5t-48 -13t-57.5 -4.5q-39 0 -72.5 11t-57.5 30
t-37.5 45t-13.5 56v3h445zM497 281h-327v1q0 24 11.5 45.5t33 38t51.5 26.5t66 10t66 -11t52 -28.5t34.5 -39t12.5 -41.5v-1z" />
    <glyph glyph-name="f" unicode="f" horiz-adv-x="418" 
d="M395 390v78h-136v19q0 54 23.5 79.5t79.5 25.5h35v86h-33q-61 0 -103.5 -14.5t-69.5 -41t-39.5 -63t-12.5 -80.5v-11h-101v-78h101v-390h120v390h136z" />
    <glyph glyph-name="g" unicode="g" horiz-adv-x="641" 
d="M626 478q0 7 -0.5 18t-5.5 37h-91q0 -21 -2.5 -38t-9.5 -27.5t-20 -13t-35 5.5q-24 9 -58.5 16t-84.5 7q-49 0 -92 -11t-75.5 -30t-51.5 -45t-19 -56v-3q0 -30 23 -57t69 -41q-56 -8 -90 -35t-34 -63q0 -26 26 -44.5t94 -30.5q-40 -6 -67.5 -18.5t-45 -27.5t-25 -31
t-7.5 -30v-3q0 -26 18.5 -46t53.5 -34t85 -21.5t113 -7.5q88 0 151 15t103 37.5t58.5 49t18.5 50.5v3q0 24 -11.5 46t-41.5 39.5t-83 28t-136 10.5q-64 0 -104.5 3t-64 8t-32 13t-8.5 18q0 18 19.5 30t69.5 12q5 -2 17 -3.5t25.5 -3t25.5 -2.5t18 -1q114 0 178 36t64 98v3
q0 17 -9 37.5t-31 33.5q8 -1 14.5 -2t20.5 -1q10 0 22.5 2t23 9t17.5 21.5t7 39.5zM449 341q0 -13 -6.5 -25.5t-22 -22t-40.5 -15.5t-61 -6t-60.5 6t-40 15.5t-22.5 22t-7 25.5v1q0 27 29.5 48.5t100.5 21.5q36 0 61 -6t40.5 -15.5t22 -22.5t6.5 -26v-1zM507 -6
q0 -29 -52.5 -46.5t-149.5 -17.5q-89 0 -127 12t-38 39v1q0 12 10.5 24.5t36 22.5t68.5 16.5t108 6.5q79 0 111.5 -15t32.5 -42v-1z" />
    <glyph glyph-name="h" unicode="h" horiz-adv-x="699" 
d="M617 0v295q0 40 -12.5 74t-35.5 59t-55.5 39t-73.5 14q-71 0 -132.5 -30.5t-103.5 -102.5v318h-114v-666h114v191q0 43 15.5 80.5t41 65.5t59 44t69.5 16q56 0 82 -30t26 -89v-278h120z" />
    <glyph glyph-name="i" unicode="i" horiz-adv-x="300" 
d="M207 549v95h-114v-95h114zM210 0v468h-120v-468h120z" />
    <glyph glyph-name="j" unicode="j" horiz-adv-x="300" 
d="M207 549v95h-114v-95h114zM210 51v417h-120v-425q0 -27 -3.5 -47.5t-14.5 -34.5t-31.5 -21t-54.5 -7h-34v-81h44q61 0 102 14.5t66 41t35.5 63t10.5 80.5z" />
    <glyph glyph-name="k" unicode="k" horiz-adv-x="630" 
d="M612 0l-227 272l212 196h-135l-268 -255v453h-114v-666h114v101l120 111l171 -212h127z" />
    <glyph glyph-name="l" unicode="l" horiz-adv-x="294" 
d="M204 0v666h-114v-666h114z" />
    <glyph glyph-name="m" unicode="m" horiz-adv-x="1019" 
d="M937 0v295q0 38 -9 72t-27.5 59.5t-47.5 40t-69 14.5q-68 0 -120 -35t-94 -112q-4 29 -17 55.5t-32.5 47t-45.5 32.5t-56 12q-32 0 -62 -8t-57 -26.5t-52 -49.5t-48 -76v147h-110v-468h120v184q0 35 11.5 73t32 69t49 51t62.5 20q53 0 71 -30.5t18 -88.5v-278h119v184
q0 35 11.5 73t32 69t49 51t63.5 20q52 0 70 -30.5t18 -88.5v-278h120z" />
    <glyph glyph-name="n" unicode="n" horiz-adv-x="719" 
d="M637 0v295q0 40 -12.5 74t-35.5 59t-57 39t-77 14q-79 0 -144 -40.5t-111 -131.5v159h-110v-468h120v184q0 42 17.5 81t45.5 68t62.5 46.5t68.5 17.5q60 0 86.5 -30t26.5 -89v-278h120z" />
    <glyph glyph-name="o" unicode="o" horiz-adv-x="684" 
d="M633 230v15q0 53 -24 97t-64.5 75.5t-93 48.5t-109.5 17t-109.5 -17t-93 -48.5t-64.5 -75.5t-24 -97v-15q0 -53 24 -97t64.5 -75.5t93 -48.5t109.5 -17t109.5 17t93 48.5t64.5 75.5t24 97zM514 233q0 -33 -11.5 -62.5t-34 -51t-54.5 -34t-72 -12.5q-41 0 -73 12.5t-54 34
t-33.5 51t-11.5 62.5v9q0 33 11.5 62.5t33.5 51t54 34t73 12.5q40 0 72 -12.5t54.5 -34t34 -51t11.5 -62.5v-9z" />
    <glyph glyph-name="p" unicode="p" horiz-adv-x="707" 
d="M656 233v9q0 49 -18 92.5t-51 76.5t-78.5 52.5t-100.5 19.5q-36 0 -70.5 -9.5t-63.5 -25.5t-51 -37.5t-34 -46.5l-19 104h-80v-613h114v219q35 -41 84 -61.5t115 -20.5q51 0 96.5 20t80.5 53t55.5 76.5t20.5 91.5zM537 230q0 -73 -44 -115t-117 -42q-30 0 -59.5 10
t-53 29t-38.5 47.5t-15 66.5v10q0 37 12.5 68t35 52.5t52.5 33.5t66 12q73 0 117 -43.5t44 -113.5v-15z" />
    <glyph glyph-name="q" unicode="q" horiz-adv-x="697" 
d="M617 -145v613h-80l-19 -104q-23 58 -77.5 88.5t-132.5 30.5q-51 0 -97.5 -20t-82 -53.5t-56.5 -77t-21 -90.5v-15q0 -47 18.5 -90t52.5 -75t80.5 -51t103.5 -19q60 0 111.5 21.5t85.5 57.5v-216h114zM497 227q0 -35 -13 -63t-35.5 -48.5t-52.5 -31.5t-64 -11
q-35 0 -64.5 11t-51.5 32t-34 50.5t-12 65.5v11q0 73 44 116t117 43q39 0 69.5 -13.5t52 -36t33 -52.5t11.5 -63v-10z" />
    <glyph glyph-name="r" unicode="r" horiz-adv-x="458" 
d="M431 369v102q-48 3 -83.5 -1.5t-62.5 -18.5t-47.5 -39.5t-38.5 -64.5v121h-109v-468h119v266q0 27 13.5 50.5t41.5 38.5t69.5 19.5t97.5 -5.5z" />
    <glyph glyph-name="s" unicode="s" horiz-adv-x="593" 
d="M544 399q-52 39 -110.5 61.5t-142.5 22.5q-56 0 -99 -13t-72.5 -33.5t-45 -47t-15.5 -53.5q0 -45 28.5 -71t71 -40t92 -20.5t92 -14t71 -19.5t28.5 -37q0 -30 -33.5 -45.5t-95.5 -15.5q-60 0 -112 19t-96 50l-67 -61q51 -44 119.5 -66.5t146.5 -22.5q63 0 109.5 13.5
t77 34.5t46 47t15.5 52q0 47 -28.5 74t-71.5 42t-93 22t-93 14.5t-71.5 18.5t-28.5 35t35 40.5t99 16.5q25 0 50 -5.5t48 -14t42.5 -19.5t34.5 -22z" />
    <glyph glyph-name="t" unicode="t" horiz-adv-x="421" 
d="M384 390v78h-125v123l-120 -42v-81h-101v-78h101v-247q0 -46 12.5 -83t38.5 -60h139q-34 28 -52 65.5t-18 77.5v247h125z" />
    <glyph glyph-name="u" unicode="u" horiz-adv-x="708" 
d="M633 0v468h-119v-196q0 -42 -15.5 -79t-41.5 -64t-59 -42.5t-67 -15.5q-124 0 -124 119v278h-120v-299q0 -83 49.5 -132.5t144.5 -49.5q83 0 141.5 40.5t101.5 119.5v-147h109z" />
    <glyph glyph-name="v" unicode="v" horiz-adv-x="636" 
d="M617 468h-129l-111 -237l-62 -123l-61 123l-111 237h-129l251 -468h100z" />
    <glyph glyph-name="w" unicode="w" horiz-adv-x="961" 
d="M942 468h-122l-116 -283l-25 -67l-26 67l-118 282l-113 1l-115 -283l-25 -67l-26 67l-118 283h-123l217 -468h92l124 290l28 65l29 -65l128 -290h93z" />
    <glyph glyph-name="x" unicode="x" horiz-adv-x="630" 
d="M614 0l-230 239l230 229h-130l-164 -170l-161 170h-138l230 -239l-230 -229h131l164 170l161 -170h137z" />
    <glyph glyph-name="y" unicode="y" horiz-adv-x="635" 
d="M617 468h-128l-112 -237l-60 -119l-59 119l-117 237h-127l236 -442l-11 -21q-18 -35 -46 -53.5t-77 -18.5h-48v-81h44q60 0 101 11.5t73.5 39.5t62.5 75.5t68 118.5z" />
    <glyph glyph-name="z" unicode="z" horiz-adv-x="626" 
d="M573 413v55h-518v-87h353l-361 -326v-55h519v87h-355z" />
    <glyph glyph-name="braceleft" unicode="{" horiz-adv-x="442" 
d="M392 -211v97h-67q-31 0 -50.5 16.5t-19.5 48.5q0 33 10.5 63.5t22.5 59t22.5 55t10.5 50.5q0 46 -26 77t-80 42q54 11 80 41.5t26 76.5q0 24 -10.5 50.5t-22.5 55t-22.5 59t-10.5 63.5q0 29 15 47t55 18h67v98h-79q-45 0 -78 -13.5t-55 -36t-32.5 -52.5t-10.5 -62
q0 -44 14.5 -79.5t32 -65.5t32 -55.5t14.5 -49.5q0 -31 -16 -42t-60 -11h-46v-79h46q44 0 60 -14t16 -45q0 -24 -14.5 -49.5t-32 -55.5t-32 -65.5t-14.5 -79.5q0 -32 10.5 -61.5t32.5 -52t55 -36t78 -13.5h79z" />
    <glyph glyph-name="bar" unicode="|" horiz-adv-x="190" 
d="M135 -133v862h-80v-862h80z" />
    <glyph glyph-name="braceright" unicode="}" horiz-adv-x="442" 
d="M334 261v79h-46q-44 0 -60 11t-16 42q0 24 14.5 49.5t32 55.5t32 65.5t14.5 79.5q0 32 -10.5 62t-32.5 52.5t-55 36t-78 13.5h-79v-98h67q40 0 55 -18t15 -47q0 -33 -10.5 -63.5t-22.5 -59t-22.5 -55t-10.5 -50.5q0 -46 26 -76.5t80 -41.5q-54 -11 -80 -42t-26 -77
q0 -24 10.5 -50.5t22.5 -55t22.5 -59t10.5 -63.5q0 -32 -19.5 -48.5t-50.5 -16.5h-67v-97h79q45 0 78 13.5t55 36t32.5 52t10.5 61.5q0 44 -14.5 79.5t-32 65.5t-32 55.5t-14.5 49.5q0 31 16 45t60 14h46z" />
    <glyph glyph-name="asciitilde" unicode="~" horiz-adv-x="478" 
d="M439 357q0 16 -3.5 26t-8.5 21h-69v-25q0 -14 -5.5 -27t-23.5 -13q-15 0 -36.5 10.5t-46.5 22.5t-51 22.5t-50 10.5q-50 0 -77.5 -27t-27.5 -68q0 -16 3.5 -26t8.5 -21h69v25q0 14 5.5 27t23.5 13q15 0 36.5 -10t46.5 -22.5t51 -22.5t50 -10q50 0 77.5 27t27.5 67z" />
    <glyph glyph-name="exclamdown" unicode="&#xa1;" horiz-adv-x="275" 
d="M195 355v113h-116v-113h116zM199 -198v180l-42 262h-40l-43 -262v-180h125z" />
    <glyph glyph-name="cent" unicode="&#xa2;" horiz-adv-x="632" 
d="M586 176l-69 58q-38 -31 -77.5 -45.5t-93.5 -14.5q-40 0 -72.5 11t-55.5 31t-35.5 48t-12.5 63v9q0 33 12.5 61t35.5 48.5t55.5 32.5t72.5 12q54 0 93.5 -18t74.5 -46l76 57q-30 33 -82 58.5t-118 33.5v106h-105v-109q-48 -9 -91 -30t-74.5 -52.5t-50 -72t-18.5 -86.5v-8
q0 -47 17.5 -86.5t49 -69.5t74 -50t93.5 -27v-103h105v102q115 12 196 87z" />
    <glyph glyph-name="sterling" unicode="&#xa3;" horiz-adv-x="899" 
d="M875 31l-44 95q-29 -12 -53.5 -21t-49.5 -14t-51 -7.5t-57 -2.5q-62 0 -112.5 14t-96.5 36q25 25 33.5 46.5t8.5 44.5q0 14 -4 30t-13 30h254v95h-314q-23 21 -38 43.5t-15 46.5q0 53 50 84.5t148 31.5q74 0 130.5 -17.5t113.5 -46.5l54 95q-57 32 -134 54.5t-174 22.5
q-71 0 -129 -19t-98.5 -50t-62.5 -70.5t-22 -80.5q0 -28 12 -51t30 -43h-151v-95h223q14 -14 21 -32t7 -35q0 -26 -19 -45q-25 15 -59.5 28.5t-75.5 13.5q-38 0 -67.5 -10t-50.5 -26.5t-32 -39t-11 -47.5t11.5 -46t31.5 -36t47.5 -23.5t59.5 -8.5q60 0 100.5 24t68.5 53
q61 -35 130.5 -56t147.5 -21q66 0 130.5 15.5t121.5 40.5zM276 98q-13 -16 -38 -27t-52 -11q-29 0 -42.5 10t-13.5 25q0 35 55 35q26 0 49 -9t42 -23z" />
    <glyph glyph-name="currency" unicode="&#xa4;" horiz-adv-x="838" 
d="M182 379q7 41 28 78.5t55.5 66t82.5 45t110 16.5q45 0 83.5 -9t72 -24t61 -34t50.5 -40l78 79q-26 28 -62 52t-80 42t-93.5 28.5t-102.5 10.5q-91 0 -166.5 -29.5t-129.5 -78t-84 -112t-30 -130.5v-22q0 -68 28 -130t80 -109.5t127 -76t169 -28.5q55 0 105.5 10.5
t94.5 29t80.5 42.5t63.5 51l-75 79q-22 -20 -50 -39.5t-61 -34.5t-70.5 -24t-79.5 -9q-65 0 -115.5 16.5t-86 45t-57 65.5t-27.5 79h534v94h-533z" />
    <glyph glyph-name="yen" unicode="&#xa5;" horiz-adv-x="794" 
d="M458 271h243v86h-193l272 309h-145l-233 -290l-248 290h-145l277 -309h-195v-86h243v-67h-243v-86h243v-118h124v118h243v86h-243v67z" />
    <glyph glyph-name="section" unicode="&#xa7;" horiz-adv-x="778" 
d="M688 600q-55 38 -130 64t-168 26q-70 0 -125.5 -15t-94.5 -41t-59.5 -60.5t-20.5 -73.5q0 -53 39.5 -86t100.5 -51q-32 -8 -58.5 -23t-46 -34.5t-30.5 -42t-11 -45.5q0 -41 21 -68t56 -45t79.5 -28.5t90.5 -18.5t90.5 -15t79.5 -17.5t56 -26t21 -40.5q0 -14 -11 -29
t-32.5 -27t-55 -19.5t-78.5 -7.5q-72 0 -141.5 21t-135.5 57l-54 -84q67 -40 149.5 -63.5t174.5 -23.5q70 0 126 14.5t95.5 39.5t60.5 59t21 73q0 30 -10.5 52t-29.5 38.5t-44 29t-55 21.5q34 9 60.5 24t45.5 34t29 40.5t10 42.5q0 41 -21.5 69t-56 46.5t-79 30t-91 20
t-91 16t-79 17.5t-56 25t-21.5 39q0 16 13 31t36.5 26.5t57.5 18.5t76 7q32 0 64.5 -6t62 -16t55.5 -23t46 -26zM584 238q0 -15 -8.5 -30.5t-26 -29.5t-42.5 -24.5t-58 -15.5q-47 9 -91 16t-79 17t-56 24.5t-21 38.5q0 35 39 63t106 38q45 -8 87.5 -14.5t76 -17t53.5 -26
t20 -39.5z" />
    <glyph glyph-name="dieresis" unicode="&#xa8;" horiz-adv-x="441" 
d="M379 558v95h-114v-95h114zM176 558v95h-114v-95h114z" />
    <glyph glyph-name="copyright" unicode="&#xa9;" horiz-adv-x="846" 
d="M781 333q0 74 -27 139.5t-75 114t-113.5 76.5t-142.5 28t-142.5 -28t-113.5 -76.5t-75 -114t-27 -139.5t27 -139.5t75 -114t113.5 -76.5t142.5 -28t142.5 28t113.5 76.5t75 114t27 139.5zM724 333q0 -64 -22 -120t-62 -98t-95 -66t-122 -24t-122.5 24t-95 66t-61.5 98
t-22 120t22 120t61.5 97.5t95 65.5t122.5 24t122 -24t95 -65.5t62 -97.5t22 -120zM575 243l-59 32q-11 -22 -32.5 -38t-47.5 -16q-45 0 -65.5 18.5t-20.5 62.5v60q0 45 20 64t65 19q27 0 48.5 -16.5t32.5 -36.5l60 31q-14 35 -51 62t-93 27q-39 0 -69 -11.5t-51 -31t-32 -46
t-11 -57.5v-67q0 -31 10.5 -57.5t31.5 -46t51 -31t69 -11.5q28 0 51.5 7.5t41.5 20t31 28.5t20 34z" />
    <glyph glyph-name="ordfeminine" unicode="&#xaa;" horiz-adv-x="516" 
d="M470 297v68q-26 0 -34.5 6t-8.5 23v111q0 73 -43 118t-135 45q-52 0 -91 -15.5t-71 -41.5l45 -57q25 18 50.5 29t56.5 11q88 0 88 -73v-25q-57 16 -106 15.5t-85 -13t-57 -36.5t-21 -56v-3q0 -51 38.5 -78.5t98.5 -27.5q48 0 88 18t67 56q2 -43 26 -58.5t64 -15.5h30z
M327 442q0 -17 -9.5 -31t-24.5 -24t-33.5 -15.5t-36.5 -5.5q-30 0 -47.5 12t-17.5 30v3q0 16 11 28t32.5 17.5t53 3.5t72.5 -14v-4z" />
    <glyph glyph-name="guillemotleft" unicode="&#xab;" horiz-adv-x="640" 
d="M576 0q0 66 -30.5 123t-84.5 94q54 36 84.5 93.5t30.5 123.5h-58q-8 -23 -24.5 -50.5t-40.5 -53.5t-56.5 -47.5t-72.5 -32.5v-66q40 -11 72.5 -33t56.5 -48t40.5 -53.5t24.5 -49.5h58zM306 0q0 66 -30.5 123t-84.5 94q54 36 84.5 93.5t30.5 123.5h-58q-8 -23 -24.5 -50.5
t-40.5 -53.5t-56.5 -47.5t-72.5 -32.5v-66q40 -11 72.5 -33t56.5 -48t40.5 -53.5t24.5 -49.5h58z" />
    <glyph glyph-name="logicalnot" unicode="&#xac;" horiz-adv-x="520" 
d="M452 210l-127 124l127 124l-67 66l-124 -127l-124 127l-68 -68l127 -124l-127 -124l67 -66l124 127l124 -127z" />
    <glyph glyph-name="registered" unicode="&#xae;" horiz-adv-x="846" 
d="M781 333q0 74 -27 139.5t-75 114t-113.5 76.5t-142.5 28t-142.5 -28t-113.5 -76.5t-75 -114t-27 -139.5t27 -139.5t75 -114t113.5 -76.5t142.5 -28t142.5 28t113.5 76.5t75 114t27 139.5zM724 333q0 -64 -22 -120t-62 -98t-95 -66t-122 -24t-122.5 24t-95 66t-61.5 98
t-22 120t22 120t61.5 97.5t95 65.5t122.5 24t122 -24t95 -65.5t62 -97.5t22 -120zM590 162v11q-18 17 -18 46v39q0 25 -16.5 44.5t-51.5 24.5q34 8 52 28t18 46v12q0 39 -33.5 64.5t-97.5 25.5h-152v-340h79v135h75q28 0 38 -10.5t10 -27.5v-45q0 -23 9 -38t27 -15h61z
M496 389q0 -41 -52 -41h-74v92h74q28 0 40 -11.5t12 -30.5v-9z" />
    <glyph glyph-name="macron" unicode="&#xaf;" horiz-adv-x="442" 
d="M397 582v74h-351v-74h351z" />
    <glyph glyph-name="macron" unicode="&#x2c9;" horiz-adv-x="442" 
d="M397 582v74h-351v-74h351z" />
    <glyph glyph-name="degree" unicode="&#xb0;" horiz-adv-x="468" 
d="M404 519q0 32 -12.5 62t-35 52.5t-53.5 36t-69 13.5t-69 -13.5t-53 -36t-34.5 -52.5t-12.5 -62q0 -33 12.5 -62.5t34.5 -52t53 -36t69 -13.5t69 13.5t53.5 36t35 52t12.5 62.5zM316 519q0 -39 -21.5 -64t-60.5 -25q-38 0 -59.5 25t-21.5 64q0 38 21.5 63t59.5 25
q39 0 60.5 -25t21.5 -63z" />
    <glyph glyph-name="plusminus" unicode="&#xb1;" horiz-adv-x="538" 
d="M499 0v480h-460v-480h460zM448 49h-358v382h358v-382z" />
    <glyph glyph-name="acute" unicode="&#xb4;" horiz-adv-x="312" 
d="M256 706h-127l-56 -154h68z" />
    <glyph glyph-name="paragraph" unicode="&#xb6;" horiz-adv-x="917" 
d="M822 -192v858h-378q-96 0 -170 -20.5t-125 -56.5t-77 -86.5t-26 -110.5v-6q0 -60 26 -109.5t77 -85t125 -55t170 -19.5h69v-309h106v754h97v-754h106zM513 221h-65q-54 0 -92.5 12t-62.5 33.5t-35 53t-11 70.5v3q0 39 11 70.5t35 53t62.5 33.5t92.5 12h65v-341z" />
    <glyph glyph-name="periodcentered" unicode="&#xb7;" horiz-adv-x="286" 
d="M201 276v113h-116v-113h116z" />
    <glyph glyph-name="cedilla" unicode="&#xb8;" horiz-adv-x="325" 
d="M284 -149q0 34 -25.5 59.5t-76.5 25.5q-21 0 -36 -5.5t-30 -13.5l76 80l-29 29l-116 -126l34 -32q14 8 31.5 14t40.5 6q31 0 45 -12t14 -28v-4q0 -20 -18.5 -33t-57.5 -13h-64v-34q22 -6 40 -9t36 -3q67 0 101.5 27t34.5 72z" />
    <glyph glyph-name="ordmasculine" unicode="&#xba;" horiz-adv-x="532" 
d="M472 478v9q0 40 -16.5 73t-44.5 57t-65.5 37.5t-79.5 13.5t-79.5 -13.5t-65.5 -37.5t-44.5 -57t-16.5 -73v-9q0 -40 16.5 -73t44.5 -57t65.5 -37.5t79.5 -13.5t79.5 13.5t65.5 37.5t44.5 57t16.5 73zM368 477q0 -47 -26 -77.5t-76 -30.5t-76 30.5t-26 77.5v11
q0 47 26 77.5t76 30.5t76 -30.5t26 -77.5v-11z" />
    <glyph glyph-name="guillemotright" unicode="&#xbb;" horiz-adv-x="640" 
d="M586 184v66q-40 11 -72.5 32.5t-56.5 47.5t-40.5 53.5t-24.5 50.5h-58q0 -66 30.5 -123.5t84.5 -93.5q-54 -37 -84.5 -94t-30.5 -123h58q8 22 24.5 49.5t40.5 53.5t56.5 48t72.5 33zM316 184v66q-40 11 -72.5 32.5t-56.5 47.5t-40.5 53.5t-24.5 50.5h-58
q0 -66 30.5 -123.5t84.5 -93.5q-54 -37 -84.5 -94t-30.5 -123h58q8 22 24.5 49.5t40.5 53.5t56.5 48t72.5 33z" />
    <glyph glyph-name="questiondown" unicode="&#xbf;" horiz-adv-x="495" 
d="M357 355v113h-116v-113h116zM557 -136l-46 91q-33 -17 -62 -30.5t-58 -22.5t-59 -14t-64 -5q-86 0 -126.5 26t-40.5 64q0 21 18.5 39t47 35t61 35.5t61 41.5t47 52t18.5 68h-110q0 -29 -19.5 -50.5t-49.5 -39.5t-64 -35.5t-64 -38.5t-49.5 -48.5t-19.5 -65.5
q0 -39 20.5 -73.5t57 -60t88.5 -40.5t115 -15q42 0 79 5.5t72.5 17t71.5 27.5t75 37z" />
    <glyph glyph-name="Agrave" unicode="&#xc0;" horiz-adv-x="857" 
d="M844 0l-366 666h-104l-360 -666h132l85 165h391l88 -165h134zM573 256h-295l145 280zM456 737l-56 154h-127l115 -154h68z" />
    <glyph glyph-name="Aacute" unicode="&#xc1;" horiz-adv-x="857" 
d="M844 0l-366 666h-104l-360 -666h132l85 165h391l88 -165h134zM573 256h-295l145 280zM578 891h-127l-56 -154h68z" />
    <glyph glyph-name="Acircumflex" unicode="&#xc2;" horiz-adv-x="857" 
d="M844 0l-366 666h-104l-360 -666h132l85 165h391l88 -165h134zM573 256h-295l145 280zM624 737v31q-17 0 -37 7.5t-38.5 22t-33.5 35.5t-24 48h-126q-9 -27 -24 -48t-33.5 -35.5t-38 -22t-36.5 -7.5v-31q14 -5 26.5 -6.5t26.5 -1.5q24 0 46.5 7.5t41 21t31.5 32t19 39.5
q13 -42 51.5 -71t87.5 -29q14 0 30.5 1.5t30.5 6.5z" />
    <glyph glyph-name="Atilde" unicode="&#xc3;" horiz-adv-x="857" 
d="M844 0l-366 666h-104l-360 -666h132l85 165h391l88 -165h134zM573 256h-295l145 280zM628 821q0 16 -3.5 26t-8.5 21h-69v-25q0 -14 -5.5 -27t-23.5 -13q-15 0 -36.5 10.5t-46.5 22.5t-51 22.5t-50 10.5q-50 0 -77.5 -27t-27.5 -68q0 -16 3.5 -26t8.5 -21h69v25
q0 14 5.5 27t23.5 13q15 0 36.5 -10t46.5 -22.5t51 -22.5t50 -10q50 0 77.5 27t27.5 67z" />
    <glyph glyph-name="Adieresis" unicode="&#xc4;" horiz-adv-x="857" 
d="M844 0l-366 666h-104l-360 -666h132l85 165h391l88 -165h134zM573 256h-295l145 280zM583 743v95h-114v-95h114zM380 743v95h-114v-95h114z" />
    <glyph glyph-name="Aring" unicode="&#xc5;" horiz-adv-x="857" 
d="M573 256h-295l145 280zM481 772q0 -23 -13.5 -38t-39.5 -15t-39.5 15t-13.5 38t13.5 38t39.5 15t39.5 -15t13.5 -38zM398 666h-24l-360 -666h132l85 165h391l88 -165h134l-366 666h-21q43 9 66.5 39t23.5 67q0 21 -8 40.5t-23.5 34.5t-37.5 24t-50 9t-50 -9t-37.5 -24
t-23.5 -34.5t-8 -40.5q0 -37 23.5 -67t65.5 -39z" />
    <glyph glyph-name="AE" unicode="&#xc6;" horiz-adv-x="1202" 
d="M1140 0v104h-481v186h369v101h-369v171h481v104h-605l-552 -666h135l135 165h282v-165h605zM535 256h-208l208 253v-253z" />
    <glyph glyph-name="Ccedilla" unicode="&#xc7;" horiz-adv-x="850" 
d="M804 557q-26 28 -62 52t-80 42t-93.5 28.5t-102.5 10.5q-92 0 -167.5 -29.5t-129.5 -78t-84 -112t-30 -130.5v-22q0 -63 25 -122t71.5 -106t113.5 -77.5t152 -36.5l-70 -76l34 -32q14 8 31.5 14t40.5 6q31 0 45 -12t14 -28v-4q0 -20 -18.5 -33t-57.5 -13h-64v-34
q22 -6 40 -9t36 -3q67 0 101.5 27t34.5 72q0 34 -25.5 59.5t-76.5 25.5q-21 0 -36 -5.5t-30 -13.5l54 57q54 1 102.5 12t91.5 29t78 42t62 50l-75 79q-22 -20 -50 -39.5t-61 -34.5t-70.5 -24t-79.5 -9q-70 0 -123.5 20.5t-90 54.5t-55 78t-18.5 91v13q0 48 18.5 92.5
t54 79.5t87 56t118.5 21q45 0 83.5 -9t72 -24t61 -34t50.5 -40z" />
    <glyph glyph-name="Egrave" unicode="&#xc8;" horiz-adv-x="760" 
d="M700 0v104h-480v186h369v101h-369v171h480v104h-605v-666h605zM466 737l-56 154h-127l115 -154h68z" />
    <glyph glyph-name="Eacute" unicode="&#xc9;" horiz-adv-x="760" 
d="M700 0v104h-480v186h369v101h-369v171h480v104h-605v-666h605zM536 891h-127l-56 -154h68z" />
    <glyph glyph-name="Ecircumflex" unicode="&#xca;" horiz-adv-x="760" 
d="M700 0v104h-480v186h369v101h-369v171h480v104h-605v-666h605zM602 742v31q-17 0 -37 7.5t-38.5 22t-33.5 35.5t-24 48h-126q-9 -27 -24 -48t-33.5 -35.5t-38 -22t-36.5 -7.5v-31q14 -5 26.5 -6.5t26.5 -1.5q24 0 46.5 7.5t41 21t31.5 32t19 39.5q13 -42 51.5 -71
t87.5 -29q14 0 30.5 1.5t30.5 6.5z" />
    <glyph glyph-name="Edieresis" unicode="&#xcb;" horiz-adv-x="760" 
d="M700 0v104h-480v186h369v101h-369v171h480v104h-605v-666h605zM565 743v95h-114v-95h114zM362 743v95h-114v-95h114z" />
    <glyph glyph-name="Igrave" unicode="&#xcc;" horiz-adv-x="315" 
d="M220 0v666h-125v-666h125zM196 737l-56 154h-127l115 -154h68z" />
    <glyph glyph-name="Iacute" unicode="&#xcd;" horiz-adv-x="315" 
d="M220 0v666h-125v-666h125zM301 891h-127l-56 -154h68z" />
    <glyph glyph-name="Icircumflex" unicode="&#xce;" horiz-adv-x="315" 
d="M220 0v666h-125v-666h125zM354 737v31q-17 0 -37 7.5t-38.5 22t-33.5 35.5t-24 48h-126q-9 -27 -24 -48t-33.5 -35.5t-38 -22t-36.5 -7.5v-31q14 -5 26.5 -6.5t26.5 -1.5q24 0 46.5 7.5t41 21t31.5 32t19 39.5q13 -42 51.5 -71t87.5 -29q14 0 30.5 1.5t30.5 6.5z" />
    <glyph glyph-name="Idieresis" unicode="&#xcf;" horiz-adv-x="315" 
d="M220 0v666h-125v-666h125zM317 743v95h-114v-95h114zM114 743v95h-114v-95h114z" />
    <glyph glyph-name="Eth" unicode="&#xd0;" horiz-adv-x="927" 
d="M145 291v-291h341q88 0 159.5 25.5t122 69t77.5 102t27 124.5v22q0 67 -27 126t-77.5 103t-122 69t-159.5 25h-341v-283h-103v-92h103zM270 383v179h213q61 0 110 -16.5t83 -45.5t52.5 -70t18.5 -89v-16q0 -48 -18.5 -89t-52.5 -71t-83 -46.5t-110 -16.5h-213v189h178v92
h-178z" />
    <glyph glyph-name="Ntilde" unicode="&#xd1;" horiz-adv-x="898" 
d="M803 0v666h-125v-493l-43 48l-420 445h-120v-666h125v493l42 -47l433 -446h108zM659 821q0 16 -3.5 26t-8.5 21h-69v-25q0 -14 -5.5 -27t-23.5 -13q-15 0 -36.5 10.5t-46.5 22.5t-51 22.5t-50 10.5q-50 0 -77.5 -27t-27.5 -68q0 -16 3.5 -26t8.5 -21h69v25q0 14 5.5 27
t23.5 13q15 0 36.5 -10t46.5 -22.5t51 -22.5t50 -10q50 0 77.5 27t27.5 67z" />
    <glyph glyph-name="Ograve" unicode="&#xd2;" 
d="M834 321v22q0 67 -27.5 130t-78.5 111t-123 77t-161 29t-160.5 -29t-122.5 -77t-78.5 -111t-27.5 -130v-22q0 -66 27.5 -128.5t78.5 -111t122.5 -78t160.5 -29.5t161 29.5t123 78t78.5 111t27.5 128.5zM708 325q0 -48 -17.5 -92.5t-51 -78.5t-82.5 -54.5t-113 -20.5
t-113 20.5t-82.5 54.5t-50.5 78.5t-17 92.5v16q0 48 17 92.5t50.5 78t82.5 53.5t113 20t113 -20t82.5 -53.5t51 -78t17.5 -92.5v-16zM484 752l-56 154h-127l115 -154h68z" />
    <glyph glyph-name="Oacute" unicode="&#xd3;" 
d="M834 321v22q0 67 -27.5 130t-78.5 111t-123 77t-161 29t-160.5 -29t-122.5 -77t-78.5 -111t-27.5 -130v-22q0 -66 27.5 -128.5t78.5 -111t122.5 -78t160.5 -29.5t161 29.5t123 78t78.5 111t27.5 128.5zM708 325q0 -48 -17.5 -92.5t-51 -78.5t-82.5 -54.5t-113 -20.5
t-113 20.5t-82.5 54.5t-50.5 78.5t-17 92.5v16q0 48 17 92.5t50.5 78t82.5 53.5t113 20t113 -20t82.5 -53.5t51 -78t17.5 -92.5v-16zM588 906h-127l-56 -154h68z" />
    <glyph glyph-name="Ocircumflex" unicode="&#xd4;" 
d="M834 321v22q0 67 -27.5 130t-78.5 111t-123 77t-161 29t-160.5 -29t-122.5 -77t-78.5 -111t-27.5 -130v-22q0 -66 27.5 -128.5t78.5 -111t122.5 -78t160.5 -29.5t161 29.5t123 78t78.5 111t27.5 128.5zM708 325q0 -48 -17.5 -92.5t-51 -78.5t-82.5 -54.5t-113 -20.5
t-113 20.5t-82.5 54.5t-50.5 78.5t-17 92.5v16q0 48 17 92.5t50.5 78t82.5 53.5t113 20t113 -20t82.5 -53.5t51 -78t17.5 -92.5v-16zM640 747v31q-17 0 -37 7.5t-38.5 22t-33.5 35.5t-24 48h-126q-9 -27 -24 -48t-33.5 -35.5t-38 -22t-36.5 -7.5v-31q14 -5 26.5 -6.5
t26.5 -1.5q24 0 46.5 7.5t41 21t31.5 32t19 39.5q13 -42 51.5 -71t87.5 -29q14 0 30.5 1.5t30.5 6.5z" />
    <glyph glyph-name="Otilde" unicode="&#xd5;" 
d="M834 321v22q0 67 -27.5 130t-78.5 111t-123 77t-161 29t-160.5 -29t-122.5 -77t-78.5 -111t-27.5 -130v-22q0 -66 27.5 -128.5t78.5 -111t122.5 -78t160.5 -29.5t161 29.5t123 78t78.5 111t27.5 128.5zM708 325q0 -48 -17.5 -92.5t-51 -78.5t-82.5 -54.5t-113 -20.5
t-113 20.5t-82.5 54.5t-50.5 78.5t-17 92.5v16q0 48 17 92.5t50.5 78t82.5 53.5t113 20t113 -20t82.5 -53.5t51 -78t17.5 -92.5v-16zM644 831q0 16 -3.5 26t-8.5 21h-69v-25q0 -14 -5.5 -27t-23.5 -13q-15 0 -36.5 10.5t-46.5 22.5t-51 22.5t-50 10.5q-50 0 -77.5 -27
t-27.5 -68q0 -16 3.5 -26t8.5 -21h69v25q0 14 5.5 27t23.5 13q15 0 36.5 -10t46.5 -22.5t51 -22.5t50 -10q50 0 77.5 27t27.5 67z" />
    <glyph glyph-name="Odieresis" unicode="&#xd6;" 
d="M834 321v22q0 67 -27.5 130t-78.5 111t-123 77t-161 29t-160.5 -29t-122.5 -77t-78.5 -111t-27.5 -130v-22q0 -66 27.5 -128.5t78.5 -111t122.5 -78t160.5 -29.5t161 29.5t123 78t78.5 111t27.5 128.5zM708 325q0 -48 -17.5 -92.5t-51 -78.5t-82.5 -54.5t-113 -20.5
t-113 20.5t-82.5 54.5t-50.5 78.5t-17 92.5v16q0 48 17 92.5t50.5 78t82.5 53.5t113 20t113 -20t82.5 -53.5t51 -78t17.5 -92.5v-16zM603 753v95h-114v-95h114zM400 753v95h-114v-95h114z" />
    <glyph glyph-name="multiply" unicode="&#xd7;" horiz-adv-x="520" 
d="M452 210l-127 124l127 124l-67 66l-124 -127l-124 127l-68 -68l127 -124l-127 -124l67 -66l124 127l124 -127z" />
    <glyph glyph-name="Oslash" unicode="&#xd8;" 
d="M834 321v22q0 60 -21 115.5t-62 101.5l103 93l-50 55l-9.5 -8.5t-25 -22.5t-35 -31.5t-38.5 -34.5q-49 37 -112.5 58t-139.5 21q-89 0 -160.5 -29t-122.5 -77t-78.5 -111t-27.5 -130v-22q0 -59 21.5 -114.5t61.5 -101.5l-105 -95l51 -55l9.5 9t25.5 23t35 31.5t39 35.5
q49 -37 112.5 -58.5t138.5 -21.5q89 0 161 29.5t123 78t78.5 111t27.5 128.5zM612 534l-28.5 -26t-72 -65t-93.5 -84.5t-93.5 -84.5t-72 -65l-28.5 -26q-43 63 -43 142v16q0 48 17 92.5t50.5 78t82.5 53.5t113 20q53 0 94.5 -13.5t73.5 -37.5zM708 325q0 -48 -17.5 -92.5
t-51 -78.5t-82.5 -54.5t-113 -20.5q-52 0 -94 13.5t-74 36.5l22 19.5t56 50.5t75.5 69t82.5 75t76 68.5t55.5 50t21.5 19.5q43 -61 43 -140v-16z" />
    <glyph glyph-name="Ugrave" unicode="&#xd9;" horiz-adv-x="877" 
d="M792 277v389h-125v-391q0 -92 -52.5 -144t-170.5 -52q-116 0 -175.5 51.5t-59.5 144.5v391h-124v-389q0 -65 21 -120.5t64.5 -96t109 -63.5t155.5 -23q94 0 161.5 24t111 65.5t64 96.5t20.5 117zM482 727l-56 154h-127l115 -154h68z" />
    <glyph glyph-name="Uacute" unicode="&#xda;" horiz-adv-x="877" 
d="M792 277v389h-125v-391q0 -92 -52.5 -144t-170.5 -52q-116 0 -175.5 51.5t-59.5 144.5v391h-124v-389q0 -65 21 -120.5t64.5 -96t109 -63.5t155.5 -23q94 0 161.5 24t111 65.5t64 96.5t20.5 117zM578 881h-127l-56 -154h68z" />
    <glyph glyph-name="Ucircumflex" unicode="&#xdb;" horiz-adv-x="877" 
d="M792 277v389h-125v-391q0 -92 -52.5 -144t-170.5 -52q-116 0 -175.5 51.5t-59.5 144.5v391h-124v-389q0 -65 21 -120.5t64.5 -96t109 -63.5t155.5 -23q94 0 161.5 24t111 65.5t64 96.5t20.5 117zM634 737v31q-17 0 -37 7.5t-38.5 22t-33.5 35.5t-24 48h-126
q-9 -27 -24 -48t-33.5 -35.5t-38 -22t-36.5 -7.5v-31q14 -5 26.5 -6.5t26.5 -1.5q24 0 46.5 7.5t41 21t31.5 32t19 39.5q13 -42 51.5 -71t87.5 -29q14 0 30.5 1.5t30.5 6.5z" />
    <glyph glyph-name="Udieresis" unicode="&#xdc;" horiz-adv-x="877" 
d="M792 277v389h-125v-391q0 -92 -52.5 -144t-170.5 -52q-116 0 -175.5 51.5t-59.5 144.5v391h-124v-389q0 -65 21 -120.5t64.5 -96t109 -63.5t155.5 -23q94 0 161.5 24t111 65.5t64 96.5t20.5 117zM597 733v95h-114v-95h114zM394 733v95h-114v-95h114z" />
    <glyph glyph-name="Yacute" unicode="&#xdd;" horiz-adv-x="814" 
d="M802 666h-148l-241 -309l-257 309h-148l336 -398v-268h125v266zM547 881h-127l-56 -154h68z" />
    <glyph glyph-name="Thorn" unicode="&#xde;" horiz-adv-x="798" 
d="M747 335v4q0 46 -17 83.5t-53 64.5t-90.5 42t-129.5 15h-238v122h-124v-666h124v127h238q75 0 129.5 15t90.5 42.5t53 66t17 84.5zM622 331q0 -21 -7.5 -40t-24.5 -33t-43.5 -22.5t-65.5 -8.5h-262v213h256q77 0 112 -29.5t35 -71.5v-8z" />
    <glyph glyph-name="germandbls" unicode="&#xdf;" horiz-adv-x="694" 
d="M643 184v5q0 58 -41.5 102t-137.5 60q73 18 103 58t30 88v7q0 25 -13 55t-42 56.5t-74.5 44.5t-111.5 18q-69 0 -120 -19t-84.5 -54.5t-50 -86t-16.5 -112.5v-406h120v426q0 35 8.5 66t25.5 54.5t44 37t65 13.5q33 0 57.5 -9.5t40.5 -25t24 -35.5t8 -41v-4
q0 -44 -36 -75.5t-126 -40.5v-54q56 -2 95.5 -13t64 -28.5t36 -39.5t11.5 -47v-2q0 -27 -10.5 -48.5t-35.5 -36.5t-65 -23t-100 -8v-61q6 -3 17.5 -5.5t25.5 -4t28 -2.5t24 -1q55 0 99 15t74.5 41.5t46.5 61.5t16 74z" />
    <glyph glyph-name="agrave" unicode="&#xe0;" horiz-adv-x="657" 
d="M636 -8v79q-41 0 -54.5 8t-13.5 34v150q0 51 -14 91.5t-44 69t-77.5 44t-113.5 15.5q-70 0 -124.5 -20.5t-102.5 -55.5l49 -67q41 26 83 41.5t90 15.5q71 0 105.5 -28.5t34.5 -79.5v-31q-83 22 -156 22.5t-127.5 -16.5t-86 -49.5t-31.5 -77.5v-4q0 -34 15 -60.5
t41.5 -44.5t63.5 -27t82 -9q69 0 128 24t100 71q-2 -29 6.5 -47t24 -29t35.5 -15t43 -4h44zM454 183q0 -24 -17 -44t-42.5 -34t-57 -22t-59.5 -8q-48 0 -77.5 17.5t-29.5 42.5v4q0 25 19 43t55 26t88.5 4.5t120.5 -22.5v-7zM373 552l-56 154h-127l115 -154h68z" />
    <glyph glyph-name="aacute" unicode="&#xe1;" horiz-adv-x="657" 
d="M636 -8v79q-41 0 -54.5 8t-13.5 34v150q0 51 -14 91.5t-44 69t-77.5 44t-113.5 15.5q-70 0 -124.5 -20.5t-102.5 -55.5l49 -67q41 26 83 41.5t90 15.5q71 0 105.5 -28.5t34.5 -79.5v-31q-83 22 -156 22.5t-127.5 -16.5t-86 -49.5t-31.5 -77.5v-4q0 -34 15 -60.5
t41.5 -44.5t63.5 -27t82 -9q69 0 128 24t100 71q-2 -29 6.5 -47t24 -29t35.5 -15t43 -4h44zM454 183q0 -24 -17 -44t-42.5 -34t-57 -22t-59.5 -8q-48 0 -77.5 17.5t-29.5 42.5v4q0 25 19 43t55 26t88.5 4.5t120.5 -22.5v-7zM460 706h-127l-56 -154h68z" />
    <glyph glyph-name="acircumflex" unicode="&#xe2;" horiz-adv-x="657" 
d="M636 -8v79q-41 0 -54.5 8t-13.5 34v150q0 51 -14 91.5t-44 69t-77.5 44t-113.5 15.5q-70 0 -124.5 -20.5t-102.5 -55.5l49 -67q41 26 83 41.5t90 15.5q71 0 105.5 -28.5t34.5 -79.5v-31q-83 22 -156 22.5t-127.5 -16.5t-86 -49.5t-31.5 -77.5v-4q0 -34 15 -60.5
t41.5 -44.5t63.5 -27t82 -9q69 0 128 24t100 71q-2 -29 6.5 -47t24 -29t35.5 -15t43 -4h44zM454 183q0 -24 -17 -44t-42.5 -34t-57 -22t-59.5 -8q-48 0 -77.5 17.5t-29.5 42.5v4q0 25 19 43t55 26t88.5 4.5t120.5 -22.5v-7zM524 562v31q-17 0 -37 7.5t-38.5 22t-33.5 35.5
t-24 48h-126q-9 -27 -24 -48t-33.5 -35.5t-38 -22t-36.5 -7.5v-31q14 -5 26.5 -6.5t26.5 -1.5q24 0 46.5 7.5t41 21t31.5 32t19 39.5q13 -42 51.5 -71t87.5 -29q14 0 30.5 1.5t30.5 6.5z" />
    <glyph glyph-name="atilde" unicode="&#xe3;" horiz-adv-x="657" 
d="M636 -8v79q-41 0 -54.5 8t-13.5 34v150q0 51 -14 91.5t-44 69t-77.5 44t-113.5 15.5q-70 0 -124.5 -20.5t-102.5 -55.5l49 -67q41 26 83 41.5t90 15.5q71 0 105.5 -28.5t34.5 -79.5v-31q-83 22 -156 22.5t-127.5 -16.5t-86 -49.5t-31.5 -77.5v-4q0 -34 15 -60.5
t41.5 -44.5t63.5 -27t82 -9q69 0 128 24t100 71q-2 -29 6.5 -47t24 -29t35.5 -15t43 -4h44zM454 183q0 -24 -17 -44t-42.5 -34t-57 -22t-59.5 -8q-48 0 -77.5 17.5t-29.5 42.5v4q0 25 19 43t55 26t88.5 4.5t120.5 -22.5v-7zM520 646q0 16 -3.5 26t-8.5 21h-69v-25
q0 -14 -5.5 -27t-23.5 -13q-15 0 -36.5 10.5t-46.5 22.5t-51 22.5t-50 10.5q-50 0 -77.5 -27t-27.5 -68q0 -16 3.5 -26t8.5 -21h69v25q0 14 5.5 27t23.5 13q15 0 36.5 -10t46.5 -22.5t51 -22.5t50 -10q50 0 77.5 27t27.5 67z" />
    <glyph glyph-name="adieresis" unicode="&#xe4;" horiz-adv-x="657" 
d="M636 -8v79q-41 0 -54.5 8t-13.5 34v150q0 51 -14 91.5t-44 69t-77.5 44t-113.5 15.5q-70 0 -124.5 -20.5t-102.5 -55.5l49 -67q41 26 83 41.5t90 15.5q71 0 105.5 -28.5t34.5 -79.5v-31q-83 22 -156 22.5t-127.5 -16.5t-86 -49.5t-31.5 -77.5v-4q0 -34 15 -60.5
t41.5 -44.5t63.5 -27t82 -9q69 0 128 24t100 71q-2 -29 6.5 -47t24 -29t35.5 -15t43 -4h44zM454 183q0 -24 -17 -44t-42.5 -34t-57 -22t-59.5 -8q-48 0 -77.5 17.5t-29.5 42.5v4q0 25 19 43t55 26t88.5 4.5t120.5 -22.5v-7zM484 558v95h-114v-95h114zM281 558v95h-114v-95
h114z" />
    <glyph glyph-name="aring" unicode="&#xe5;" horiz-adv-x="657" 
d="M636 -8v79q-41 0 -54.5 8t-13.5 34v150q0 51 -14 91.5t-44 69t-77.5 44t-113.5 15.5q-70 0 -124.5 -20.5t-102.5 -55.5l49 -67q41 26 83 41.5t90 15.5q71 0 105.5 -28.5t34.5 -79.5v-31q-83 22 -156 22.5t-127.5 -16.5t-86 -49.5t-31.5 -77.5v-4q0 -34 15 -60.5
t41.5 -44.5t63.5 -27t82 -9q69 0 128 24t100 71q-2 -29 6.5 -47t24 -29t35.5 -15t43 -4h44zM454 183q0 -24 -17 -44t-42.5 -34t-57 -22t-59.5 -8q-48 0 -77.5 17.5t-29.5 42.5v4q0 25 19 43t55 26t88.5 4.5t120.5 -22.5v-7zM447 657q0 21 -8 40.5t-23.5 34.5t-37.5 24t-50 9
t-50 -9t-37.5 -24t-23.5 -34.5t-8 -40.5t8 -41t23.5 -35t37.5 -24t50 -9t50 9t37.5 24t23.5 35t8 41zM381 657q0 -23 -13.5 -38t-39.5 -15t-39.5 15t-13.5 38t13.5 38t39.5 15t39.5 -15t13.5 -38z" />
    <glyph glyph-name="ae" unicode="&#xe6;" horiz-adv-x="1060" 
d="M998 86l-60 56q-21 -17 -41 -30t-42.5 -21.5t-48 -13t-57.5 -4.5q-39 0 -72.5 11t-57.5 30t-37.5 45t-13.5 56v3h445v15q0 52 -19.5 97.5t-56 79.5t-88.5 53.5t-118 19.5q-67 0 -118.5 -21.5t-86.5 -57.5q-29 38 -79 58.5t-128 20.5q-73 0 -127 -20.5t-100 -57.5l49 -66
q38 28 79 43t94 15q71 0 105.5 -28.5t34.5 -79.5v-31q-83 22 -156 22.5t-127.5 -16.5t-86 -49.5t-31.5 -77.5v-4q0 -34 15 -60.5t42 -44.5t64 -27t82 -9q69 0 133.5 28.5t109.5 77.5q37 -50 99.5 -78t140.5 -28q88 0 148.5 23t110.5 71zM898 281h-327v1q0 24 11.5 45.5
t33 38t51.5 26.5t66 10t66 -11t52 -28.5t34.5 -39t12.5 -41.5v-1zM454 183q0 -24 -16.5 -44t-42.5 -34t-57 -22t-59 -8q-48 0 -78 17.5t-30 42.5v4q0 25 19 43t55 26t88.5 4.5t120.5 -22.5v-7z" />
    <glyph glyph-name="ccedilla" unicode="&#xe7;" horiz-adv-x="632" 
d="M586 82l-66 55q-38 -31 -76.5 -45t-92.5 -14q-36 0 -69 11t-58 31t-39.5 48.5t-14.5 64.5v9q0 33 14 61.5t38.5 49.5t57.5 32.5t71 11.5q54 0 92.5 -17t73.5 -45l73 54q-38 42 -99 68t-145 26q-58 0 -111.5 -18.5t-94 -51t-65 -77.5t-24.5 -99v-8q0 -51 20 -92.5
t55.5 -72.5t83.5 -49t104 -22l-13 -14.5t-29 -32t-29.5 -32l-13.5 -14.5l34 -32q14 8 31.5 14t40.5 6q31 0 45 -12t14 -28v-4q0 -20 -18.5 -33t-57.5 -13h-64v-34q22 -6 40 -9t36 -3q67 0 101.5 27t34.5 72q0 34 -25.5 59.5t-76.5 25.5q-21 0 -36 -5.5t-30 -13.5l72 76
q66 3 118 24.5t98 64.5z" />
    <glyph glyph-name="egrave" unicode="&#xe8;" horiz-adv-x="659" 
d="M612 218v15q0 52 -19.5 97.5t-56 79.5t-88.5 53.5t-118 19.5q-64 0 -115.5 -20t-88 -54t-56 -79t-19.5 -94v-9q0 -52 22.5 -95.5t61 -74.5t91 -48t112.5 -17q88 0 148.5 23t110.5 71l-60 56q-21 -17 -41 -30t-42.5 -21.5t-48 -13t-57.5 -4.5q-39 0 -72.5 11t-57.5 30
t-37.5 45t-13.5 56v3h445zM497 281h-327v1q0 24 11.5 45.5t33 38t51.5 26.5t66 10t66 -11t52 -28.5t34.5 -39t12.5 -41.5v-1zM373 552l-56 154h-127l115 -154h68z" />
    <glyph glyph-name="eacute" unicode="&#xe9;" horiz-adv-x="659" 
d="M612 218v15q0 52 -19.5 97.5t-56 79.5t-88.5 53.5t-118 19.5q-64 0 -115.5 -20t-88 -54t-56 -79t-19.5 -94v-9q0 -52 22.5 -95.5t61 -74.5t91 -48t112.5 -17q88 0 148.5 23t110.5 71l-60 56q-21 -17 -41 -30t-42.5 -21.5t-48 -13t-57.5 -4.5q-39 0 -72.5 11t-57.5 30
t-37.5 45t-13.5 56v3h445zM497 281h-327v1q0 24 11.5 45.5t33 38t51.5 26.5t66 10t66 -11t52 -28.5t34.5 -39t12.5 -41.5v-1zM473 706h-127l-56 -154h68z" />
    <glyph glyph-name="ecircumflex" unicode="&#xea;" horiz-adv-x="659" 
d="M612 218v15q0 52 -19.5 97.5t-56 79.5t-88.5 53.5t-118 19.5q-64 0 -115.5 -20t-88 -54t-56 -79t-19.5 -94v-9q0 -52 22.5 -95.5t61 -74.5t91 -48t112.5 -17q88 0 148.5 23t110.5 71l-60 56q-21 -17 -41 -30t-42.5 -21.5t-48 -13t-57.5 -4.5q-39 0 -72.5 11t-57.5 30
t-37.5 45t-13.5 56v3h445zM497 281h-327v1q0 24 11.5 45.5t33 38t51.5 26.5t66 10t66 -11t52 -28.5t34.5 -39t12.5 -41.5v-1zM534 562v31q-17 0 -37 7.5t-38.5 22t-33.5 35.5t-24 48h-126q-9 -27 -24 -48t-33.5 -35.5t-38 -22t-36.5 -7.5v-31q14 -5 26.5 -6.5t26.5 -1.5
q24 0 46.5 7.5t41 21t31.5 32t19 39.5q13 -42 51.5 -71t87.5 -29q14 0 30.5 1.5t30.5 6.5z" />
    <glyph glyph-name="edieresis" unicode="&#xeb;" horiz-adv-x="659" 
d="M612 218v15q0 52 -19.5 97.5t-56 79.5t-88.5 53.5t-118 19.5q-64 0 -115.5 -20t-88 -54t-56 -79t-19.5 -94v-9q0 -52 22.5 -95.5t61 -74.5t91 -48t112.5 -17q88 0 148.5 23t110.5 71l-60 56q-21 -17 -41 -30t-42.5 -21.5t-48 -13t-57.5 -4.5q-39 0 -72.5 11t-57.5 30
t-37.5 45t-13.5 56v3h445zM497 281h-327v1q0 24 11.5 45.5t33 38t51.5 26.5t66 10t66 -11t52 -28.5t34.5 -39t12.5 -41.5v-1zM492 558v95h-114v-95h114zM289 558v95h-114v-95h114z" />
    <glyph glyph-name="igrave" unicode="&#xec;" horiz-adv-x="300" 
d="M210 0v468h-120v-468h120zM185 552l-56 154h-127l115 -154h68z" />
    <glyph glyph-name="iacute" unicode="&#xed;" horiz-adv-x="300" 
d="M210 0v468h-120v-468h120zM295 706h-127l-56 -154h68z" />
    <glyph glyph-name="icircumflex" unicode="&#xee;" horiz-adv-x="300" 
d="M210 0v468h-120v-468h120zM347 562v31q-17 0 -37 7.5t-38.5 22t-33.5 35.5t-24 48h-126q-9 -27 -24 -48t-33.5 -35.5t-38 -22t-36.5 -7.5v-31q14 -5 26.5 -6.5t26.5 -1.5q24 0 46.5 7.5t41 21t31.5 32t19 39.5q13 -42 51.5 -71t87.5 -29q14 0 30.5 1.5t30.5 6.5z" />
    <glyph glyph-name="idieresis" unicode="&#xef;" horiz-adv-x="300" 
d="M210 0v468h-120v-468h120zM310 558v95h-114v-95h114zM107 558v95h-114v-95h114z" />
    <glyph glyph-name="eth" unicode="&#xf0;" horiz-adv-x="678" 
d="M458 617q-35 25 -78 48h-169v-3q36 -14 71.5 -33.5t67.5 -41.5l-77 -21l16 -45l109 30q37 -32 64.5 -66.5t38.5 -69.5q-30 27 -71.5 44t-95.5 17q-56 0 -107 -17t-90 -47.5t-62.5 -74t-23.5 -96.5v-15q0 -53 24 -96.5t64.5 -74.5t93 -47.5t109.5 -16.5q137 0 213.5 76
t76.5 220v6q0 71 -30 146t-99 141l64 17l-16 45zM169 229v9q0 33 11.5 61.5t34 49.5t54.5 32.5t73 11.5q40 0 72 -11.5t54.5 -32.5t34 -49.5t11.5 -61.5v-9q0 -33 -11.5 -62t-34 -50t-54.5 -33t-72 -12q-41 0 -73 12t-54.5 33t-34 50t-11.5 62z" />
    <glyph glyph-name="ntilde" unicode="&#xf1;" horiz-adv-x="719" 
d="M637 0v295q0 40 -12.5 74t-35.5 59t-57 39t-77 14q-79 0 -144 -40.5t-111 -131.5v159h-110v-468h120v184q0 42 17.5 81t45.5 68t62.5 46.5t68.5 17.5q60 0 86.5 -30t26.5 -89v-278h120zM559 646q0 16 -3.5 26t-8.5 21h-69v-25q0 -14 -5.5 -27t-23.5 -13q-15 0 -36.5 10.5
t-46.5 22.5t-51 22.5t-50 10.5q-50 0 -77.5 -27t-27.5 -68q0 -16 3.5 -26t8.5 -21h69v25q0 14 5.5 27t23.5 13q15 0 36.5 -10t46.5 -22.5t51 -22.5t50 -10q50 0 77.5 27t27.5 67z" />
    <glyph glyph-name="ograve" unicode="&#xf2;" horiz-adv-x="684" 
d="M633 230v15q0 53 -24 97t-64.5 75.5t-93 48.5t-109.5 17t-109.5 -17t-93 -48.5t-64.5 -75.5t-24 -97v-15q0 -53 24 -97t64.5 -75.5t93 -48.5t109.5 -17t109.5 17t93 48.5t64.5 75.5t24 97zM514 233q0 -33 -11.5 -62.5t-34 -51t-54.5 -34t-72 -12.5q-41 0 -73 12.5t-54 34
t-33.5 51t-11.5 62.5v9q0 33 11.5 62.5t33.5 51t54 34t73 12.5q40 0 72 -12.5t54.5 -34t34 -51t11.5 -62.5v-9zM373 552l-56 154h-127l115 -154h68z" />
    <glyph glyph-name="oacute" unicode="&#xf3;" horiz-adv-x="684" 
d="M633 230v15q0 53 -24 97t-64.5 75.5t-93 48.5t-109.5 17t-109.5 -17t-93 -48.5t-64.5 -75.5t-24 -97v-15q0 -53 24 -97t64.5 -75.5t93 -48.5t109.5 -17t109.5 17t93 48.5t64.5 75.5t24 97zM514 233q0 -33 -11.5 -62.5t-34 -51t-54.5 -34t-72 -12.5q-41 0 -73 12.5t-54 34
t-33.5 51t-11.5 62.5v9q0 33 11.5 62.5t33.5 51t54 34t73 12.5q40 0 72 -12.5t54.5 -34t34 -51t11.5 -62.5v-9zM482 706h-127l-56 -154h68z" />
    <glyph glyph-name="ocircumflex" unicode="&#xf4;" horiz-adv-x="684" 
d="M633 230v15q0 53 -24 97t-64.5 75.5t-93 48.5t-109.5 17t-109.5 -17t-93 -48.5t-64.5 -75.5t-24 -97v-15q0 -53 24 -97t64.5 -75.5t93 -48.5t109.5 -17t109.5 17t93 48.5t64.5 75.5t24 97zM514 233q0 -33 -11.5 -62.5t-34 -51t-54.5 -34t-72 -12.5q-41 0 -73 12.5t-54 34
t-33.5 51t-11.5 62.5v9q0 33 11.5 62.5t33.5 51t54 34t73 12.5q40 0 72 -12.5t54.5 -34t34 -51t11.5 -62.5v-9zM538 562v31q-17 0 -37 7.5t-38.5 22t-33.5 35.5t-24 48h-126q-9 -27 -24 -48t-33.5 -35.5t-38 -22t-36.5 -7.5v-31q14 -5 26.5 -6.5t26.5 -1.5q24 0 46.5 7.5
t41 21t31.5 32t19 39.5q13 -42 51.5 -71t87.5 -29q14 0 30.5 1.5t30.5 6.5z" />
    <glyph glyph-name="otilde" unicode="&#xf5;" horiz-adv-x="684" 
d="M633 230v15q0 53 -24 97t-64.5 75.5t-93 48.5t-109.5 17t-109.5 -17t-93 -48.5t-64.5 -75.5t-24 -97v-15q0 -53 24 -97t64.5 -75.5t93 -48.5t109.5 -17t109.5 17t93 48.5t64.5 75.5t24 97zM514 233q0 -33 -11.5 -62.5t-34 -51t-54.5 -34t-72 -12.5q-41 0 -73 12.5t-54 34
t-33.5 51t-11.5 62.5v9q0 33 11.5 62.5t33.5 51t54 34t73 12.5q40 0 72 -12.5t54.5 -34t34 -51t11.5 -62.5v-9zM542 646q0 16 -3.5 26t-8.5 21h-69v-25q0 -14 -5.5 -27t-23.5 -13q-15 0 -36.5 10.5t-46.5 22.5t-51 22.5t-50 10.5q-50 0 -77.5 -27t-27.5 -68q0 -16 3.5 -26
t8.5 -21h69v25q0 14 5.5 27t23.5 13q15 0 36.5 -10t46.5 -22.5t51 -22.5t50 -10q50 0 77.5 27t27.5 67z" />
    <glyph glyph-name="odieresis" unicode="&#xf6;" horiz-adv-x="684" 
d="M633 230v15q0 53 -24 97t-64.5 75.5t-93 48.5t-109.5 17t-109.5 -17t-93 -48.5t-64.5 -75.5t-24 -97v-15q0 -53 24 -97t64.5 -75.5t93 -48.5t109.5 -17t109.5 17t93 48.5t64.5 75.5t24 97zM514 233q0 -33 -11.5 -62.5t-34 -51t-54.5 -34t-72 -12.5q-41 0 -73 12.5t-54 34
t-33.5 51t-11.5 62.5v9q0 33 11.5 62.5t33.5 51t54 34t73 12.5q40 0 72 -12.5t54.5 -34t34 -51t11.5 -62.5v-9zM501 558v95h-114v-95h114zM298 558v95h-114v-95h114z" />
    <glyph glyph-name="oslash" unicode="&#xf8;" horiz-adv-x="684" 
d="M633 230v15q0 48 -20 88.5t-53 71.5l70 68l-46 41l-75 -73q-37 20 -79.5 31t-87.5 11q-57 0 -109.5 -17t-93 -48.5t-64.5 -75.5t-24 -97v-15q0 -49 20 -89t54 -71l-71 -69l46 -40q1 1 11.5 10.5t28.5 27.5t36 35q36 -20 78.5 -31t87.5 -11q57 0 109.5 17t93 48.5
t64.5 75.5t24 97zM442 376l-244 -236q-28 40 -28 93v9q0 33 11.5 62.5t33.5 51t54 34t73 12.5q29 0 54.5 -7t45.5 -19zM514 233q0 -33 -11.5 -62.5t-34 -51t-54.5 -34t-72 -12.5q-58 0 -100 25l18.5 17.5t45.5 43.5t58.5 57t58.5 57t45 43.5l18 17.5q28 -40 28 -92v-9z" />
    <glyph glyph-name="ugrave" unicode="&#xf9;" horiz-adv-x="708" 
d="M633 0v468h-119v-196q0 -42 -15.5 -79t-41.5 -64t-59 -42.5t-67 -15.5q-124 0 -124 119v278h-120v-299q0 -83 49.5 -132.5t144.5 -49.5q83 0 141.5 40.5t101.5 119.5v-147h109zM408 552l-56 154h-127l115 -154h68z" />
    <glyph glyph-name="uacute" unicode="&#xfa;" horiz-adv-x="708" 
d="M633 0v468h-119v-196q0 -42 -15.5 -79t-41.5 -64t-59 -42.5t-67 -15.5q-124 0 -124 119v278h-120v-299q0 -83 49.5 -132.5t144.5 -49.5q83 0 141.5 40.5t101.5 119.5v-147h109zM500 706h-127l-56 -154h68z" />
    <glyph glyph-name="ucircumflex" unicode="&#xfb;" horiz-adv-x="708" 
d="M633 0v468h-119v-196q0 -42 -15.5 -79t-41.5 -64t-59 -42.5t-67 -15.5q-124 0 -124 119v278h-120v-299q0 -83 49.5 -132.5t144.5 -49.5q83 0 141.5 40.5t101.5 119.5v-147h109zM550 562v31q-17 0 -37 7.5t-38.5 22t-33.5 35.5t-24 48h-126q-9 -27 -24 -48t-33.5 -35.5
t-38 -22t-36.5 -7.5v-31q14 -5 26.5 -6.5t26.5 -1.5q24 0 46.5 7.5t41 21t31.5 32t19 39.5q13 -42 51.5 -71t87.5 -29q14 0 30.5 1.5t30.5 6.5z" />
    <glyph glyph-name="udieresis" unicode="&#xfc;" horiz-adv-x="708" 
d="M633 0v468h-119v-196q0 -42 -15.5 -79t-41.5 -64t-59 -42.5t-67 -15.5q-124 0 -124 119v278h-120v-299q0 -83 49.5 -132.5t144.5 -49.5q83 0 141.5 40.5t101.5 119.5v-147h109zM519 558v95h-114v-95h114zM316 558v95h-114v-95h114z" />
    <glyph glyph-name="yacute" unicode="&#xfd;" horiz-adv-x="635" 
d="M617 468h-128l-112 -237l-60 -119l-59 119l-117 237h-127l236 -442l-11 -21q-18 -35 -46 -53.5t-77 -18.5h-48v-81h44q60 0 101 11.5t73.5 39.5t62.5 75.5t68 118.5zM449 706h-127l-56 -154h68z" />
    <glyph glyph-name="thorn" unicode="&#xfe;" horiz-adv-x="707" 
d="M656 233v12q0 47 -18 90t-50.5 76t-76.5 52.5t-96 19.5q-139 0 -211 -104v287h-114v-811h114v219q35 -41 84 -61.5t115 -20.5q51 0 96.5 20t80.5 53t55.5 76.5t20.5 91.5zM537 230q0 -73 -44 -115t-117 -42q-30 0 -59.5 10t-53 29t-38.5 47.5t-15 66.5v10q0 37 12.5 68
t35 52.5t52.5 33.5t66 12q73 0 117 -41t44 -116v-15z" />
    <glyph glyph-name="ydieresis" unicode="&#xff;" horiz-adv-x="635" 
d="M617 468h-128l-112 -237l-60 -119l-59 119l-117 237h-127l236 -442l-11 -21q-18 -35 -46 -53.5t-77 -18.5h-48v-81h44q60 0 101 11.5t73.5 39.5t62.5 75.5t68 118.5zM476 558v95h-114v-95h114zM273 558v95h-114v-95h114z" />
    <glyph glyph-name="dotlessi" unicode="&#x131;" horiz-adv-x="300" 
d="M210 0v468h-120v-468h120z" />
    <glyph glyph-name="Lslash" unicode="&#x141;" horiz-adv-x="796" 
d="M240 316l227 99l-31 71l-196 -85v265h-125v-320l-95 -41l31 -71l64 28v-262h646v104h-521v212z" />
    <glyph glyph-name="lslash" unicode="&#x142;" horiz-adv-x="334" 
d="M349 405l-41 56l-84 -58v263h-114v-341l-101 -69l41 -56l60 41v-241h114v319z" />
    <glyph glyph-name="OE" unicode="&#x152;" horiz-adv-x="1302" 
d="M1242 0v104h-480v186h369v101h-369v171h480v104h-777q-92 0 -167.5 -26t-129.5 -70t-83.5 -104t-29.5 -127v-16q0 -66 29.5 -124.5t83.5 -103t129.5 -70t167.5 -25.5h777zM637 102h-171q-65 0 -117.5 17t-89.5 47.5t-57.5 72t-20.5 89.5v16q0 49 20.5 89t57.5 68.5
t89.5 44.5t117.5 16h171v-460z" />
    <glyph glyph-name="oe" unicode="&#x153;" horiz-adv-x="1116" 
d="M1069 218v15q0 52 -19.5 97.5t-55.5 79.5t-88 53.5t-118 19.5q-74 0 -129 -26t-89 -69q-39 45 -99 70t-129 25q-57 0 -109.5 -17t-93 -48.5t-64.5 -75.5t-24 -97v-15q0 -53 24 -97t64.5 -75.5t93 -48.5t109.5 -17q69 0 128 24.5t98 68.5q38 -44 96.5 -68.5t131.5 -24.5
q88 0 148 23.5t110 70.5l-60 56q-21 -17 -41 -30t-42 -21.5t-47.5 -13t-57.5 -4.5q-39 0 -72.5 11t-57.5 30t-37.5 45t-13.5 56v3h444zM955 281h-327v1q0 24 11.5 45.5t33 38t51.5 26.5t66 10t66 -11t52 -28.5t34.5 -39t12.5 -41.5v-1zM514 233q0 -33 -11.5 -62.5t-34 -51
t-54.5 -34t-72 -12.5q-41 0 -73 12.5t-54 34t-33.5 51t-11.5 62.5v9q0 33 11.5 62.5t33.5 51t54 34t73 12.5q40 0 72 -12.5t54.5 -34t34 -51t11.5 -62.5v-9z" />
    <glyph glyph-name="Scaron" unicode="&#x160;" horiz-adv-x="808" 
d="M755 187q0 47 -24 79t-63.5 53.5t-89.5 35t-102.5 23t-102.5 17.5t-89.5 19.5t-63.5 28.5t-24 44q0 21 15.5 39.5t44 32t68 21.5t88.5 8q37 0 74.5 -6.5t72 -17t64.5 -24.5t53 -29l68 84q-28 18 -64.5 35.5t-78.5 30.5t-89 21t-96 8q-79 0 -143 -17t-109 -46t-69 -69.5
t-24 -86.5t24 -76.5t63 -50.5t89.5 -32t102.5 -21t102.5 -17.5t89.5 -20.5t63 -30.5t24 -48.5q0 -19 -12.5 -37t-38 -31.5t-64.5 -21.5t-93 -8q-81 0 -162.5 22t-160.5 61l-46 -99q78 -37 169.5 -61.5t193.5 -24.5q74 0 136.5 15t107.5 42.5t70.5 67t25.5 88.5zM600 861v31
q-14 4 -27 6t-27 2q-24 0 -46.5 -8t-41 -21.5t-31.5 -31.5t-19 -39q-6 21 -19.5 39t-32 31.5t-41 21.5t-46.5 8q-14 0 -30 -2t-30 -6v-31q17 0 36.5 -7.5t38 -22.5t33.5 -36t24 -48h126q9 27 24 48t33.5 36t38.5 22.5t37 7.5z" />
    <glyph glyph-name="scaron" unicode="&#x161;" horiz-adv-x="593" 
d="M544 399q-52 39 -110.5 61.5t-142.5 22.5q-56 0 -99 -13t-72.5 -33.5t-45 -47t-15.5 -53.5q0 -45 28.5 -71t71 -40t92 -20.5t92 -14t71 -19.5t28.5 -37q0 -30 -33.5 -45.5t-95.5 -15.5q-60 0 -112 19t-96 50l-67 -61q51 -44 119.5 -66.5t146.5 -22.5q63 0 109.5 13.5
t77 34.5t46 47t15.5 52q0 47 -28.5 74t-71.5 42t-93 22t-93 14.5t-71.5 18.5t-28.5 35t35 40.5t99 16.5q25 0 50 -5.5t48 -14t42.5 -19.5t34.5 -22zM492 666v31q-14 4 -27 6t-27 2q-24 0 -46.5 -8t-41 -21.5t-31.5 -31.5t-19 -39q-6 21 -19.5 39t-32 31.5t-41 21.5t-46.5 8
q-14 0 -30 -2t-30 -6v-31q17 0 36.5 -7.5t38 -22.5t33.5 -36t24 -48h126q9 27 24 48t33.5 36t38.5 22.5t37 7.5z" />
    <glyph glyph-name="Ydieresis" unicode="&#x178;" horiz-adv-x="814" 
d="M802 666h-148l-241 -309l-257 309h-148l336 -398v-268h125v266zM567 733v95h-114v-95h114zM364 733v95h-114v-95h114z" />
    <glyph glyph-name="Zcaron" unicode="&#x17d;" horiz-adv-x="810" 
d="M758 631v35h-685v-104h478l-501 -527v-35h703v104h-496zM601 851v31q-14 4 -27 6t-27 2q-24 0 -46.5 -8t-41 -21.5t-31.5 -31.5t-19 -39q-6 21 -19.5 39t-32 31.5t-41 21.5t-46.5 8q-14 0 -30 -2t-30 -6v-31q17 0 36.5 -7.5t38 -22.5t33.5 -36t24 -48h126q9 27 24 48
t33.5 36t38.5 22.5t37 7.5z" />
    <glyph glyph-name="zcaron" unicode="&#x17e;" horiz-adv-x="626" 
d="M573 413v55h-518v-87h353l-361 -326v-55h519v87h-355zM509 666v31q-14 4 -27 6t-27 2q-24 0 -46.5 -8t-41 -21.5t-31.5 -31.5t-19 -39q-6 21 -19.5 39t-32 31.5t-41 21.5t-46.5 8q-14 0 -30 -2t-30 -6v-31q17 0 36.5 -7.5t38 -22.5t33.5 -36t24 -48h126q9 27 24 48
t33.5 36t38.5 22.5t37 7.5z" />
    <glyph glyph-name="florin" unicode="&#x192;" horiz-adv-x="577" 
d="M342 378v72q0 28 6 52t21 40.5t40.5 26t63.5 9.5h39v100h-55q-53 0 -96 -16t-73.5 -45.5t-47 -70.5t-16.5 -90v-78h-162v-92h162v-83q0 -34 -4.5 -58t-17.5 -39.5t-35 -23t-56 -7.5h-49v-100h62q112 0 165 59t53 159v93h170v92h-170z" />
    <glyph glyph-name="circumflex" unicode="&#x2c6;" horiz-adv-x="481" 
d="M436 562v31q-17 0 -37 7.5t-38.5 22t-33.5 35.5t-24 48h-126q-9 -27 -24 -48t-33.5 -35.5t-38 -22t-36.5 -7.5v-31q14 -5 26.5 -6.5t26.5 -1.5q24 0 46.5 7.5t41 21t31.5 32t19 39.5q13 -42 51.5 -71t87.5 -29q14 0 30.5 1.5t30.5 6.5z" />
    <glyph glyph-name="caron" unicode="&#x2c7;" horiz-adv-x="481" 
d="M436 666v31q-14 4 -27 6t-27 2q-24 0 -46.5 -8t-41 -21.5t-31.5 -31.5t-19 -39q-6 21 -19.5 39t-32 31.5t-41 21.5t-46.5 8q-14 0 -30 -2t-30 -6v-31q17 0 36.5 -7.5t38 -22.5t33.5 -36t24 -48h126q9 27 24 48t33.5 36t38.5 22.5t37 7.5z" />
    <glyph glyph-name="breve" unicode="&#x2d8;" horiz-adv-x="406" 
d="M361 647q0 11 -2 23t-7 21h-73v-14q0 -23 -17 -39t-59 -16t-59 16t-17 39v14h-73q-5 -9 -7 -21t-2 -23q0 -16 9 -33t28.5 -31t49.5 -23t71 -9t70.5 9t49 23t29 31t9.5 33z" />
    <glyph glyph-name="dotaccent" unicode="&#x2d9;" horiz-adv-x="278" 
d="M196 558v95h-114v-95h114z" />
    <glyph glyph-name="ring" unicode="&#x2da;" horiz-adv-x="328" 
d="M283 657q0 21 -8 40.5t-23.5 34.5t-37.5 24t-50 9t-50 -9t-37.5 -24t-23.5 -34.5t-8 -40.5t8 -41t23.5 -35t37.5 -24t50 -9t50 9t37.5 24t23.5 35t8 41zM217 657q0 -23 -13.5 -38t-39.5 -15t-39.5 15t-13.5 38t13.5 38t39.5 15t39.5 -15t13.5 -38z" />
    <glyph glyph-name="ogonek" unicode="&#x2db;" horiz-adv-x="319" 
d="M272 -204v33h-39q-96 0 -96 64q0 37 33 69.5t84 61.5l-15 22q-88 -30 -136.5 -76t-48.5 -91q0 -42 37 -69.5t97 -27.5q28 0 48.5 4t35.5 10z" />
    <glyph glyph-name="tilde" unicode="&#x2dc;" horiz-adv-x="479" 
d="M439 646q0 16 -3.5 26t-8.5 21h-69v-25q0 -14 -5.5 -27t-23.5 -13q-15 0 -36.5 10.5t-46.5 22.5t-51 22.5t-50 10.5q-50 0 -77.5 -27t-27.5 -68q0 -16 3.5 -26t8.5 -21h69v25q0 14 5.5 27t23.5 13q15 0 36.5 -10t46.5 -22.5t51 -22.5t50 -10q50 0 77.5 27t27.5 67z" />
    <glyph glyph-name="hungarumlaut" unicode="&#x2dd;" horiz-adv-x="414" 
d="M394 706h-109l-68 -154h68zM225 706h-110l-60 -154h68z" />
    <glyph glyph-name="Omega" unicode="&#x3a9;" horiz-adv-x="836" 
d="M813 390v78h-136v19q0 54 23.5 79.5t79.5 25.5h35v86h-33q-61 0 -103.5 -14.5t-69.5 -41t-39.5 -63t-12.5 -80.5v-11h-101v-78h101v-390h120v390h136zM395 390v78h-136v19q0 54 23.5 79.5t79.5 25.5h35v86h-33q-61 0 -103.5 -14.5t-69.5 -41t-39.5 -63t-12.5 -80.5v-11
h-101v-78h101v-390h120v390h136z" />
    <glyph glyph-name="pi" unicode="&#x3c0;" horiz-adv-x="846" 
d="M781 333q0 74 -27 139.5t-75 114t-113.5 76.5t-142.5 28t-142.5 -28t-113.5 -76.5t-75 -114t-27 -139.5t27 -139.5t75 -114t113.5 -76.5t142.5 -28t142.5 28t113.5 76.5t75 114t27 139.5zM724 333q0 -64 -22 -120t-62 -98t-95 -66t-122 -24t-122.5 24t-95 66t-61.5 98
t-22 120t22 120t61.5 97.5t95 65.5t122.5 24t122 -24t95 -65.5t62 -97.5t22 -120zM590 387v13q0 48 -34.5 75.5t-98.5 27.5h-150v-340h79v122h71q64 0 98.5 27.5t34.5 74.5zM512 383q0 -24 -15 -34t-44 -10h-67v100h67q29 0 44 -10t15 -34v-12z" />
    <glyph glyph-name="endash" unicode="&#x2013;" horiz-adv-x="730" 
d="M640 249v82h-550v-82h550z" />
    <glyph glyph-name="emdash" unicode="&#x2014;" horiz-adv-x="1130" 
d="M990 249v82h-900v-82h900z" />
    <glyph glyph-name="quoteleft" unicode="&#x2018;" horiz-adv-x="256" 
d="M60 529v-100h116v113h-52q0 49 24 75.5t63 26.5v32q-44 0 -73 -13.5t-46.5 -35t-24.5 -47.5t-7 -51z" />
    <glyph glyph-name="quoteright" unicode="&#x2019;" horiz-adv-x="256" 
d="M196 566v100h-116v-113h52q0 -49 -24 -75.5t-63 -26.5v-32q44 0 73 14t46.5 35.5t24.5 47.5t7 50z" />
    <glyph glyph-name="quotesinglbase" unicode="&#x201a;" horiz-adv-x="286" 
d="M201 13v100h-116v-113h52q0 -49 -24 -75.5t-63 -26.5v-32q44 0 73 14t46.5 35.5t24.5 47.5t7 50z" />
    <glyph glyph-name="quotedblleft" unicode="&#x201c;" horiz-adv-x="442" 
d="M246 529v-100h116v113h-52q0 49 24 75.5t63 26.5v32q-44 0 -73 -14t-46.5 -35.5t-24.5 -47.5t-7 -50zM60 529v-100h116v113h-52q0 49 24 75.5t63 26.5v32q-44 0 -73 -14t-46.5 -35.5t-24.5 -47.5t-7 -50z" />
    <glyph glyph-name="quotedblright" unicode="&#x201d;" horiz-adv-x="442" 
d="M382 566v100h-116v-113h52q0 -49 -24 -75.5t-63 -26.5v-32q44 0 73 14t46.5 35.5t24.5 47.5t7 50zM196 566v100h-116v-113h52q0 -49 -24 -75.5t-63 -26.5v-32q44 0 73 14t46.5 35.5t24.5 47.5t7 50z" />
    <glyph glyph-name="quotedblbase" unicode="&#x201e;" horiz-adv-x="462" 
d="M387 13v100h-116v-113h52q0 -49 -24 -75.5t-63 -26.5v-32q44 0 73 14t46.5 35.5t24.5 47.5t7 50zM201 13v100h-116v-113h52q0 -49 -24 -75.5t-63 -26.5v-32q44 0 73 14t46.5 35.5t24.5 47.5t7 50z" />
    <glyph glyph-name="dagger" unicode="&#x2020;" horiz-adv-x="511" 
d="M456 409v62q0 8 -5.5 11t-10.5 3q-9 0 -28.5 -1t-42 -2.5t-45 -4t-37.5 -6.5q4 14 6.5 41t4 54.5t2 51.5t0.5 32q0 5 -3 10.5t-10 5.5h-62q-8 0 -11 -5.5t-3 -10.5q0 -8 1 -32t2.5 -51.5t4 -54.5t5.5 -41q-15 4 -37 6.5t-44.5 4t-42 2.5t-29.5 1q-5 0 -10.5 -3t-5.5 -11
v-62q0 -7 5.5 -10t10.5 -3q8 0 28 1t43 2.5t46 4t37 5.5q-4 -14 -6.5 -39.5t-4 -52t-2.5 -49t-1 -30.5q0 -111 2.5 -181t7.5 -113q1 -5 3.5 -10.5t10.5 -5.5h41q8 0 10.5 5.5t3.5 10.5q4 43 7 113t3 181q0 8 -1 30.5t-2.5 49t-4 52t-5.5 39.5q14 -3 36.5 -5.5t46 -4t43 -2.5
t27.5 -1q5 0 10.5 3t5.5 10z" />
    <glyph glyph-name="daggerdbl" unicode="&#x2021;" horiz-adv-x="511" 
d="M456 122v62q0 8 -5.5 11t-10.5 3q-8 0 -27.5 -1t-43 -2.5t-46 -4t-36.5 -6.5q7 29 10 62.5t3 50.5q0 8 -1 21.5t-2.5 29t-4 31.5t-5.5 30q14 -3 36.5 -5.5t46 -4t43 -2.5t27.5 -1q5 0 10.5 3t5.5 10v62q0 8 -5.5 11t-10.5 3q-9 0 -28.5 -1t-42 -2.5t-45 -4t-37.5 -6.5
q4 14 6.5 41t4 54.5t2 51.5t0.5 32q0 5 -3 10.5t-10 5.5h-62q-8 0 -11 -5.5t-3 -10.5q0 -8 1 -32t2.5 -51.5t4 -54.5t5.5 -41q-15 4 -37 6.5t-44.5 4t-42 2.5t-29.5 1q-5 0 -10.5 -3t-5.5 -11v-62q0 -7 5.5 -10t10.5 -3q8 0 28 1t43 2.5t46 4t37 5.5q-4 -14 -6.5 -30
t-4 -31.5t-2.5 -29t-1 -21.5q0 -17 3 -50.5t11 -62.5q-14 4 -37 6.5t-46 4t-43 2.5t-28 1q-5 0 -10.5 -3t-5.5 -11v-62q0 -7 5.5 -10t10.5 -3q10 0 29.5 0.5t42 2t44.5 4t37 6.5q-3 -14 -5.5 -40.5t-4 -54t-2.5 -51.5t-1 -32q0 -5 3 -10.5t11 -5.5h62q7 0 10 5.5t3 10.5
q0 8 -0.5 32t-2 51.5t-4 54t-6.5 40.5q15 -4 37.5 -6.5t45 -4t42 -2t28.5 -0.5q5 0 10.5 3t5.5 10z" />
    <glyph glyph-name="bullet" unicode="&#x2022;" horiz-adv-x="473" 
d="M408 333q0 36 -12.5 68t-35 55t-54 36.5t-69.5 13.5t-70 -13.5t-54.5 -36.5t-35 -55t-12.5 -68t12.5 -68t35 -55t54.5 -36.5t70 -13.5t69.5 13.5t54 36.5t35 55t12.5 68z" />
    <glyph glyph-name="ellipsis" unicode="&#x2026;" horiz-adv-x="818" 
d="M733 0v113h-116v-113h116zM467 0v113h-116v-113h116zM201 0v113h-116v-113h116z" />
    <glyph glyph-name="perthousand" unicode="&#x2030;" horiz-adv-x="1230" 
d="M1180 148v12q0 80 -42.5 126.5t-117.5 46.5q-76 0 -119 -46.5t-43 -126.5v-12q0 -80 43 -126.5t119 -46.5q75 0 117.5 46.5t42.5 126.5zM1097 134q0 -45 -21 -68.5t-56 -23.5q-39 0 -60.5 23.5t-21.5 68.5v40q0 45 21.5 68.5t60.5 23.5q35 0 56 -23.5t21 -68.5v-40z
M795 148v12q0 80 -42.5 126.5t-117.5 46.5q-76 0 -119 -46.5t-43 -126.5v-12q0 -80 43 -126.5t119 -46.5q75 0 117.5 46.5t42.5 126.5zM712 134q0 -45 -21 -68.5t-56 -23.5q-39 0 -60.5 23.5t-21.5 68.5v40q0 45 21.5 68.5t60.5 23.5q35 0 56 -23.5t21 -68.5v-40zM721 660
l-50 37l-547 -691l51 -38zM372 506v12q0 80 -42.5 126.5t-117.5 46.5q-76 0 -119 -46.5t-43 -126.5v-12q0 -80 43 -126.5t119 -46.5q75 0 117.5 46.5t42.5 126.5zM289 492q0 -45 -21 -68.5t-56 -23.5q-39 0 -60.5 23.5t-21.5 68.5v40q0 45 21.5 68.5t60.5 23.5
q35 0 56 -23.5t21 -68.5v-40z" />
    <glyph glyph-name="guilsinglleft" unicode="&#x2039;" horiz-adv-x="370" 
d="M306 0q0 66 -30.5 123t-84.5 94q54 36 84.5 93.5t30.5 123.5h-58q-8 -23 -24.5 -50.5t-40.5 -53.5t-56.5 -47.5t-72.5 -32.5v-66q40 -11 72.5 -33t56.5 -48t40.5 -53.5t24.5 -49.5h58z" />
    <glyph glyph-name="guilsinglright" unicode="&#x203a;" horiz-adv-x="370" 
d="M316 184v66q-40 11 -72.5 32.5t-56.5 47.5t-40.5 53.5t-24.5 50.5h-58q0 -66 30.5 -123.5t84.5 -93.5q-54 -37 -84.5 -94t-30.5 -123h58q8 22 24.5 49.5t40.5 53.5t56.5 48t72.5 33z" />
    <glyph glyph-name="trademark" unicode="&#x2122;" horiz-adv-x="797" 
d="M736 362v304h-101l-55 -156l-19 -57l-19 57l-56 156h-100v-304h67v211l21 -59l56 -152h54l58 152l21 59v-211h73zM329 603v63h-281v-63h103v-241h76v241h102z" />
    <glyph glyph-name="product" unicode="&#x220f;" horiz-adv-x="815" 
d="M629 0h162l-270 273q115 14 173.5 57.5t58.5 126.5v4q0 45 -17 82.5t-51.5 64.5t-87.5 42.5t-125 15.5h-377v-666h125v269h165zM220 362v200h261q78 0 112.5 -26.5t34.5 -68.5v-8q0 -45 -36 -71t-114 -26h-258z" />
    <glyph glyph-name="fraction" unicode="&#x2215;" horiz-adv-x="244" 
d="M419 699l-60 43l-534 -845l59 -43z" />
    <glyph glyph-name="radical" unicode="&#x221a;" horiz-adv-x="1130" 
d="M813 390v78h-136v19q0 54 23.5 79.5t79.5 25.5h35v86h-33q-61 0 -103.5 -14.5t-69.5 -41t-39.5 -63t-12.5 -80.5v-11h-101v-78h101v-390h120v390h136zM395 390v78h-136v19q0 54 23.5 79.5t79.5 25.5h35v86h-33q-61 0 -103.5 -14.5t-69.5 -41t-39.5 -63t-12.5 -80.5v-11
h-101v-78h101v-390h120v390h136zM1040 0v666h-114v-666h114z" />
    <glyph glyph-name="approxequal" unicode="&#x2248;" horiz-adv-x="1136" 
d="M1043 549v95h-114v-95h114zM813 390v78h-136v19q0 54 23.5 79.5t79.5 25.5h35v86h-33q-61 0 -103.5 -14.5t-69.5 -41t-39.5 -63t-12.5 -80.5v-11h-101v-78h101v-390h120v390h136zM395 390v78h-136v19q0 54 23.5 79.5t79.5 25.5h35v86h-33q-61 0 -103.5 -14.5t-69.5 -41
t-39.5 -63t-12.5 -80.5v-11h-101v-78h101v-390h120v390h136zM1046 0v468h-120v-468h120z" />
    <glyph glyph-name="notequal" unicode="&#x2260;" horiz-adv-x="525" 
d="M486 0v468h-447v-468h447z" />
    <glyph glyph-name="lessequal" unicode="&#x2264;" horiz-adv-x="650" 
d="M517 59v373l-451 -180v-13z" />
    <glyph glyph-name="greaterequal" unicode="&#x2265;" horiz-adv-x="650" 
d="M584 239v13l-451 180v-373z" />
    <glyph glyph-name="apple" unicode="&#xf8ff;" horiz-adv-x="967" 
d="M868 0v750h-767v-750h767zM859 -104l-6 34h-1l-13 -26l-13 26h-1l-6 -34h6l3 20l10 -21h2l10 21l3 -20h6zM806 -87q0 7 -4.5 12t-11.5 5q-8 0 -13 -5t-5 -13q0 -7 4.5 -12t12.5 -5t12.5 5t4.5 13zM758 -96q-6 -4 -10 -4q-13 0 -13 13q0 5 3.5 8.5t8.5 3.5q6 0 9 -3l2 5
q-5 3 -11 3q-8 0 -13 -5t-5 -13q0 -17 18 -17q7 0 10 3zM702 -71h-7l-9 -14l-11 15l-6 -1l14 -19v-14h6v14zM656 -104v33h-6v-13h-16v13h-6v-33h6v15h16v-15h6zM612 -82q0 5 -4.5 9t-18.5 2v-33h6v10q17 0 17 12zM576 -104l-16 34h-2l-15 -34h6l3 8h14l4 -8h6zM534 -104
l-10 13q7 3 7 10q0 5 -4.5 8.5t-18.5 1.5v-33h6v11h5l8 -11h7zM491 -101v15h-15v-5h9v-7q-4 -2 -6 -2q-13 0 -13 12q0 13 12 13q7 0 11 -4l2 5q-6 4 -12 4q-8 0 -13.5 -5t-5.5 -13t5 -12.5t13 -4.5q7 0 13 4zM447 -87q0 7 -4.5 12t-11.5 5q-8 0 -13 -5t-5 -13q0 -7 4.5 -12
t12.5 -5t12.5 5t4.5 13zM400 -82q0 5 -4.5 9t-18.5 2v-33h6v10q17 0 17 12zM364 -71h-7l-9 -14l-11 15l-6 -1l14 -19v-14h6v14zM323 -71h-30v-5h12v-28h6v28h12v5zM267 -71h-6l-7 -22l-10 23h-1l-10 -23l-7 23l-6 -1l12 -34h1l10 23l11 -23h1zM211 -71h-6l-7 -22l-10 23h-1
l-10 -23l-7 23l-6 -1l12 -34h1l10 23l11 -23h1zM155 -71h-6l-7 -22l-10 23h-1l-10 -23l-7 23l-6 -1l12 -34h1l10 23l11 -23h1zM716 -101q0 4 -4 4t-4 -4t4 -4t4 4zM284 -101q0 4 -4 4t-4 -4t4 -4t4 4zM559 686h-2l-2.5 4.5t-7.5 4.5q-3 0 -3 -3v-23q0 -5 2 -5h3v-2h-17v2h2
q3 0 3 5v23q0 3 -3 3q-5 0 -7.5 -4.5l-2.5 -4.5h-2l0.5 4.5t0.5 7.5q3 -1 18 -1t17 1q1 -3 1 -8v-4zM504 662h-18v2h2q3 0 3 5v10h-17v-10q0 -4 2.5 -4.5l2.5 -0.5v-2h-17v2l2.5 0.5t2.5 4.5v21q0 5 -3 5h-2v2h17v-1v-1h-3q-2 0 -2 -5v-9h17v9q0 5 -3 5h-2v1v1h18v-2h-3
t-3 -5v-21q0 -5 3 -5h3v-2zM439 664v-2h-30l-2 11l2 1l2.5 -4.5t7.5 -4.5h4q4 0 4 3v11h-4q-5 0 -5.5 -3l-0.5 -3h-2v13h2l0.5 -2.5t5.5 -2.5h4v10q0 3 -4 3h-4q-5 0 -7 -4l-2 -4l-2 1l2 10h29v-2h-3q-2 0 -2 -5v-21q0 -5 2 -5h3zM827 618h-685v6h685v-6zM696 540
q0 -12 -8 -17t-15 -5q-14 0 -25.5 11t-11.5 27q0 12 8 17t15 5q14 0 25.5 -11.5t11.5 -26.5zM589 537q0 -8 -6 -13.5t-19 -5.5q-16 0 -16 13q0 10 9 10q7 0 7 -5t-4 -5q-2 0 -3 1t-2 1q-3 0 -3 -3q0 -9 12 -9t12 14q0 10 -6 15q-5 -5 -11 -5q-8 0 -8 6q0 8 16 6q2 2 2 6
q0 12 -10 12q-7 0 -7 -5q0 -2 1.5 -2.5t1.5 -3.5t-4 -3q-5 0 -5 6q0 11 13 11q11 0 16 -5t5 -10q0 -6 -5 -9q14 -5 14 -17zM295 537q0 -8 -6 -13.5t-19 -5.5q-16 0 -16 13q0 10 9 10q7 0 7 -5t-4 -5q-2 0 -3 1t-2 1q-3 0 -3 -3q0 -9 12 -9t12 14q0 10 -6 15q-5 -5 -11 -5
q-8 0 -8 6q0 8 16 6q2 2 2 6q0 12 -10 12q-7 0 -7 -5q0 -2 1.5 -2.5t1.5 -3.5t-4 -3q-5 0 -5 6q0 11 13 11q11 0 16 -5t5 -10q0 -6 -5 -9q14 -5 14 -17zM820 522l1 -3h-29l-1 3l4.5 0.5t2.5 7.5l-3 16h-24l3 -16q2 -7 6 -7.5l4 -0.5l1 -3h-29l-1 3l4.5 0.5t2.5 7.5l-7 35
q-2 7 -6 7.5l-4 0.5l-1 3h29l1 -3l-4.5 -0.5t-2.5 -7.5l3 -15h24l-3 15q-2 7 -5.5 7.5l-3.5 0.5l-1 3h28l1 -3l-4.5 -0.5t-2.5 -7.5l7 -35q2 -7 6 -7.5zM498 519h-29l-1 3l4.5 0.5t2.5 7.5l-3 17h-4q-7 0 -7.5 -5.5l-0.5 -5.5h-3l-5 23h3l2.5 -4.5t9.5 -4.5h4l-3 16
q-1 6 -6 6h-4q-11 0 -12 -6.5l-1 -6.5h-4l0.5 7t-0.5 10h45l1 -3l-4.5 -0.5t-2.5 -7.5l7 -35q2 -7 6 -7.5l4 -0.5zM202 522l1 -3h-29l-1 3l4.5 0.5t2.5 7.5l-3 15q-4 0 -5 -3l-12 -23h-19l-1 3l5 0.5t9 7.5l9 16q-8 1 -13.5 5t-5.5 10q0 15 20 15h27l1 -3l-4.5 -0.5
t-2.5 -7.5l7 -35q2 -7 6 -7.5zM400 521q0 -3 -4 -3q-9 0 -12 7q-8 0 -10 -6.5t-15 -6.5q-5 0 -10 3.5t-5 8.5q0 7 5 7t5 -5q0 -2 -1 -2.5t-1 -2.5q0 -4 5 -4t8.5 6.5t14.5 6.5q-6 6 -8.5 13.5t-3.5 14.5t-2.5 12t-6.5 5t-5 -6t-4 -6q-5 0 -5 5q0 3 4 6.5t9 3.5
q12 0 16.5 -6.5t6 -15t2 -16t4.5 -10.5q7 -1 10 -4t3 -5zM827 475h-685v6h685v-6zM827 378h-36v28h-11v-65h14v-33h-81v33h14v65h-11v-28h-36v62h147v-62zM648 406h-14l-37 -45v-20h15v-33h-81v33h14v19l-37 46h-12v34h62v-34h-10l15 -23l15 23h-11v34h81v-34zM458 308h-81
v33h15v19h-30q-22 0 -34.5 11.5t-12.5 28.5t12.5 28.5t34.5 11.5h96v-34h-14v-65h14v-33zM283 308h-141v61h41v-28h33v21h-24v24h24v20h-33v-28h-41v62h141v-34h-14v-65h14v-33zM827 271h-685v6h685v-6zM728 192q0 -12 -8 -17t-15 -5q-14 0 -25.5 11t-11.5 27q0 12 8 17
t15 5q14 0 25.5 -11.5t11.5 -26.5zM203 217l-2 -2l-4.5 4.5t-7.5 2.5q-9 0 -9 -13q0 -8 5 -25q2 -8 6 -8.5l4 -0.5l1 -4h-28l-1 4l4.5 1t1.5 14q-3 12 -8.5 22.5t-15.5 10.5q-8 0 -8 -6l-3 1q0 6 3.5 9t8.5 3q8 0 13 -6.5t8 -16.5q-1 23 14 23q8 0 11.5 -4t6.5 -9zM823 171
h-29l-1 3l4.5 0.5t2.5 7.5l-3 17h-4q-7 0 -7.5 -5.5l-0.5 -5.5h-3l-5 23h3l2.5 -4.5t9.5 -4.5h4l-3 16q-1 6 -6 6h-4q-11 0 -12 -6.5l-1 -6.5h-4l0.5 7t-0.5 10h45l1 -3l-4.5 -0.5t-2.5 -7.5l7 -35q2 -7 6 -7.5l4 -0.5zM621 225l-5 -0.5t-3 -8.5l5 -22q2 -8 0 -16t-19 -8
q-14 0 -20 9.5t-8 17.5l-4 19q-2 8 -6.5 8.5l-4.5 0.5l-1 3h24v-3l-4.5 -0.5t-2.5 -8.5l4 -19q2 -9 7 -15.5t13 -6.5q11 0 12 5t-1 15l-5 21q-2 8 -6 8.5l-4 0.5l-1 3h29zM522 174l1 -3h-21l-1 3l4 1t2 9l-6 30l-30 -44l-3 1l-8 45q-2 7 -5.5 8l-3.5 1l-1 3h21l1 -3l-4.5 -1
t-2.5 -8l5 -30l29 42h14l1 -3l-5 -0.5t-3 -8.5l7 -32q2 -8 5.5 -9zM414 171h-32q-13 0 -24 9.5t-11 25.5q0 11 8 16.5t17 5.5h30l1 -3q-11 -1 -8 -10l8 -31q2 -8 6 -8.5l4 -0.5zM306 174l1 -3h-29l-1 3l4.5 0.5t2.5 7.5l-3 15q-4 0 -5 -3l-12 -23h-19l-1 3l5 0.5t9 7.5l9 16
q-8 1 -13.5 5t-5.5 10q0 15 20 15h27l1 -3l-4.5 -0.5t-2.5 -7.5l7 -35q2 -7 6 -7.5zM827 127h-685v6h685v-6zM694 46h-14v2l2.5 1t2.5 4v20l-25 -28h-3v28q0 4 -3 5l-3 1v2h15v-2l-3 -1t-3 -5v-18l24 26h10v-2l-3 -2t-3 -4v-20q0 -3 3 -4l3 -1v-2zM633 48v-2h-30l-2 11l2 1
l2.5 -4.5t7.5 -4.5h4q4 0 4 3v11h-4q-5 0 -5.5 -3l-0.5 -3h-2v13h2l0.5 -2.5t5.5 -2.5h4v10q0 3 -4 3h-4q-5 0 -7 -4l-2 -4l-2 1l2 10h29v-2h-3q-2 0 -2 -5v-21q0 -5 2 -5h3zM583 81v-2l-2.5 -0.5t-4.5 -5.5l-12 -27h-1l-9 16l-8 -16q0 -1 -0.5 -0.5l-0.5 0.5h-1l-13 27
q-2 4 -4 5l-2 1v2h13v-2l-2 -1t0 -5l8 -18l7 13l-3 5q-3 5 -5 5.5l-2 0.5l-1 2h26v-2l-2 -1.5t-4 -4.5l-4 -8l5 -10l9 19q2 3 0 4l-2 1v2h15zM480 79l-2.5 -0.5t-4.5 -4.5l-8 -12v-8q0 -5 2.5 -5.5l2.5 -0.5v-2h-17v2l2.5 0.5t2.5 5.5v8l-8 12q-2 4 -5 4.5l-3 0.5v2h15v-2
l-2.5 -0.5t-0.5 -4.5l6 -9l6 9q2 4 0.5 4.5l-1.5 0.5v2h15v-2zM425 64q0 -8 -5 -13.5t-15 -5.5t-15 5.5t-5 13.5t5 13t15 5t15 -5t5 -13zM364 46h-17v2l2.5 0.5t2.5 4.5v9q-4 0 -7 -4l-7 -12h-11v2l2.5 0.5t5.5 4.5l7 10q-9 4 -9 9q0 9 13 9h18v-2l-2.5 -0.5t-2.5 -5.5v-20
q0 -4 2.5 -4.5l2.5 -0.5v-2zM309 46h-18v2l3 0.5t3 5.5v9q-2 0 -4 -2l-8 -8q-3 -4 -0.5 -4.5l2.5 -0.5v-2h-17v2l2.5 1.5t4.5 3.5l13 13l-10 9q-2 2 -5 3l-3 1v2h14v-2l-1.5 -1t0.5 -3l8 -8q2 -2 4 -2v9q0 4 -3 4.5l-3 0.5v2h18v-2l-3 -0.5t-3 -4.5v-20q0 -4 3 -5l3 -1v-2z
M606 -83q0 -6 -11 -6v13q11 1 11 -7zM525 -82q0 -7 -11 -6v12q11 2 11 -6zM394 -83q0 -6 -11 -6v13q11 1 11 -7zM564 -92h-10l5 12zM800 -88q0 -12 -11 -12t-11 13q0 12 11 12t11 -13zM441 -88q0 -12 -11 -12t-11 13q0 12 11 12t11 -13zM176 548l-3 19q-1 5 -9 5t-8 -9
q0 -5 3.5 -10t11.5 -5h5zM566 553q-2 1 -7 1q-4 0 -4 -3q0 -2 4 -2t7 4zM272 553q-2 1 -7 1q-4 0 -4 -3q0 -2 4 -2t7 4zM684 535q0 16 -8 27.5t-17 11.5q-11 0 -11 -14q0 -15 8 -26.5t17 -11.5q11 0 11 13zM392 384v22h-11q-13 0 -13 -11t13 -11h11zM280 200l-3 19
q-1 5 -9 5t-8 -9q0 -5 3.5 -10t11.5 -5h5zM716 187q0 16 -8 27.5t-17 11.5q-11 0 -11 -14q0 -15 8 -26.5t17 -11.5q11 0 11 13zM393 182l-9 35q-2 5 -2.5 5.5t-3.5 1.5h-6q-14 0 -14 -17q0 -12 7.5 -22t18.5 -10h5q4 0 4 7zM553 79q-5 0 0 -9q4 9 0 9zM352 64v10q0 4 -4 4
q-7 0 -7 -6q0 -8 8 -8h3zM417 64q0 16 -12 16t-12 -16q0 -7 3 -12t9 -5q7 0 9.5 5t2.5 12z" />
    <glyph glyph-name="fi" unicode="&#xfb01;" horiz-adv-x="718" 
d="M625 549v95h-114v-95h114zM395 390v78h-136v19q0 54 23.5 79.5t79.5 25.5h35v86h-33q-61 0 -103.5 -14.5t-69.5 -41t-39.5 -63t-12.5 -80.5v-11h-101v-78h101v-390h120v390h136zM628 0v468h-120v-468h120z" />
    <glyph glyph-name="fl" unicode="&#xfb02;" horiz-adv-x="712" 
d="M395 390v78h-136v19q0 54 23.5 79.5t79.5 25.5h35v86h-33q-61 0 -103.5 -14.5t-69.5 -41t-39.5 -63t-12.5 -80.5v-11h-101v-78h101v-390h120v390h136zM622 0v666h-114v-666h114z" />
    <glyph glyph-name="NUL" horiz-adv-x="1000" 
 />
    </font>
</defs>
</svg>
