<?xml version="1.0" standalone="no"?>
<!DOCTYPE svg PUBLIC "-//W3C//DTD SVG 1.1//EN" "http://www.w3.org/Graphics/SVG/1.1/DTD/svg11.dtd" >
<svg xmlns="http://www.w3.org/2000/svg" xmlns:xlink="http://www.w3.org/1999/xlink" version="1.1">
<metadata>
Created by FontForge 20161003 at Fri Feb 17 20:32:48 2017
 By www-data
  1993 The Hoefler Type Foundry, Inc. This typeface and the digital software that describes it are the exclusive property of HTF. HTF Ziggurat Italic is a trademark of The Hoefler Type Foundry, Inc.
</metadata>
<defs>
<font id="ZigguratHTFBlackItalic_1" horiz-adv-x="850" >
  <font-face 
    font-family="ZigguratHTFBlackItalic_1"
    font-weight="500"
    font-style="italic"
    font-stretch="normal"
    units-per-em="1000"
    panose-1="2 0 6 7 6 0 0 9 0 4"
    ascent="800"
    descent="-200"
    x-height="541"
    cap-height="754"
    bbox="-320 -304 1455 1044"
    underline-thickness="20"
    underline-position="-163"
    slope="-12"
    unicode-range="U+0020-FB02"
  />
<missing-glyph horiz-adv-x="500" 
 />
    <glyph glyph-name=".notdef" horiz-adv-x="500" 
 />
    <glyph glyph-name=".null" horiz-adv-x="0" 
 />
    <glyph glyph-name="nonmarkingreturn" horiz-adv-x="240" 
 />
    <glyph glyph-name="space" unicode=" " horiz-adv-x="240" 
 />
    <glyph glyph-name="exclam" unicode="!" horiz-adv-x="355" 
d="M441 666q0 25 -10.5 45t-27.5 34t-39 22t-45 8q-27 0 -54 -15t-41 -46q-23 -43 -27 -91.5t-4.5 -103.5t-3.5 -116.5t-23 -130.5l64 -21q24 68 60 123.5t69.5 104.5t57.5 94.5t24 92.5zM253 98q0 22 -8.5 41.5t-23 34.5t-34.5 23.5t-42 8.5q-23 0 -42.5 -8.5t-34.5 -23.5
t-23.5 -34.5t-8.5 -41.5q0 -23 8.5 -42.5t23.5 -34.5t34.5 -23.5t42.5 -8.5q22 0 42 8.5t34.5 23.5t23 34.5t8.5 42.5z" />
    <glyph glyph-name="quotedbl" unicode="&#x22;" horiz-adv-x="470" 
d="M617 689q0 19 -8.5 35t-22.5 27.5t-31 18t-34 6.5q-32 0 -56.5 -19.5t-34.5 -61.5l-40 -253l45 -21l157 199q11 16 18 32.5t7 36.5zM377 687q0 19 -7.5 35.5t-20.5 28.5t-30 19t-36 7q-44 0 -67 -27.5t-26 -69.5l-1 -242l48 -13l125 207q5 10 10 23.5t5 31.5z" />
    <glyph glyph-name="numbersign" unicode="#" horiz-adv-x="765" 
d="M853 662h-119l34 92h-140l-34 -92h-104l34 92h-140l-34 -92h-105l-44 -120h105l-43 -117h-103l-43 -115h104l-32 -88h140l32 88h104l-32 -88h140l32 88h119l45 115h-122l43 117h118zM550 542l-43 -117h-104l43 117h104z" />
    <glyph glyph-name="dollar" unicode="$" horiz-adv-x="666" 
d="M732 582q0 33 -13 62t-37 52.5t-57 40.5t-73 26l34 93h-129l-31 -84q-67 -4 -121 -23t-92.5 -50.5t-59.5 -74t-21 -92.5q0 -53 18.5 -92t46 -68.5t59.5 -52.5t59.5 -44.5t46 -43.5t18.5 -50q0 -19 -6 -31t-16 -18.5t-23 -9t-26 -2.5q-35 0 -56.5 10.5t-17.5 30.5
q1 6 2 10.5t1 11.5q0 20 -7.5 38.5t-21 32.5t-31 22.5t-36.5 8.5q-45 0 -76 -29.5t-31 -82.5q0 -33 15 -62.5t41.5 -52.5t62 -40t77.5 -26l-32 -88h129l29 80q72 3 128.5 21t96 47t60.5 68.5t21 85.5q0 53 -19 92.5t-48 70.5t-62 55.5t-62 47.5t-48 46.5t-19 52.5
q0 35 19.5 51t60.5 16q35 0 51 -12.5t11 -26.5q-2 -7 -3.5 -13.5t-1.5 -15.5q0 -20 8.5 -36.5t22 -28t30.5 -18t33 -6.5q18 0 35.5 5.5t31 17.5t21.5 31.5t8 46.5z" />
    <glyph glyph-name="percent" unicode="%" horiz-adv-x="935" 
d="M967 256q0 34 -12 63.5t-34 50.5t-51.5 33t-65.5 12q-51 0 -97 -23t-81.5 -61.5t-56.5 -88t-21 -103.5q0 -35 12 -64t34 -50t52 -32.5t65 -11.5q51 0 97.5 23t81.5 61t56 87.5t21 103.5zM866 754h-122l-561 -754h123zM503 614q0 34 -12 63.5t-33.5 50.5t-51.5 33t-65 12
q-51 0 -97.5 -23t-81.5 -61t-56 -87.5t-21 -103.5q0 -35 12 -64t34 -50t51.5 -33t65.5 -12q51 0 97 23t81 61t56 87.5t21 103.5zM823 288q0 -32 -32 -114q-6 -18 -14.5 -35t-18 -31t-19.5 -22.5t-20 -8.5q-12 0 -19.5 6.5t-7.5 23.5q0 32 32 114q7 18 15 35t17.5 31
t19.5 22.5t20 8.5q12 0 19.5 -6.5t7.5 -23.5zM360 647q0 -16 -8.5 -45t-23.5 -69q-7 -18 -15 -35.5t-17.5 -31.5t-19.5 -22.5t-20 -8.5q-12 0 -19.5 6.5t-7.5 23.5q0 16 8 44.5t23 69.5q7 18 15.5 35t18 31t19.5 22.5t20 8.5q12 0 19.5 -6t7.5 -23z" />
    <glyph glyph-name="ampersand" unicode="&#x26;" horiz-adv-x="947" 
d="M937 208q0 23 -2 39.5t-10 36.5h-88q0 -53 -28.5 -79.5t-73.5 -26.5q-14 0 -31.5 6t-28.5 16q31 19 61 42t53 48t37 52t14 55q0 37 -21.5 63t-65.5 26q-24 0 -43 -8t-32.5 -21.5t-20.5 -30.5t-7 -36q0 -21 8 -35.5t8 -28.5q0 -11 -6.5 -21t-15.5 -18.5t-19.5 -16
t-18.5 -13.5q-27 33 -46 70t-29 84q49 15 86.5 40t63.5 56t39.5 64.5t13.5 65.5q0 26 -10 50.5t-30 43.5t-50.5 30.5t-72.5 11.5q-60 0 -113.5 -26t-93.5 -70t-63.5 -103t-23.5 -125q-71 -13 -124 -41.5t-88 -66.5t-53 -82t-18 -86q0 -38 14.5 -73t43 -61.5t71.5 -42
t100 -15.5q60 0 111 19t101 63q32 -39 91 -60.5t128 -21.5q62 0 114 19t89.5 50.5t58.5 72.5t21 85zM600 589q0 -11 -7.5 -22.5t-19.5 -22.5t-28 -20.5t-33 -15.5q0 4 -0.5 7.5t-0.5 7.5q0 38 17.5 65t48.5 27q23 0 23 -26zM367 140q-8 -6 -19.5 -10t-22.5 -4q-22 0 -39 10
t-28 26.5t-17 37t-6 42.5q0 32 13.5 59.5t39.5 39.5q4 -25 12 -52t18.5 -53.5t23 -51.5t25.5 -44z" />
    <glyph glyph-name="quotesingle" unicode="'" horiz-adv-x="246" 
d="M377 687q0 19 -7.5 35.5t-20.5 28.5t-30 19t-36 7q-44 0 -67 -27.5t-26 -69.5l-1 -242l48 -13l125 207q5 10 10 23.5t5 31.5z" />
    <glyph glyph-name="parenleft" unicode="(" horiz-adv-x="595" 
d="M759 700l-30 73q-147 -45 -262 -118.5t-193.5 -163.5t-119.5 -191.5t-41 -204.5q0 -61 14 -118.5t42 -109.5t70 -95.5t98 -75.5l72 52q-28 38 -43.5 87.5t-15.5 127.5q0 96 25.5 198.5t76.5 200.5t128 185.5t179 152.5z" />
    <glyph glyph-name="parenright" unicode=")" horiz-adv-x="585" 
d="M455 374q0 61 -14 118.5t-42 109.5t-70 95.5t-98 75.5l-72 -52q27 -37 42.5 -87t15.5 -128q0 -96 -25.5 -198.5t-76.5 -200.5t-127.5 -185.5t-178.5 -152.5l30 -73q147 45 262 118.5t193.5 163.5t119.5 191.5t41 204.5z" />
    <glyph glyph-name="asterisk" unicode="*" horiz-adv-x="481" 
d="M605 547q0 29 -21 50t-50 21q-11 0 -29 -6t-38 -14.5t-38.5 -17t-29.5 -13.5q10 12 26 28t31 34t26 36.5t11 36.5q0 29 -21.5 50t-50.5 21q-13 0 -26.5 -5.5t-24 -15.5t-16.5 -22.5t-4 -27.5l10 -122q-10 16 -21 39t-25 44t-32.5 36t-42.5 15q-14 0 -27 -6t-23 -15.5
t-15.5 -22.5t-5.5 -28q0 -30 18.5 -47t45 -26t55 -13.5t49.5 -8.5q-21 -5 -49.5 -9t-55 -13.5t-45 -26.5t-18.5 -47q0 -29 21.5 -50.5t50.5 -21.5q24 0 42 15t32 36t25 44t21 40l-10 -123q-1 -14 5 -27t16.5 -22.5t23.5 -15t27 -5.5q29 0 50 21t21 50q0 17 -11 36t-26 37
t-31 33.5t-26 27.5q11 -5 29.5 -13t38.5 -16.5t38 -14.5t29 -6q29 0 50 21t21 50z" />
    <glyph glyph-name="plus" unicode="+" horiz-adv-x="570" 
d="M623 446h-175l62 170h-156l-62 -170h-174l-51 -141h174l-63 -173h156l63 173h175z" />
    <glyph glyph-name="comma" unicode="," horiz-adv-x="379" 
d="M290 68q0 26 -6.5 51t-20.5 44.5t-35 31t-51 11.5q-24 0 -44 -10t-34 -25.5t-21.5 -35t-7.5 -37.5q0 -25 8.5 -43t20.5 -30.5t25 -19.5t22 -11q17 -6 27.5 -9.5t10.5 -20.5q0 -27 -32 -49t-86 -32v-33q52 2 93.5 20t70.5 47.5t44.5 68t15.5 82.5z" />
    <glyph glyph-name="hyphen" unicode="-" horiz-adv-x="449" 
d="M400 375h-319l-58 -151h322z" />
    <glyph glyph-name="period" unicode="." horiz-adv-x="379" 
d="M285 97q0 22 -8.5 42t-23 35t-34.5 23.5t-42 8.5q-23 0 -42.5 -8.5t-34.5 -23.5t-23.5 -35t-8.5 -42t8.5 -41.5t23.5 -34.5t34.5 -23.5t42.5 -8.5q22 0 42 8.5t34.5 23.5t23 34.5t8.5 41.5z" />
    <glyph glyph-name="slash" unicode="/" horiz-adv-x="488" 
d="M678 754h-219l-529 -754h219z" />
    <glyph glyph-name="zero" unicode="0" horiz-adv-x="800" 
d="M843 483q0 63 -22 116t-62 92t-94.5 60.5t-118.5 21.5q-62 0 -120.5 -19t-110.5 -53t-95.5 -81.5t-74.5 -103t-48.5 -118t-17.5 -127.5q0 -63 22 -116.5t62 -92t94 -60t119 -21.5q93 0 177.5 41.5t149 111.5t102.5 160.5t38 188.5zM580 542q0 -28 -14.5 -81t-42.5 -127
q-12 -32 -27.5 -64t-32.5 -57t-35.5 -40.5t-37.5 -15.5q-22 0 -35 12t-13 42q0 29 14.5 81.5t42.5 126.5q12 32 27.5 64t32.5 57.5t35.5 41t37.5 15.5q22 0 35 -12t13 -43z" />
    <glyph glyph-name="one" unicode="1" horiz-adv-x="570" 
d="M648 759h-126q-15 -18 -38 -33.5t-50.5 -27.5t-57.5 -19t-59 -7h-108l-65 -178h119l-110 -301h-96l-65 -193h512l65 193h-126z" />
    <glyph glyph-name="two" unicode="2" horiz-adv-x="739" 
d="M774 554q0 46 -19.5 85.5t-58 69t-95.5 46.5t-132 17q-66 0 -128 -22t-110.5 -60t-78 -89t-29.5 -108q0 -25 9 -46t24.5 -36.5t37 -24.5t47.5 -9q24 0 46 8t39 23t27.5 36.5t10.5 47.5q0 19 -8 40q-3 9 0.5 22t12.5 24t22.5 19t28.5 8q31 0 44.5 -16t13.5 -46
q0 -32 -24 -68.5t-64 -75t-91.5 -77t-106 -74t-108 -66.5t-98.5 -53l67 -142q14 6 34.5 13t43 13t45 10t41.5 4q39 0 66.5 -7t52.5 -16t52 -16t64 -7q50 0 100 10t90.5 40t65.5 83.5t25 140.5l-155 20q0 -27 -11 -46t-26 -31t-32 -18t-29 -6q-21 0 -34.5 5.5t-26 12
t-28.5 12t-43 5.5h-12q94 29 174.5 66.5t139 81t91.5 93.5t33 104z" />
    <glyph glyph-name="three" unicode="3" horiz-adv-x="751" 
d="M782 566q0 47 -25.5 85t-66.5 65t-93 41.5t-105 14.5q-59 0 -117.5 -16t-106 -44.5t-77 -68t-29.5 -85.5q0 -54 27.5 -78t75.5 -24q33 0 59.5 16t40.5 49q7 17 7 33t6 28q8 17 22.5 26t46.5 9t50.5 -15.5t18.5 -48.5q0 -21 -8.5 -42t-25 -37.5t-39.5 -27t-52 -10.5h-34
l-34 -89h34q31 0 54.5 -20.5t23.5 -56.5q0 -37 -10.5 -62.5t-27.5 -41.5t-40 -23t-48 -7q-20 0 -36.5 4.5t-26.5 12t-11.5 18t8.5 22.5q12 14 20 25.5t8 32.5q0 29 -28.5 52.5t-81.5 23.5q-30 0 -54.5 -11.5t-41.5 -32t-26.5 -49t-9.5 -61.5q0 -39 20 -74.5t59 -61.5
t95.5 -41.5t129.5 -15.5q87 0 161.5 18t129.5 50.5t86.5 78.5t31.5 103q0 59 -37 102t-104 55q49 12 83.5 27.5t56 37t31.5 49.5t10 65z" />
    <glyph glyph-name="four" unicode="4" horiz-adv-x="770" 
d="M820 754h-239l-504 -375l-47 -131h327l-20 -55h-92l-70 -193h452l71 193h-82l21 55h112l47 131h-112zM460 530l-54 -151h-129z" />
    <glyph glyph-name="five" unicode="5" horiz-adv-x="691" 
d="M785 754q-50 -10 -103.5 -15t-122.5 -5q-31 0 -72.5 1.5t-85.5 4t-87 6t-77 8.5l-107 -374l134 -50q8 17 32 29t56 12q37 0 53 -20.5t16 -55.5t-9 -64t-24.5 -50t-38 -32.5t-49.5 -11.5q-43 0 -55.5 11t-12.5 28q0 7 4.5 13.5t10.5 14.5t10.5 19t4.5 28q0 15 -7.5 29.5
t-21.5 26.5t-34.5 19t-46.5 7q-29 0 -52.5 -11.5t-40 -31.5t-25.5 -47.5t-9 -58.5q0 -44 20 -81t56 -64.5t87 -43t113 -15.5q84 0 157 25.5t126 69.5t83.5 104.5t30.5 131.5q0 94 -49.5 143t-137.5 49q-97 0 -148 -34l35 93q24 -5 51 -8.5t53 -6t50 -4t43 -1.5
q90 0 140 51.5t50 160.5z" />
    <glyph glyph-name="six" unicode="6" horiz-adv-x="736" 
d="M789 603q0 37 -14 68.5t-42.5 54t-72 35t-102.5 12.5q-96 0 -182.5 -38.5t-151.5 -104t-103 -153t-38 -184.5q0 -74 25 -132t67.5 -98t98.5 -61t118 -21q72 0 137 25.5t113.5 68.5t77 100t28.5 120q0 92 -49 134.5t-137 42.5q-54 0 -103.5 -20t-78.5 -58q22 54 41.5 96
t37.5 71.5t36.5 44.5t38.5 15q14 0 23.5 -6.5t9.5 -21.5q0 -7 -1 -12t-1 -15q0 -15 8 -29t22 -25t33 -18t42 -7q51 0 85 31.5t34 84.5zM481 310q0 -23 -8.5 -54t-23 -59.5t-34 -48.5t-41.5 -20q-18 0 -27.5 12t-9.5 29q0 24 8 56.5t22 62t33.5 50.5t42.5 21q19 0 28.5 -13.5
t9.5 -35.5z" />
    <glyph glyph-name="seven" unicode="7" horiz-adv-x="688" 
d="M838 621l-94 151q-23 -19 -53.5 -32.5t-69.5 -13.5q-28 0 -59 7.5t-63.5 16t-65 16t-62.5 7.5q-25 0 -53.5 -3.5t-56.5 -10.5t-53 -17.5t-43 -23.5l-73 -280l173 -18l31 111q14 11 31.5 14.5t40.5 3.5q10 0 19.5 -3l19 -6t20.5 -6t26 -3q56 0 104 23
q-110 -81 -185 -140.5t-122 -109t-67.5 -95.5t-20.5 -99q0 -25 8.5 -48t26.5 -41t45.5 -29t64.5 -11q52 0 82.5 21t50.5 57.5t36.5 86t39.5 106t58.5 117.5t95.5 120q34 35 75.5 67.5t92.5 64.5z" />
    <glyph glyph-name="eight" unicode="8" horiz-adv-x="702" 
d="M758 569q0 44 -17 81.5t-50 64.5t-80.5 42.5t-107.5 15.5q-70 0 -132 -18.5t-108 -51t-73 -75.5t-27 -92q0 -36 12.5 -66t45.5 -56q-92 -29 -139.5 -89.5t-47.5 -135.5q0 -38 17 -75.5t53.5 -67t93 -47.5t134.5 -18q86 0 156.5 17t121 49t78 78.5t27.5 105.5
q0 53 -19 92.5t-72 73.5q28 10 52.5 27t42.5 39t28.5 48.5t10.5 57.5zM572 576q0 -26 -22 -51.5t-65 -42.5q-19 11 -30.5 25.5t-11.5 30.5q0 15 4.5 30t14.5 26.5t25.5 19t36.5 7.5q23 0 35.5 -13t12.5 -32zM433 212q0 -41 -28 -60.5t-70 -19.5q-44 0 -63.5 17t-19.5 52
q0 23 4.5 40t17 30.5t35 24.5t57.5 22q67 -38 67 -106z" />
    <glyph glyph-name="nine" unicode="9" horiz-adv-x="729" 
d="M779 461q0 74 -25 132t-67.5 98t-98.5 61t-118 21q-72 0 -137 -25t-114.5 -69.5t-78.5 -104.5t-29 -130q0 -49 21.5 -83t56 -54t76 -27t81.5 -1t73.5 25t51.5 50q-35 -116 -74 -169t-97 -53q-34 0 -44.5 6.5t-10.5 16.5q0 8 4 18.5t4 20.5q0 15 -8 30t-23 27t-36 19
t-47 7q-55 0 -87.5 -33.5t-32.5 -93.5q0 -35 18 -66t54 -54t90 -36t127 -13q85 0 169.5 30t151.5 90t108.5 150t41.5 210zM521 581q0 -23 -8.5 -54.5t-23.5 -61t-34.5 -50t-41.5 -20.5q-18 0 -25 12t-7 24q0 24 8 57t22 63.5t34 52t43 21.5q16 0 24.5 -12t8.5 -32z" />
    <glyph glyph-name="colon" unicode=":" horiz-adv-x="379" 
d="M390 429q0 22 -8.5 42t-23.5 34.5t-34.5 23t-41.5 8.5q-23 0 -42.5 -8.5t-34.5 -23t-23.5 -34.5t-8.5 -42q0 -23 8.5 -42.5t23.5 -34t34.5 -23t42.5 -8.5q22 0 41.5 8.5t34.5 23t23.5 34t8.5 42.5zM286 98q0 22 -8.5 42t-23.5 34.5t-35 23t-42 8.5t-41.5 -8.5t-34.5 -23
t-23.5 -34.5t-8.5 -42q0 -23 8.5 -42.5t23.5 -34.5t34.5 -23.5t41.5 -8.5t42 8.5t35 23.5t23.5 34.5t8.5 42.5z" />
    <glyph glyph-name="semicolon" unicode=";" horiz-adv-x="379" 
d="M388 426q0 22 -8.5 42t-23.5 34.5t-35 23t-42 8.5t-41.5 -8.5t-34.5 -23t-23.5 -34.5t-8.5 -42q0 -23 8.5 -42.5t23.5 -34.5t34.5 -23.5t41.5 -8.5t42 8.5t35 23.5t23.5 34.5t8.5 42.5zM290 68q0 26 -6.5 51t-20.5 44.5t-35 31t-51 11.5q-24 0 -44 -10t-34 -25.5
t-21.5 -35t-7.5 -37.5q0 -25 8.5 -43t20.5 -30.5t25 -19.5t22 -11q17 -6 27.5 -9.5t10.5 -20.5q0 -27 -32 -49t-86 -32v-33q52 2 93.5 20t70.5 47.5t44.5 68t15.5 82.5z" />
    <glyph glyph-name="equal" unicode="=" horiz-adv-x="570" 
d="M676 580h-500l-55 -151h500zM581 321h-500l-55 -151h500z" />
    <glyph glyph-name="question" unicode="?" horiz-adv-x="568" 
d="M659 567q0 45 -22 81t-62 61.5t-94.5 39t-119.5 13.5q-51 0 -102 -11.5t-92 -34t-67 -56t-26 -77.5q0 -17 7 -31.5t19.5 -26t29 -18t34.5 -6.5q16 0 33.5 6.5t32 18t23.5 26t9 30.5t-6 33q-3 8 5 13.5t21 9.5t28.5 5.5t27.5 1.5q32 0 51 -12t19 -38q0 -22 -22.5 -36.5
t-56 -27t-73 -26t-73 -33.5t-56 -49t-22.5 -73q0 -63 42 -94.5t133 -31.5q27 0 55 4t51.5 10t41 13t25.5 13l-6 14.5t-11 27.5t-6 15q-17 -10 -39 -16.5t-34 -6.5q-18 0 -25 4t-7 15t24.5 21.5t62 23.5t80.5 29.5t80.5 40.5t62 57t24.5 78zM296 86q0 22 -8.5 42t-23.5 35
t-35 23.5t-42 8.5t-41.5 -8.5t-34.5 -23.5t-23.5 -35t-8.5 -42q0 -23 8.5 -42.5t23.5 -34t34.5 -23t41.5 -8.5t42 8.5t35 23t23.5 34t8.5 42.5z" />
    <glyph glyph-name="at" unicode="@" horiz-adv-x="866" 
d="M888 435q0 54 -22 113.5t-68.5 109.5t-119 82.5t-172.5 32.5q-89 0 -163.5 -30.5t-128.5 -84t-84 -126t-30 -155.5t30 -155.5t84 -126t128.5 -84t163.5 -30.5q81 0 149 24.5t120 69.5l-39 44q-45 -38 -103 -59t-127 -21q-77 0 -140.5 26t-109.5 71.5t-71 107.5t-25 133
t25 132.5t71 107t109.5 71.5t140.5 26q69 0 128 -20t102 -57t67.5 -88t24.5 -114q0 -47 -14 -87t-36 -69.5t-49.5 -46.5t-53.5 -17q-41 0 -50.5 25t4.5 62l97 274h-141l-18 -49q-9 60 -78 60q-51 0 -93 -30.5t-71 -76t-45 -99.5t-16 -100q0 -50 29.5 -81.5t77.5 -31.5
q35 0 69 27.5t57 65.5q-1 -23 9 -42t29.5 -32.5t47 -21.5t62.5 -8q56 0 101 25t76.5 65t48.5 89.5t17 98.5zM550 482l-57 -161q-5 -15 -13.5 -27.5t-17 -21t-16 -13.5t-11.5 -5q-29 0 -29 28q0 17 11.5 54.5t28.5 76t37.5 67.5t38.5 29q8 0 17.5 -8t10.5 -19z" />
    <glyph glyph-name="A" unicode="A" horiz-adv-x="881" 
d="M887 193h-88v561h-315l-408 -561h-66l-71 -193h357l70 193h-61l38 57h165l-2 -57h-89l-70 -193h469zM527 529l-12 -169h-100z" />
    <glyph glyph-name="B" unicode="B" horiz-adv-x="861" 
d="M921 589q0 41 -18.5 72t-51.5 51.5t-79.5 31t-103.5 10.5h-446l-71 -194h93l-134 -367h-81l-71 -193h507q92 0 166 17.5t125.5 49.5t79.5 77.5t28 102.5t-39 96t-101 44q98 24 147.5 70.5t49.5 131.5zM655 513q0 -35 -24 -56.5t-71 -21.5h-61l45 125h62q24 0 36.5 -14.5
t12.5 -32.5zM567 271q0 -35 -24 -56.5t-71 -21.5h-61l45 125h62q24 0 36.5 -14.5t12.5 -32.5z" />
    <glyph glyph-name="C" unicode="C" horiz-adv-x="841" 
d="M1008 754h-235l-30 -84q-8 21 -26.5 40t-45 33t-58.5 22t-66 8q-101 0 -186 -42t-147 -110t-96.5 -154t-34.5 -174q0 -59 21.5 -115t63.5 -100t103.5 -70.5t141.5 -26.5q76 0 143.5 20t123 60t97 100t64.5 139h-223q-9 -27 -22.5 -53t-31.5 -46t-39.5 -32.5t-46.5 -12.5
q-43 0 -69 31.5t-26 88.5q0 56 16.5 114.5t44.5 106t65 78t77 30.5q26 0 44.5 -16t27 -43.5t6 -64.5t-17.5 -79h234z" />
    <glyph glyph-name="D" unicode="D" horiz-adv-x="885" 
d="M938 455q0 59 -19.5 113t-58 95.5t-95.5 66t-132 24.5h-411l-70 -194h92l-133 -367h-82l-70 -193h465q114 0 208.5 35.5t162.5 97t105.5 144.5t37.5 178zM641 486q0 -42 -12 -90.5t-33 -91.5q-29 -58 -61 -84.5t-78 -26.5h-46l133 367h33q35 0 49.5 -20.5t14.5 -53.5z
" />
    <glyph glyph-name="E" unicode="E" horiz-adv-x="867" 
d="M1038 754h-816l-70 -194h92l-133 -367h-82l-70 -193h805l128 351h-235l-57 -158h-189l42 114h137l51 139h-137l41 114h188l-57 -158h234z" />
    <glyph glyph-name="F" unicode="F" horiz-adv-x="864" 
d="M1038 754h-816l-70 -194h92l-133 -367h-82l-70 -193h474l71 193h-93l38 104h138l51 140h-138l45 123h188l-57 -158h234z" />
    <glyph glyph-name="G" unicode="G" horiz-adv-x="910" 
d="M1010 754h-228l-40 -93q-29 58 -76 85t-122 27q-94 0 -177.5 -37.5t-146.5 -103t-100 -153t-37 -186.5q0 -68 22 -125t60.5 -98.5t89.5 -65t109 -23.5q38 0 72.5 8.5t63.5 23.5t51 35.5t34 44.5l-8 -93h187l98 270h86l40 109h-407l-40 -109h82q-17 -51 -48.5 -81
t-82.5 -30q-44 0 -72 23.5t-28 85.5q0 56 17 114t45 105t63.5 76.5t72.5 29.5q30 0 49 -13t27.5 -35t6 -51.5t-14.5 -63.5h235z" />
    <glyph glyph-name="H" unicode="H" horiz-adv-x="1013" 
d="M1170 754h-438l-70 -194h61l-47 -129h-178l46 129h62l70 194h-454l-70 -194h92l-134 -367h-81l-70 -193h443l70 193h-61l47 129h179l-47 -129h-61l-71 -193h454l71 193h-93l134 367h76z" />
    <glyph glyph-name="I" unicode="I" horiz-adv-x="535" 
d="M691 754h-469l-70 -194h92l-133 -367h-82l-70 -193h474l70 193h-92l134 367h76z" />
    <glyph glyph-name="J" unicode="J" horiz-adv-x="771" 
d="M947 754h-486l-70 -194h103l-119 -328q-15 -42 -28 -62t-33 -20q-16 0 -25 8.5t-9 20.5q0 5 1.5 10t5.5 10q8 11 15.5 29t7.5 45t-10.5 51t-28 42t-41.5 28t-51 10q-42 0 -69.5 -20.5t-44.5 -49.5t-24 -62t-7 -58q0 -44 17.5 -86t53.5 -74.5t90 -52.5t127 -20
q132 0 222 70t138 201l113 308h81z" />
    <glyph glyph-name="K" unicode="K" horiz-adv-x="1022" 
d="M1129 754h-392l-70 -194h96l-276 -159l57 159h61l70 194h-453l-71 -194h93l-134 -367h-81l-70 -193h443l70 193h-61l30 84l79 42l54 -126h-51l-70 -193h479l71 193h-118l-111 264l187 103h97z" />
    <glyph glyph-name="L" unicode="L" horiz-adv-x="806" 
d="M850 351h-245l-57 -158h-137l133 367h82l70 194h-474l-70 -194h92l-133 -367h-82l-70 -193h764z" />
    <glyph glyph-name="M" unicode="M" horiz-adv-x="1278" 
d="M1429 754h-493l-204 -275l-5 275h-505l-71 -194h93l-134 -367h-81l-70 -193h371l71 193h-82l120 329l28 -522h92l410 522l-120 -329h-82l-70 -193h474l71 193h-93l134 367h76z" />
    <glyph glyph-name="N" unicode="N" horiz-adv-x="954" 
d="M1133 754h-366l-71 -194h82l-79 -219l-136 413h-341l-70 -194h92l-133 -367h-82l-70 -193h372l70 193h-81l79 219l136 -412h248l204 560h76z" />
    <glyph glyph-name="O" unicode="O" 
d="M902 464q0 66 -22.5 122.5t-65 98t-103 65t-136.5 23.5q-113 0 -205 -43t-156.5 -112t-99.5 -155.5t-35 -173.5q0 -66 22.5 -122t65 -97.5t103 -65t136.5 -23.5q113 0 205 43t156.5 112t99.5 155t35 173zM615 531q0 -28 -13 -75.5t-43 -121.5q-14 -32 -29.5 -62t-33 -53
t-37 -37t-39.5 -14q-24 0 -39 12t-15 42q0 29 13 76t44 121q13 32 28.5 62t33.5 53.5t37 37.5t40 14q24 0 38.5 -12.5t14.5 -42.5z" />
    <glyph glyph-name="P" unicode="P" horiz-adv-x="829" 
d="M927 547q0 46 -18 84t-48.5 65.5t-72.5 42.5t-90 15h-465l-71 -194h82l-134 -367h-81l-71 -193h475l70 193h-92l32 88h152q82 0 144 19.5t104 54.5t63 84t21 108zM655 513q0 -35 -23.5 -56.5t-70.5 -21.5h-62l45 125h62q25 0 37 -14.5t12 -32.5z" />
    <glyph glyph-name="Q" unicode="Q" 
d="M902 465q0 66 -22.5 122t-65 97.5t-103 65t-136.5 23.5q-113 0 -205 -43t-156.5 -112t-99.5 -155t-35 -173q0 -66 22.5 -122.5t65 -98t103 -65t136.5 -23.5h15t15 1q0 -22 11.5 -46.5t35.5 -45t60.5 -34t86.5 -13.5q39 0 75.5 15.5t64 44.5t44 71.5t16.5 96.5h-84
l-10 -26q-5 -13 -15.5 -22t-23.5 -9q-22 0 -24.5 14t2.5 31q54 34 96 80.5t71 99.5t44.5 111t15.5 115zM615 532q0 -29 -13 -76t-43 -121q-4 -8 -7 -15.5t-7 -15.5q-11 14 -29 21t-32 7q-36 0 -63.5 -12.5t-44.5 -32.5q7 26 18.5 58t28.5 74q13 32 28.5 62t33.5 53.5
t37 37.5t40 14q24 0 38.5 -12t14.5 -42zM467 189q-24 -21 -47 -21q-18 0 -31.5 6.5t-18.5 22.5q8 14 19 23t31 9t32 -12t15 -28z" />
    <glyph glyph-name="R" unicode="R" horiz-adv-x="896" 
d="M955 235h-84l-7 -37q-2 -12 -9.5 -21t-21.5 -9q-10 0 -15.5 8t-5.5 22q0 10 2.5 24.5t2.5 26.5q0 49 -26.5 80.5t-71.5 44.5q43 1 81.5 15.5t67 40.5t45 63.5t16.5 84.5q0 36 -17 68t-52 56t-90 38t-130 14h-419l-70 -194h92l-133 -367h-82l-70 -193h454l65 193h-67
l43 120h32q24 0 37 -19t13 -48q0 -19 -6 -52t-6 -61q0 -32 13 -59.5t37 -48t58 -32.5t77 -12q55 0 100.5 18t78 51t50.5 80t18 105zM653 510q0 -35 -24.5 -57.5t-71.5 -22.5h-61l48 130h53q32 0 44 -15.5t12 -34.5z" />
    <glyph glyph-name="S" unicode="S" horiz-adv-x="770" 
d="M884 748h-205l-27 -74q-34 51 -85.5 75t-137.5 24q-65 0 -116.5 -19.5t-88.5 -53.5t-56.5 -80.5t-19.5 -100.5q0 -45 22 -81.5t55.5 -67t72.5 -56t72.5 -47.5t55.5 -42t22 -40q0 -13 -11 -25t-33 -12q-24 0 -47 10.5t-40 27.5t-27.5 40t-10.5 47h-208l-99 -273h225l31 84
q15 -23 40 -41.5t57 -32.5t68.5 -21.5t73.5 -7.5q64 0 117.5 18t92.5 51.5t60.5 80t21.5 103.5q0 50 -25.5 91t-63 74.5t-82 60t-82 48.5t-63 40.5t-25.5 34.5t14.5 27t28.5 11q27 0 52.5 -11t45.5 -29.5t32 -42t12 -48.5h187z" />
    <glyph glyph-name="T" unicode="T" horiz-adv-x="879" 
d="M1050 754h-843l-127 -352h203l58 158h66l-134 -367h-81l-70 -193h474l70 193h-92l133 367h67l-58 -158h206z" />
    <glyph glyph-name="U" unicode="U" horiz-adv-x="858" 
d="M1053 754h-359l-71 -194h62l-87 -238q-17 -46 -32.5 -74t-32.5 -43.5t-35.5 -21t-40.5 -5.5t-34.5 6t-19 14.5t-8 17t-1.5 14.5q0 11 10 47.5t27 88.5l70 194h72l70 194h-453l-71 -194h82l-82 -234q-19 -51 -19 -103t19.5 -96t57.5 -76.5t94 -51t130 -18.5q154 0 252 71
t143 195l115 313h71z" />
    <glyph glyph-name="V" unicode="V" horiz-adv-x="867" 
d="M1058 754h-373l-70 -194h61l-187 -274l14 274h61l70 194h-442l-70 -194h76l20 -560h275l428 560h67z" />
    <glyph glyph-name="W" unicode="W" horiz-adv-x="1234" 
d="M1425 754h-332l-70 -194h68l-176 -229l-4 229h61l70 194h-371l-70 -194h38v-58l-146 -186l-4 244h61l71 194h-432l-71 -194h77l15 -560h209l221 273l2 -273h198l449 560h66z" />
    <glyph glyph-name="X" unicode="X" horiz-adv-x="932" 
d="M1099 754h-351l-71 -194h77l-134 -77l-55 77h62l70 194h-476l-70 -194h79l138 -194l-282 -173h-60l-71 -193h352l70 193h-76l134 78l54 -78h-61l-70 -193h475l71 193h-80l-142 202l270 165h77z" />
    <glyph glyph-name="Y" unicode="Y" horiz-adv-x="867" 
d="M1058 754h-373l-70 -194h61l-133 -127l-40 127h61l70 194h-442l-70 -194h76l116 -258l-39 -109h-82l-70 -193h480l70 193h-98l39 106l307 261h67z" />
    <glyph glyph-name="Z" unicode="Z" horiz-adv-x="798" 
d="M959 754h-740l-119 -329h203l53 145h158l-504 -442l-58 -128h761l119 328h-203l-53 -146h-177l511 437z" />
    <glyph glyph-name="bracketleft" unicode="[" horiz-adv-x="423" 
d="M595 754h-363l-350 -963h362l71 193h-136l210 577h135z" />
    <glyph glyph-name="backslash" unicode="\" horiz-adv-x="709" 
d="M656 0l-254 754h-219l254 -754h219z" />
    <glyph glyph-name="bracketright" unicode="]" horiz-adv-x="423" 
d="M590 754h-368l-70 -193h141l-210 -577h-141l-70 -193h368z" />
    <glyph glyph-name="asciicircum" unicode="^" horiz-adv-x="406" 
d="M513 582l-29 172h-186l-155 -172h125l101 90l19 -90h125z" />
    <glyph glyph-name="underscore" unicode="_" horiz-adv-x="750" 
d="M689 0h-750l-48 -131h750z" />
    <glyph glyph-name="grave" unicode="`" horiz-adv-x="368" 
d="M505 593q-1 1 -14 16.5t-35 41.5t-45 53t-45 51.5t-34 36.5q-25 24 -56 24q-16 0 -31.5 -7t-28 -19.5t-20 -29t-7.5 -35.5q0 -23 11.5 -41t37.5 -31q16 -7 46.5 -18t64 -23t65.5 -22.5t51 -16.5t21 -7z" />
    <glyph glyph-name="a" unicode="a" horiz-adv-x="696" 
d="M712 170h-89q-8 -24 -14.5 -39t-13.5 -23t-13.5 -10.5t-14.5 -2.5q-7 0 -9 6.5t-1 17t5 23.5t9 26l130 363h-242l-31 -86q-12 97 -124 97q-52 0 -103 -34.5t-91.5 -89t-65.5 -121t-25 -130.5q0 -96 39.5 -137t107.5 -41q57 0 103.5 34.5t83.5 96.5q0 -22 7.5 -45.5
t23.5 -42.5t42.5 -31t65.5 -12q89 0 143 45.5t77 135.5zM406 385l-61 -170q-16 -49 -31 -68t-29 -19q-13 0 -21.5 7t-8.5 24q0 15 6 40t15.5 54t21.5 58t25 52.5t26 38.5t23 15q14 0 23.5 -7.5t10.5 -24.5z" />
    <glyph glyph-name="b" unicode="b" horiz-adv-x="608" 
d="M630 395q0 30 -6 56.5t-20.5 47t-38 32t-57.5 11.5q-52 0 -85.5 -17t-62.5 -50l101 279h-354l-47 -130h111l-126 -346q-11 -30 -17 -60t-6 -59q0 -35 10.5 -66t33 -54t59 -36.5t88.5 -13.5q57 0 110.5 19t99.5 50.5t84.5 72.5t65.5 86t42 91t15 87zM399 378q0 -19 -7 -46
t-19 -56.5t-27 -58t-31 -51.5t-32 -37t-29 -14q-8 0 -12.5 6.5t-4.5 14.5q0 10 6.5 34.5t17 55t24.5 63t29.5 60t31 45t29.5 17.5q13 0 18.5 -9t5.5 -24z" />
    <glyph glyph-name="c" unicode="c" horiz-adv-x="579" 
d="M584 386q0 31 -16 59.5t-45 50t-69.5 34t-90.5 12.5q-85 0 -149.5 -31t-107.5 -79.5t-65 -107.5t-22 -114q0 -44 17 -84t50 -70.5t82 -48.5t112 -18q61 0 110 17t85 45.5t58.5 67t30.5 81.5l-88 6q-6 -24 -20.5 -45.5t-34 -37.5t-42.5 -25.5t-46 -9.5q-47 0 -64.5 19.5
t-17.5 57.5q0 37 12 85t32.5 91t46.5 72.5t54 29.5q14 0 23.5 -7t9.5 -21q0 -8 -3 -12.5t-7 -10t-7 -14t-3 -23.5q0 -25 23 -46t61 -21q43 0 67 26.5t24 71.5z" />
    <glyph glyph-name="d" unicode="d" horiz-adv-x="678" 
d="M775 753h-363l-47 -129h120l-66 -179q-13 97 -124 97q-52 0 -103.5 -34.5t-92 -89t-65.5 -121t-25 -130.5q0 -96 39.5 -137t107.5 -41q57 0 104 34.5t83 96.5q1 -22 8 -45.5t23.5 -42.5t43 -31t65.5 -12q89 0 142.5 45.5t77.5 135.5h-89q-8 -24 -15 -39t-14 -23
t-13.5 -10.5t-14.5 -2.5q-10 0 -10 14q0 11 4.5 26.5t10.5 32.5zM397 385l-61 -170q-17 -49 -32 -68t-28 -19q-14 0 -22 7t-8 24q0 15 6 40t15.5 54t21.5 58t25 52.5t25.5 38.5t23.5 15q14 0 23 -7.5t11 -24.5z" />
    <glyph glyph-name="e" unicode="e" horiz-adv-x="591" 
d="M594 386q0 31 -15 59.5t-44.5 50t-71.5 34t-96 12.5q-85 0 -150 -31t-109 -79.5t-66.5 -107.5t-22.5 -114q0 -44 17 -84t50 -70.5t81.5 -48.5t111.5 -18q61 0 107 14.5t78.5 38.5t53 55.5t31.5 66.5l-89 6q-14 -35 -40.5 -57t-70.5 -22q-27 0 -48 6t-33.5 20t-16 36
t5.5 55q78 1 140.5 15.5t106 38.5t67 56t23.5 68zM421 384q0 -15 -10 -31t-28 -29.5t-43.5 -22t-55.5 -8.5q7 25 17.5 48.5t24 42t29 29.5t32.5 11q19 0 26.5 -10t7.5 -30z" />
    <glyph glyph-name="f" unicode="f" horiz-adv-x="456" 
d="M704 631q0 29 -14.5 55t-40.5 45.5t-63.5 31t-83.5 11.5q-59 0 -108 -13.5t-89.5 -43t-73.5 -77t-59 -115.5h-110l-45 -151h110l-49 -191q-28 -107 -47.5 -176.5t-34.5 -110.5t-27 -57.5t-26 -16.5q-30 0 -30 29q0 22 -6 42.5t-19 36t-33 24.5t-48 9q-43 0 -70 -30
t-27 -75q0 -29 16 -53t44 -41.5t66.5 -27.5t84.5 -10q69 0 125 20t100.5 63t79 111.5t59.5 166.5l71 273q2 8 4 14h124l45 151h-127q23 73 43.5 113t38.5 40q20 0 28.5 -10t8.5 -30q0 -38 24.5 -60t70.5 -22t67 23t21 52z" />
    <glyph glyph-name="g" unicode="g" horiz-adv-x="647" 
d="M702 531h-243l-30 -86q-13 96 -124 96q-53 0 -104 -34.5t-91.5 -88.5t-65.5 -120.5t-25 -130.5q0 -96 39.5 -137t107.5 -41q45 0 80.5 29.5t68.5 84.5q-24 -65 -43.5 -117.5t-39 -89t-41.5 -56t-49 -19.5q-15 0 -22.5 8t-7.5 22q0 22 -6 42.5t-19 36t-33 24.5t-48 9
q-43 0 -70 -30t-27 -75q0 -29 16 -53t44 -41.5t66.5 -27.5t84.5 -10q149 0 246 71t149 216zM407 384l-61 -169q-17 -49 -32 -68t-29 -19q-13 0 -21.5 6.5t-8.5 23.5q0 15 6 40.5t15.5 54t22 57.5t25.5 52.5t25.5 38.5t23.5 15q14 0 23 -7.5t11 -24.5z" />
    <glyph glyph-name="h" unicode="h" horiz-adv-x="720" 
d="M736 170h-89q-8 -24 -15 -39t-14 -23t-13.5 -10.5t-14.5 -2.5q-7 0 -9 6.5t-1 17t5 23.5t9 26l45 124q25 66 25 119q0 65 -35 97.5t-94 32.5q-42 0 -83.5 -27t-72.5 -71l114 310h-354l-47 -129h111l-227 -624h242l115 315q8 24 16.5 39t17.5 23t17.5 10.5t16.5 2.5
q31 0 5 -73l-48 -133q-11 -33 -13 -65q0 -57 39.5 -93.5t111.5 -36.5q52 0 91 11t68 33t48.5 56t32.5 81z" />
    <glyph glyph-name="i" unicode="i" horiz-adv-x="426" 
d="M454 687q0 22 -8.5 42t-23 35t-34.5 23.5t-42 8.5q-23 0 -42.5 -8.5t-34.5 -23.5t-23.5 -35t-8.5 -42t8.5 -41.5t23.5 -34.5t34.5 -23.5t42.5 -8.5q22 0 42 8.5t34.5 23.5t23 34.5t8.5 41.5zM428 169h-89q-8 -24 -14.5 -39t-12.5 -22.5t-12.5 -10t-14.5 -2.5
q-16 0 -16 16q0 11 5.5 28t18.5 45l47 105q32 71 32 126q0 61 -34.5 93.5t-88.5 32.5q-79 0 -141 -45.5t-104 -136.5l-19 -44h89q10 24 18.5 39t16 22.5t14.5 10t15 2.5q9 0 9 -12q0 -11 -6 -27t-14 -33l-35 -79q-16 -35 -23 -64t-7 -55q0 -65 40.5 -97.5t102.5 -32.5
q91 0 144.5 43t78.5 137z" />
    <glyph glyph-name="j" unicode="j" horiz-adv-x="415" 
d="M475 687q0 22 -8.5 42t-23 35t-34.5 23.5t-42 8.5q-23 0 -42.5 -8.5t-34.5 -23.5t-23.5 -35t-8.5 -42t8.5 -41.5t23.5 -34.5t34.5 -23.5t42.5 -8.5q22 0 42 8.5t34.5 23.5t23 34.5t8.5 41.5zM397 411q0 60 -35.5 95t-107.5 35q-48 0 -85.5 -15t-66 -40.5t-48 -58.5
t-31.5 -69l-16 -43h89q8 24 15 39t14 22.5t13.5 10t14.5 2.5q6 0 8 -4.5t2 -10.5q0 -11 -4 -26t-10 -31l-113 -315q-32 -93 -59.5 -136.5t-51.5 -43.5q-29 0 -29 29q0 22 -6 42.5t-19 36t-33 24.5t-48 9q-44 0 -71 -30t-27 -75q0 -29 16 -53t44 -41.5t67 -27.5t85 -10
q128 0 222 73.5t145 214.5l105 292q21 58 21 105z" />
    <glyph glyph-name="k" unicode="k" horiz-adv-x="724" 
d="M736 428q0 23 -7 44t-21.5 36.5t-38 25t-56.5 9.5q-36 0 -64.5 -14.5t-52 -36t-43 -46.5t-37.5 -46.5t-35.5 -36t-36.5 -14.5l148 404h-354l-46 -129h110l-227 -624h242l70 192q8 24 16.5 39t17 23t17 10.5t16.5 2.5q17 0 17 -24q0 -9 -4 -23t-9 -30.5t-9 -35t-4 -35.5
q0 -57 39 -93.5t111 -36.5q52 0 91 11t68 33t48.5 56t32.5 81h-89q-8 -24 -15 -39t-14 -23t-13.5 -10.5t-14.5 -2.5q-10 0 -10 14q0 12 3.5 24t8 26t8.5 29.5t4 35.5q0 31 -13.5 52t-36 33t-51.5 17t-60 5q16 3 35 25t38 47t37 45.5t32 20.5q-6 -10 -8 -20t-2 -21
q0 -38 24 -62.5t57 -24.5q17 0 32 7.5t26 20t17 28t6 31.5z" />
    <glyph glyph-name="l" unicode="l" horiz-adv-x="424" 
d="M491 753h-353l-47 -129h110l-160 -440q-6 -18 -9 -32.5t-3 -34.5q0 -57 39.5 -92.5t111.5 -35.5q103 0 158.5 44t80.5 137h-89q-8 -24 -15 -39t-13.5 -23t-13.5 -10.5t-15 -2.5q-10 0 -10 14q0 10 4.5 26t10.5 33z" />
    <glyph glyph-name="m" unicode="m" horiz-adv-x="1094" 
d="M1108 170h-89q-8 -24 -15 -39t-14 -23t-13.5 -10.5t-14.5 -2.5q-7 0 -9 6.5t-1 17t5 23.5t9 26l45 124q22 59 22 108q0 71 -39 106t-101 35q-50 0 -96.5 -27t-81.5 -77q-7 45 -42 74.5t-95 29.5q-57 0 -111.5 -34t-90.5 -96q-1 22 -8.5 45t-24.5 42t-44 31t-66 12
q-69 0 -127 -47t-90 -135l-16 -44h89q8 24 15 39t14 23t13.5 10.5t14.5 2.5q14 0 10 -23t-14 -50l-116 -317h242l115 315q8 24 17 39t18.5 23t18.5 10.5t17 2.5q15 0 19 -19t-9 -54l-116 -317h242l115 315q8 24 16.5 39t17.5 23t17.5 10.5t16.5 2.5q31 0 5 -73l-48 -133
q-12 -35 -12 -65q-1 -57 38.5 -93.5t111.5 -36.5q52 0 91 11t68 33t48.5 56t32.5 81z" />
    <glyph glyph-name="n" unicode="n" horiz-adv-x="771" 
d="M786 170h-89q-8 -24 -15 -39t-14 -23t-13.5 -10.5t-14.5 -2.5q-10 0 -10 15q0 11 4 26t10 32l46 124q21 61 21 108q0 70 -39 105.5t-101 35.5q-57 0 -108 -34t-87 -96q-1 22 -8.5 45t-24.5 42t-44 31t-66 12q-70 0 -128 -47t-90 -135l-15 -44h89q8 24 15 39t14 23
t13.5 10.5t14.5 2.5q14 0 10 -23t-14 -50l-116 -317h242l115 315q8 24 16.5 39t17.5 23t17.5 10.5t16.5 2.5q17 0 17 -25q0 -11 -3 -22t-8 -26l-49 -133q-15 -41 -12 -76.5t21 -61.5t51 -41.5t78 -15.5q103 0 159 44t81 137z" />
    <glyph glyph-name="o" unicode="o" horiz-adv-x="645" 
d="M628 319q0 48 -16.5 88.5t-49.5 70.5t-81.5 46.5t-112.5 16.5q-75 0 -139 -27.5t-110.5 -73.5t-73 -106t-26.5 -124q0 -48 16.5 -88.5t49.5 -70t82 -46t113 -16.5q75 0 138.5 27.5t110 73.5t73 105.5t26.5 123.5zM405 394q0 -11 -6 -37t-16 -59t-23.5 -68.5t-28.5 -65
t-30.5 -48.5t-30.5 -19t-21 9.5t-6 29.5q0 10 6 36.5t16 59t23.5 68t28 65t30 48.5t30.5 19q16 0 22 -9t6 -29z" />
    <glyph glyph-name="p" unicode="p" horiz-adv-x="731" 
d="M712 364q0 48 -10.5 82t-29.5 55t-46 31t-61 10q-57 0 -104 -34.5t-83 -95.5q0 22 -8 45t-25 42t-44 31t-66 12q-69 0 -127 -47.5t-90 -135.5l-16 -43h89q8 24 15 39t14 22.5t13.5 10t14.5 2.5q10 0 10 -13q0 -8 -4 -25t-10 -34l-158 -436h-89l-47 -129h440l47 129h-109
l74 204q13 -97 124 -97q52 0 103.5 34.5t92 89t65.5 121t25 130.5zM475 372q0 -15 -5.5 -40t-15 -54t-22 -58t-25.5 -52.5t-26 -38.5t-23 -15q-14 0 -23 8t-11 25l61 169q17 49 32 68t29 19q13 0 21 -7t8 -24z" />
    <glyph glyph-name="q" unicode="q" horiz-adv-x="643" 
d="M702 531h-130q-9 -26 -22 -44t-33 -18q-19 0 -30.5 5.5t-21 13.5t-19 17.5t-24.5 17.5t-37.5 13.5t-57.5 5.5q-63 0 -119 -34.5t-98 -89t-66.5 -121t-24.5 -130.5q0 -96 39.5 -137t107.5 -41q42 0 78.5 30t62.5 92l-83 -229h-108l-47 -129h441l46 129h-89zM407 384
l-61 -169q-17 -49 -32 -68t-29 -19q-13 0 -21.5 6.5t-8.5 24.5q0 15 6 40t15.5 53.5t22 57.5t25.5 52.5t25.5 38.5t23.5 15q14 0 23 -7.5t11 -24.5z" />
    <glyph glyph-name="r" unicode="r" horiz-adv-x="606" 
d="M667 415q0 25 -9.5 48t-27.5 40.5t-43.5 27.5t-56.5 10q-47 0 -84 -37t-70 -93q-1 22 -8.5 45t-24.5 42t-44 31t-66 12q-69 0 -127 -47t-90 -135l-16 -44h89q8 24 15 39t14 23t13.5 10.5t14.5 2.5q10 0 10 -15q0 -11 -4 -26t-10 -32l-116 -317h242l115 315q8 20 17.5 30
t18.5 10q10 0 14 -8q16 -24 42.5 -41.5t64.5 -17.5q24 0 47 9.5t40.5 26.5t28.5 40.5t11 50.5z" />
    <glyph glyph-name="s" unicode="s" horiz-adv-x="557" 
d="M551 408q0 31 -16.5 56t-45.5 42.5t-69 26.5t-87 9q-66 0 -115.5 -17.5t-82.5 -45.5t-50 -63.5t-17 -70.5q0 -34 14 -59.5t35.5 -45.5t46.5 -35.5t46.5 -29.5t35.5 -27.5t14 -29.5q0 -26 -15 -37.5t-34 -11.5q-16 0 -31.5 4.5t-10.5 17.5q2 5 2.5 12.5t0.5 18.5
q0 30 -24.5 54.5t-63.5 24.5q-35 0 -58.5 -25.5t-23.5 -62.5q0 -62 57 -93t162 -31q134 0 207.5 46.5t73.5 136.5q0 34 -15 60.5t-37.5 47t-49 37t-49 30.5t-37.5 27.5t-15 28.5q0 28 12.5 39.5t41.5 11.5q21 0 33 -6t9 -14q-2 -5 -4 -12t-2 -23q0 -35 26 -55t61 -20
q15 0 28.5 6.5t24 17.5t16.5 26.5t6 33.5z" />
    <glyph glyph-name="t" unicode="t" horiz-adv-x="487" 
d="M558 530h-124l51 140h-160q-12 -33 -34.5 -59t-52.5 -44t-66.5 -27.5t-75.5 -9.5l-55 -150h96l-72 -196q-6 -18 -9 -33t-3 -35q0 -55 40 -91t111 -36q52 0 91 11t68 33t48.5 56t31.5 81h-89q-8 -24 -15 -39t-13.5 -23t-13 -10.5t-14.5 -2.5q-6 0 -8.5 4.5t-2.5 9.5
q0 10 4.5 26t10.5 33l77 212h124z" />
    <glyph glyph-name="u" unicode="u" horiz-adv-x="742" 
d="M751 170h-89q-8 -24 -14.5 -39t-13.5 -23t-13.5 -10.5t-14.5 -2.5q-11 0 -11 15t8 38.5t15 42.5l121 340h-242l-114 -316q-8 -24 -15.5 -39t-14.5 -23t-14 -10.5t-15 -2.5q-10 0 -17 8t-7 23t2.5 22t8.5 20l34 76q16 35 22.5 66.5t6.5 57.5q0 60 -34.5 94t-85.5 34
q-80 0 -141.5 -45t-103.5 -137l-19 -44h89q10 24 18.5 39t15.5 23t14 10.5t15 2.5q7 0 8.5 -6.5t-0.5 -16.5t-7 -23.5t-11 -26.5l-36 -78q-32 -73 -32 -125q0 -63 36 -94t93 -31q48 0 93 25t80 70q10 -42 47.5 -68.5t98.5 -26.5q52 0 91 11t68 33t48.5 56t31.5 81z" />
    <glyph glyph-name="v" unicode="v" horiz-adv-x="680" 
d="M674 364q0 35 -9.5 68t-28.5 58t-46 40t-62 15q-23 0 -42.5 -8.5t-33.5 -22.5t-22 -34t-8 -42q0 -30 10 -49.5t23.5 -31.5t27 -17t19.5 -6q15 -2 26 -7.5t11 -16.5q0 -39 -11.5 -75.5t-33 -64.5t-52.5 -44.5t-71 -16.5q-20 0 -34 16t-14 43q0 22 8 45l49 134q12 36 12 68
q0 55 -42 90.5t-120 35.5q-80 0 -138 -45t-91 -137l-16 -44h89q8 24 15 39t14 23t13.5 10.5t14.5 2.5q14 0 10 -23t-14 -50l-29 -78q-8 -20 -11 -39t-3 -35q0 -45 18 -78t46.5 -54.5t64 -32.5t69.5 -11q78 0 149 30.5t125 82t86 119.5t32 143z" />
    <glyph glyph-name="w" unicode="w" horiz-adv-x="976" 
d="M978 366q0 35 -8 67t-23.5 57t-37.5 39.5t-49 14.5q-20 0 -38.5 -10t-32.5 -25.5t-22 -34t-8 -34.5q0 -28 14 -45.5t31.5 -32.5t31.5 -33t14 -47q0 -33 -15.5 -61.5t-40 -49t-54 -32t-56.5 -11.5q-33 0 -48 14.5t-15 46.5q0 15 4 32t12 38l97 271h-231l-115 -315
q-8 -24 -16 -39t-16 -23t-16 -10.5t-16 -2.5q-11 0 -19.5 9t-8.5 26q0 11 2 19t7 19l34 76q16 35 23 65.5t7 57.5q0 61 -34.5 95t-86.5 34q-79 0 -141 -45t-103 -137l-19 -44h89q10 24 18 39t15.5 23t14.5 10.5t15 2.5q7 0 8.5 -6.5t-1 -16.5t-7.5 -23.5t-11 -26.5l-35 -78
q-16 -35 -23 -65t-7 -54q0 -67 38 -99t97 -32q69 0 130.5 30t106.5 81q18 -52 63.5 -81.5t116.5 -29.5q64 0 129 29.5t117.5 80.5t85.5 120t33 147z" />
    <glyph glyph-name="x" unicode="x" horiz-adv-x="732" 
d="M798 429q0 21 -8.5 41t-23.5 35.5t-36 25.5t-46 10q-63 0 -116.5 -34.5t-87.5 -96.5q-7 29 -24.5 53t-43 41.5t-57 27t-66.5 9.5q-32 0 -66 -13t-65 -37t-56.5 -57.5t-40.5 -74.5l-16 -44h89q7 19 14.5 39t16.5 35.5t21 25.5t27 10q12 0 22 -6t16.5 -26t10 -57.5
t3.5 -100.5q-13 -33 -30 -64t-37 -54t-41.5 -37t-43.5 -14q7 8 12.5 24t5.5 28q0 35 -20 56t-54 21q-18 0 -34 -7.5t-28 -20.5t-19 -30t-7 -36q0 -23 9 -43.5t24.5 -35.5t36 -24t42.5 -9q34 0 64 10.5t55.5 28.5t46.5 42.5t38 52.5q11 -34 31 -59.5t45 -42t53.5 -24.5
t56.5 -8q96 0 155 47.5t82 133.5h-89q-6 -18 -11 -32t-10.5 -23.5t-14 -14.5t-21.5 -5q-22 0 -41.5 47.5t-19.5 140.5q10 36 25 69t34.5 57.5t42.5 39.5t49 15q-7 -8 -11.5 -24t-4.5 -28q0 -35 20 -56t58 -21q39 0 61.5 27.5t22.5 66.5z" />
    <glyph glyph-name="y" unicode="y" horiz-adv-x="741" 
d="M718 403q0 29 -9.5 54.5t-27 44t-41.5 29t-53 10.5q-23 0 -45.5 -9t-40 -24.5t-28 -37.5t-10.5 -48q0 -54 31.5 -83.5t86.5 -37.5q-14 -68 -35.5 -124.5t-63.5 -112.5q0 92 -18.5 178t-51.5 152.5t-78.5 106.5t-99.5 40q-42 0 -76 -14.5t-61 -39.5t-46.5 -58t-32.5 -70
l-15 -44h89q13 30 25.5 45.5t30.5 15.5q16 0 34.5 -24t36.5 -64t34 -91.5t28 -105.5t19.5 -107.5t7.5 -96.5q-10 -14 -29.5 -25.5t-64.5 -11.5q-29 0 -41.5 10t-12.5 31q0 42 -27 71t-78 29q-43 0 -70 -31t-27 -77q0 -60 48.5 -98t140.5 -38q74 0 145 30t134.5 81t117 117.5
t92.5 139.5t60.5 147.5t21.5 140.5z" />
    <glyph glyph-name="z" unicode="z" horiz-adv-x="594" 
d="M610 487l-73 65l-16 -16q-21 -20 -49.5 -34.5t-79.5 -14.5q-43 0 -107 12.5t-161 41.5l-103 -253l78 -27l31 79q17 -8 38 -14.5t47 -6.5q17 0 36 2.5t41 8.5l-328 -266l75 -78q22 26 49 41.5t57 15.5q25 0 53 -8.5t57.5 -18.5t61.5 -18.5t67 -8.5q95 0 151 50.5t56 143.5
q0 27 -9 49.5t-25 39t-39.5 26t-51.5 9.5q-34 0 -57 -21t-23 -48q0 -29 16 -45.5t45 -16.5q16 0 24 4t19 4q20 0 27 -6.5t7 -26.5q0 -17 -11.5 -29t-34.5 -12q-20 0 -43.5 13.5t-51 30t-59 30.5t-65.5 14q-6 0 -11.5 -0.5t-12.5 -4.5z" />
    <glyph glyph-name="braceleft" unicode="{" horiz-adv-x="445" 
d="M618 754q-26 8 -59 13.5t-73 5.5q-60 0 -113.5 -22.5t-94.5 -59.5t-65 -84.5t-24 -97.5q0 -24 4 -45.5t9 -39.5t9 -33t4 -27q0 -23 -20.5 -30t-72.5 -7l-40 -110q46 0 60 -5t14 -13q0 -17 -14 -34.5t-34.5 -38t-44.5 -44t-44.5 -51t-34.5 -61t-14 -72.5q0 -26 9.5 -49
t28 -40.5t47 -27.5t66.5 -10q41 0 77.5 5.5t68.5 13.5l38 105h-24q-14 0 -21.5 8t-7.5 22q0 21 17 52.5t38 66.5t38 70.5t17 62.5q0 38 -15.5 61t-53.5 34q47 11 78 28.5t50.5 45.5t31 68.5t19.5 96.5q11 72 30 105t53 33h25z" />
    <glyph glyph-name="bar" unicode="|" horiz-adv-x="266" 
d="M298 0v754h-219v-754h219z" />
    <glyph glyph-name="braceright" unicode="}" horiz-adv-x="445" 
d="M526 646q0 26 -9.5 49t-28 40.5t-47 27.5t-66.5 10q-41 0 -77.5 -5.5t-68.5 -13.5l-38 -105h24q14 0 21.5 -8t7.5 -22q0 -21 -17 -52.5t-38 -67t-38 -70.5t-17 -62q0 -38 15.5 -61t53.5 -34q-47 -11 -78 -28.5t-50.5 -45.5t-31 -68.5t-19.5 -96.5q-11 -72 -30 -105
t-53 -33h-25l-38 -105q26 -8 59 -13.5t73 -5.5q60 0 113.5 22.5t94.5 59.5t65 84.5t24 97.5q0 24 -4 45.5t-9 39.5t-9 33t-4 27q0 23 20.5 30t72.5 7l40 110q-46 0 -60 5t-14 13q0 17 14 34.5t34.5 38t44.5 44t44.5 51t34.5 61t14 72.5z" />
    <glyph glyph-name="asciitilde" unicode="~" horiz-adv-x="455" 
d="M536 460h-71l-17 -32q-13 -22 -40 -22q-15 0 -27 8.5t-27.5 18.5t-37.5 18.5t-57 8.5q-60 0 -110 -41.5t-82 -126.5h71l19 32q6 9 16 15.5t28 6.5q15 0 26.5 -8.5t27 -18.5t37.5 -18.5t58 -8.5q59 0 109.5 41t76.5 127z" />
    <glyph glyph-name="nonbreakingspace" unicode="&#xa0;" horiz-adv-x="120" 
 />
    <glyph glyph-name="exclamdown" unicode="&#xa1;" horiz-adv-x="394" 
d="M383 432q0 22 -8.5 42t-23.5 35t-35 23.5t-42 8.5q-23 0 -42.5 -8.5t-34 -23.5t-23 -35t-8.5 -42t8.5 -41.5t23 -34.5t34 -23.5t42.5 -8.5q22 0 42 8.5t35 23.5t23.5 34.5t8.5 41.5zM253 258l-64 21q-24 -68 -60 -123.5t-69.5 -104.5t-57.5 -94.5t-24 -92.5
q0 -25 10.5 -45t27.5 -34.5t39 -22t45 -7.5q27 0 54 15t41 46q22 43 26.5 91.5t5 103.5t3.5 116.5t23 130.5z" />
    <glyph glyph-name="cent" unicode="&#xa2;" horiz-adv-x="579" 
d="M584 387q0 45 -31.5 82t-87.5 57l37 100h-130l-31 -85q-80 -4 -140 -36t-100.5 -80t-61 -104.5t-20.5 -110.5q0 -35 10.5 -67.5t31.5 -59.5t52 -47.5t71 -32.5l-34 -92h130l29 80q54 4 98 22t76.5 46t53 64t27.5 77l-88 6q-6 -24 -20.5 -45.5t-34 -37.5t-42.5 -25.5
t-46 -9.5q-47 0 -64.5 19.5t-17.5 57.5q0 37 12 85.5t32.5 91.5t46.5 72.5t54 29.5q14 0 23.5 -7t9.5 -21q0 -8 -3 -12.5t-7 -10t-7 -14t-3 -23.5q0 -25 23 -46t61 -21q43 0 67 26.5t24 71.5z" />
    <glyph glyph-name="sterling" unicode="&#xa3;" horiz-adv-x="763" 
d="M829 582q0 39 -16 73.5t-47.5 61t-80 42t-112.5 15.5q-71 0 -133 -17.5t-108 -49.5t-72.5 -76t-26.5 -96q0 -45 16.5 -84t39.5 -74h-146l-29 -78h193q-2 -30 -13 -46.5t-21 -29.5q-19 2 -39 4.5t-53 2.5q-38 0 -70.5 -10.5t-56.5 -28.5t-37.5 -42t-13.5 -51t9.5 -49
t26.5 -37t39 -23t48 -8q48 0 89.5 18t74.5 56q31 -16 58 -29.5t57 -23.5t65 -15.5t82 -5.5q100 0 152 46.5t52 136.5q0 19 -4.5 34t-10.5 32h-70q5 -30 -8.5 -50.5t-43.5 -20.5q-32 0 -75 12t-82 28q11 13 29.5 39t30.5 61h124l29 78h-144q-2 26 -6 45.5t-9 37t-8.5 35.5
t-3.5 41q0 42 25 63.5t71 21.5q14 0 26.5 -2t20.5 -6t9.5 -9.5t-6.5 -12.5q-11 -10 -22 -28.5t-11 -43.5q0 -35 28 -55t70 -20q27 0 48 11t35.5 30t22.5 44t8 53zM215 107q-11 -16 -27.5 -28t-33.5 -12q-22 0 -33 6.5t-11 23.5q0 11 13.5 19t33.5 8q17 0 31.5 -4.5
t26.5 -12.5z" />
    <glyph glyph-name="yen" unicode="&#xa5;" horiz-adv-x="812" 
d="M985 754h-332l-70 -194h44l-116 -127l-24 127h45l70 194h-404l-70 -194h82l29 -105h-100l-29 -78h151l14 -51h-183l-29 -79h199l-19 -54h-82l-70 -193h480l70 193h-98l20 54h224l28 79h-206l52 51h173l28 78h-121l108 105h66z" />
    <glyph glyph-name="section" unicode="&#xa7;" horiz-adv-x="683" 
d="M719 582q0 42 -22.5 77t-60.5 60.5t-88.5 39.5t-106.5 14q-72 0 -129 -19.5t-96.5 -51.5t-60 -74t-20.5 -87q0 -15 2.5 -31t7 -31t10 -27.5t12.5 -20.5q-39 -23 -62.5 -64t-23.5 -86q0 -55 20 -93t50 -65t64.5 -46.5t64.5 -36.5t50 -34.5t20 -41.5q0 -27 -20.5 -41.5
t-55.5 -14.5t-56.5 10.5t-17.5 30.5q1 6 1.5 10.5t0.5 12.5q0 20 -7.5 38.5t-20.5 32.5t-30.5 22t-37.5 8q-45 0 -75.5 -29.5t-30.5 -81.5q0 -42 24.5 -77t65 -60.5t93 -39.5t109.5 -14q73 0 133.5 19.5t104 53t67 78t23.5 95.5q0 25 -8.5 51t-25.5 44q39 27 63.5 65.5
t24.5 86.5q0 56 -21 95t-53 66.5t-68.5 46.5t-68.5 35.5t-53 33t-21 39.5q0 58 83 58q35 0 56.5 -12.5t16.5 -26.5q-5 -15 -5 -29q0 -20 7.5 -36.5t20.5 -28t28.5 -18t32.5 -6.5q36 0 63 23t27 78zM469 192q-49 23 -88.5 43.5t-65 39.5t-36 37.5t-1.5 37.5q49 -23 89 -43
t65.5 -39t35.5 -38t1 -38z" />
    <glyph glyph-name="dieresis" unicode="&#xa8;" horiz-adv-x="525" 
d="M663 695q0 22 -8.5 42t-23.5 35t-35 23.5t-42 8.5t-41.5 -8.5t-34.5 -23.5t-23.5 -35t-8.5 -42q0 -23 8.5 -42.5t23.5 -34t34.5 -23t41.5 -8.5t42 8.5t35 23t23.5 34t8.5 42.5zM403 695q0 22 -8.5 42t-23.5 35t-35 23.5t-42 8.5q-23 0 -42.5 -8.5t-34 -23.5t-23 -35
t-8.5 -42q0 -23 8.5 -42.5t23 -34t34 -23t42.5 -8.5q22 0 42 8.5t35 23t23.5 34t8.5 42.5z" />
    <glyph glyph-name="copyright" unicode="&#xa9;" horiz-adv-x="892" 
d="M919 377q0 83 -30 155.5t-84 126t-128.5 84t-163.5 30.5t-163.5 -30.5t-128 -84t-83.5 -126t-30 -155.5t30 -155.5t83.5 -126t128 -84t163.5 -30.5t163.5 30.5t128.5 84t84 126t30 155.5zM859 377q0 -71 -25 -133t-71 -107.5t-109.5 -71.5t-140.5 -26t-140 26t-109 71.5
t-71 107.5t-25 133t25 132.5t71 107t109 71.5t140 26t140.5 -26t109.5 -71.5t71 -107t25 -132.5zM708 348h-116v-7q0 -36 -17.5 -60t-46.5 -24t-46 24t-17 60v57q0 35 17 59t46 24t46.5 -24t17.5 -59v-5h116v179h-126v-41q-15 26 -40.5 38.5t-59.5 12.5q-24 0 -55.5 -13
t-59.5 -39t-47.5 -66.5t-19.5 -94.5q0 -50 17 -89t46 -67t67.5 -42.5t82.5 -14.5q42 0 78 13t62 38t40.5 60.5t14.5 80.5z" />
    <glyph glyph-name="ordfeminine" unicode="&#xaa;" horiz-adv-x="546" 
d="M690 481h-70q-12 -38 -21.5 -48t-22.5 -10q-11 0 -8 18t11 39l102 285h-190l-24 -68q-9 76 -97 76q-41 0 -81 -27t-72 -69.5t-51.5 -95t-19.5 -102.5q0 -75 30.5 -107.5t84.5 -32.5q45 0 81.5 27.5t65.5 75.5q0 -17 6 -35.5t18.5 -33.5t33.5 -24.5t51 -9.5q70 0 112.5 36
t60.5 106zM450 650l-48 -133q-13 -38 -24.5 -53.5t-22.5 -15.5t-17.5 5.5t-6.5 19.5q0 18 10 52t24 67t30 58t28 25q11 0 18.5 -6t8.5 -19z" />
    <glyph glyph-name="guillemotleft" unicode="&#xab;" horiz-adv-x="790" 
d="M847 531h-106q-14 -29 -47 -65t-75 -69t-88.5 -56t-89.5 -25l-37 -102q39 -6 70 -26.5t52 -50.5t32.5 -65.5t11.5 -71.5h92q13 36 16.5 75t-0.5 75t-14.5 66.5t-25.5 48.5q36 16 68 46.5t59 67.5t48 77t34 75zM498 531h-106q-14 -29 -47 -65t-75 -69t-88.5 -56t-89.5 -25
l-37 -102q39 -6 70 -26.5t52 -50.5t32.5 -65.5t11.5 -71.5h92q13 36 16.5 75t-0.5 75t-14.5 66.5t-25.5 48.5q36 16 68 46.5t59 67.5t48 77t34 75z" />
    <glyph glyph-name="registered" unicode="&#xae;" horiz-adv-x="892" 
d="M919 377q0 83 -30 155.5t-84 126t-128.5 84t-163.5 30.5t-163.5 -30.5t-128 -84t-83.5 -126t-30 -155.5t30 -155.5t83.5 -126t128 -84t163.5 -30.5t163.5 30.5t128.5 84t84 126t30 155.5zM859 377q0 -71 -25 -133t-71 -107.5t-109.5 -71.5t-140.5 -26t-140 26t-109 71.5
t-71 107.5t-25 133t25 132.5t71 107t109 71.5t140 26t140.5 -26t109.5 -71.5t71 -107t25 -132.5zM788 252v45h-46v-19q0 -17 -16 -17t-16 17q0 37 -21 64t-63 33q50 14 77 37t27 63q0 47 -38.5 75.5t-104.5 28.5h-297v-104h54v-197h-54v-104h238v104h-43v67h25q10 0 19 -3
t16 -11.5t11 -23.5t4 -40q0 -23 9 -42t23.5 -32.5t33 -21t38.5 -7.5q25 0 47.5 5.5t39.5 16.5t27 27.5t10 38.5zM577 442q0 -14 -9 -24t-30 -10h-53v67h53q21 0 30 -9.5t9 -23.5z" />
    <glyph glyph-name="macron" unicode="&#xaf;" horiz-adv-x="485" 
d="M633 743h-400l-41 -112h400z" />
    <glyph glyph-name="macron" unicode="&#x2c9;" horiz-adv-x="485" 
d="M633 743h-400l-41 -112h400z" />
    <glyph glyph-name="degree" unicode="&#xb0;" horiz-adv-x="406" 
d="M511 651q0 52 -35 87t-96 35q-45 0 -81 -17t-62 -44.5t-40 -62t-14 -69.5q0 -52 35 -87t96 -35q45 0 81 17t62 45t40 62t14 69zM421 644q0 -19 -7.5 -39t-20.5 -36.5t-30 -27t-35 -10.5q-27 0 -40.5 16.5t-13.5 39.5t9 44t22.5 36.5t30.5 24.5t34 9q24 0 37.5 -17.5
t13.5 -39.5z" />
    <glyph glyph-name="acute" unicode="&#xb4;" horiz-adv-x="348" 
d="M491 725q0 19 -7.5 35.5t-20 29t-28 19.5t-31.5 7q-31 0 -56 -24q-13 -12 -34.5 -36.5t-45 -51.5t-45 -53t-34.5 -41.5t-14 -16.5l19 -27q2 1 21 7t51 16.5t65.5 22.5t64 23t46.5 18q26 13 37.5 31t11.5 41z" />
    <glyph glyph-name="paragraph" unicode="&#xb6;" horiz-adv-x="832" 
d="M988 754h-529q-82 0 -144 -19.5t-104 -55t-63 -84.5t-21 -108q0 -46 17.5 -84t48.5 -65t73 -42t90 -15h83l-32 -88h-81l-70 -193h474l70 193h-92l133 367h76z" />
    <glyph glyph-name="periodcentered" unicode="&#xb7;" horiz-adv-x="452" 
d="M307 376q0 22 -8.5 42t-23 35t-34.5 23.5t-42 8.5q-23 0 -42.5 -8.5t-34.5 -23.5t-23.5 -35t-8.5 -42t8.5 -41.5t23.5 -34.5t34.5 -23.5t42.5 -8.5q22 0 42 8.5t34.5 23.5t23 34.5t8.5 41.5z" />
    <glyph glyph-name="cedilla" unicode="&#xb8;" horiz-adv-x="351" 
d="M239 -149q0 42 -25.5 69.5t-69.5 27.5q-33 0 -54 -12l93 84l-38 43l-155 -140l38 -42q12 10 22 15t22 5q20 0 32 -13.5t12 -46.5q0 -36 -22 -56t-52 -20q-25 0 -30 8t-5 20q0 8 6 14t6 17q0 14 -11 24.5t-30 10.5q-23 0 -38.5 -16.5t-15.5 -41.5q0 -37 31 -64t90 -27
q39 0 74 11t61.5 30t42.5 45t16 55z" />
    <glyph glyph-name="ordmasculine" unicode="&#xba;" horiz-adv-x="506" 
d="M624 598q0 38 -13 70t-38.5 55.5t-64 36.5t-88.5 13q-59 0 -109.5 -22t-87 -58t-57 -83t-20.5 -97q0 -38 13 -70t39 -55t64.5 -36t88.5 -13q59 0 109 21.5t86.5 57.5t57 83t20.5 97zM449 657q0 -8 -4.5 -28.5t-12.5 -46.5t-18.5 -54t-22.5 -51t-24 -38t-24 -15t-16.5 7.5
t-4.5 23.5q0 8 4.5 28.5t12.5 46.5t18.5 53.5t22 50.5t23.5 38t24 15q22 0 22 -30z" />
    <glyph glyph-name="guillemotright" unicode="&#xbb;" horiz-adv-x="790" 
d="M745 316q-39 6 -70 27t-52 51t-32.5 65.5t-11.5 71.5h-92q-13 -36 -16.5 -75.5t0.5 -75.5t14.5 -66t25.5 -49q-36 -16 -68 -46.5t-59 -67.5t-48 -76.5t-34 -74.5h105q15 28 47.5 64.5t74.5 69t89 55.5t90 25zM396 316q-39 6 -70 27t-52 51t-32.5 65.5t-11.5 71.5h-92
q-13 -36 -16.5 -75.5t0.5 -75.5t14.5 -66t25.5 -49q-36 -16 -68 -46.5t-59 -67.5t-48 -76.5t-34 -74.5h105q15 28 47.5 64.5t74.5 69t89 55.5t90 25z" />
    <glyph glyph-name="questiondown" unicode="&#xbf;" horiz-adv-x="574" 
d="M503 433q0 22 -8.5 42t-23.5 34.5t-34.5 23t-41.5 8.5q-23 0 -42.5 -8.5t-34.5 -23t-23.5 -34.5t-8.5 -42q0 -23 8.5 -42.5t23.5 -34.5t34.5 -23.5t42.5 -8.5q22 0 41.5 8.5t34.5 23.5t23.5 34.5t8.5 42.5zM508 -64q0 16 -7 31t-19.5 26.5t-29 18t-34.5 6.5
q-17 0 -34 -6.5t-31.5 -18t-23.5 -26t-9 -30.5q0 -7 1.5 -16t4.5 -17t-5 -13.5t-21 -9.5t-28.5 -5.5t-27.5 -1.5q-32 0 -51 12t-19 38q0 22 22.5 36.5t56 27t73 26t73 33.5t56 49t22.5 73q0 63 -42 94.5t-133 31.5q-27 0 -55 -4t-51.5 -10t-41.5 -13t-25 -13l6 -14.5
t11 -27.5t6 -15q17 10 39 16.5t34 6.5q18 0 25 -4t7 -15q0 -12 -24.5 -22t-62 -23t-80.5 -29.5t-80.5 -40.5t-62 -57t-24.5 -78t22 -81t62 -61.5t94.5 -39t119.5 -13.5q51 0 102 11.5t92 34t67 56t26 77.5z" />
    <glyph glyph-name="Agrave" unicode="&#xc0;" horiz-adv-x="881" 
d="M887 193h-88v561h-315l-408 -561h-66l-71 -193h357l70 193h-61l38 57h165l-2 -57h-89l-70 -193h469zM527 529l-12 -169h-100zM779 821q-1 1 -14 16.5t-35 41.5t-45 53t-45 51.5t-34 36.5q-25 24 -56 24q-16 0 -31.5 -7t-28 -19.5t-20 -29t-7.5 -35.5q0 -23 11.5 -41
t37.5 -31q16 -7 46.5 -18t64 -23t65.5 -22.5t51 -16.5t21 -7z" />
    <glyph glyph-name="Aacute" unicode="&#xc1;" horiz-adv-x="881" 
d="M887 193h-88v561h-315l-408 -561h-66l-71 -193h357l70 193h-61l38 57h165l-2 -57h-89l-70 -193h469zM527 529l-12 -169h-100zM835 953q0 19 -7.5 35.5t-20 29t-28 19.5t-31.5 7q-31 0 -56 -24q-13 -12 -34.5 -36.5t-45 -51.5t-45 -53t-34.5 -41.5t-14 -16.5l19 -27
q2 1 21 7t51 16.5t65.5 22.5t64 23t46.5 18q26 13 37.5 31t11.5 41z" />
    <glyph glyph-name="Acircumflex" unicode="&#xc2;" horiz-adv-x="881" 
d="M887 193h-88v561h-315l-408 -561h-66l-71 -193h357l70 193h-61l38 57h165l-2 -57h-89l-70 -193h469zM527 529l-12 -169h-100zM827 795l-29 172h-186l-155 -172h125l101 90l19 -90h125z" />
    <glyph glyph-name="Atilde" unicode="&#xc3;" horiz-adv-x="881" 
d="M887 193h-88v561h-315l-408 -561h-66l-71 -193h357l70 193h-61l38 57h165l-2 -57h-89l-70 -193h469zM527 529l-12 -169h-100zM885 967h-71l-17 -32q-13 -22 -40 -22q-15 0 -27 8.5t-27.5 18.5t-37.5 18.5t-57 8.5q-60 0 -110 -41.5t-82 -126.5h71l19 32q6 9 16 15.5
t28 6.5q15 0 26.5 -8.5t27 -18.5t37.5 -18.5t58 -8.5q59 0 109.5 41t76.5 127z" />
    <glyph glyph-name="Adieresis" unicode="&#xc4;" horiz-adv-x="881" 
d="M887 193h-88v561h-315l-408 -561h-66l-71 -193h357l70 193h-61l38 57h165l-2 -57h-89l-70 -193h469zM527 529l-12 -169h-100zM893 908q0 22 -8.5 42t-23.5 35t-35 23.5t-42 8.5t-41.5 -8.5t-34.5 -23.5t-23.5 -35t-8.5 -42q0 -23 8.5 -42.5t23.5 -34t34.5 -23t41.5 -8.5
t42 8.5t35 23t23.5 34t8.5 42.5zM633 908q0 22 -8.5 42t-23.5 35t-35 23.5t-42 8.5q-23 0 -42.5 -8.5t-34 -23.5t-23 -35t-8.5 -42q0 -23 8.5 -42.5t23 -34t34 -23t42.5 -8.5q22 0 42 8.5t35 23t23.5 34t8.5 42.5z" />
    <glyph glyph-name="Aring" unicode="&#xc5;" horiz-adv-x="881" 
d="M887 193h-88v561h-24q26 28 39.5 61.5t13.5 68.5q0 52 -35 87t-96 35q-45 0 -81 -17t-62 -44.5t-40 -62t-14 -69.5q0 -33 14 -59h-30l-408 -561h-66l-71 -193h357l70 193h-61l38 57h165l-2 -57h-89l-70 -193h469zM731 874q0 -17 -7 -35t-18.5 -32.5t-27 -24t-31.5 -9.5
q-24 0 -36.5 14.5t-12.5 35.5t8 39.5t21 32.5t28 22t30 8q22 0 34 -15.5t12 -35.5zM527 529l-12 -169h-100z" />
    <glyph glyph-name="AE" unicode="&#xc6;" horiz-adv-x="1284" 
d="M1455 754h-1025l-71 -194h88l-358 -367h-79l-71 -193h381l70 193h-61l51 57h168l-20 -57h-82l-70 -193h805l128 351h-235l-57 -158h-189l42 114h137l51 139h-138l42 114h188l-57 -158h234zM663 564l-64 -174h-93z" />
    <glyph glyph-name="Ccedilla" unicode="&#xc7;" horiz-adv-x="841" 
d="M1008 754h-235l-30 -84q-8 21 -26.5 40t-45 33t-58.5 22t-66 8q-101 0 -186 -42t-147 -110t-96.5 -154t-34.5 -174q0 -53 17 -103t50 -92t82 -71.5t113 -39.5l-11 -10t-24 -22t-24 -22l-11 -10l38 -42q12 10 22 15t22 5q20 0 32 -13.5t12 -46.5q0 -36 -22 -56t-52 -20
q-25 0 -30 8t-5 20q0 8 6 14t6 17q0 14 -11 24.5t-30 10.5q-23 0 -38.5 -16.5t-15.5 -41.5q0 -37 31 -64t90 -27q39 0 74 11t61.5 30t42.5 45t16 55q0 42 -25.5 69.5t-69.5 27.5q-33 0 -54 -12l50 45q74 1 139.5 22t119.5 61t94 99t63 137h-223q-9 -27 -22.5 -53t-31.5 -46
t-39.5 -32.5t-46.5 -12.5q-43 0 -69 31.5t-26 88.5q0 56 16.5 114.5t44.5 106t65 78t77 30.5q26 0 44.5 -16t27 -43.5t6 -64.5t-17.5 -79h234z" />
    <glyph glyph-name="Egrave" unicode="&#xc8;" horiz-adv-x="867" 
d="M1038 754h-816l-70 -194h92l-133 -367h-82l-70 -193h805l128 351h-235l-57 -158h-189l42 114h137l51 139h-137l41 114h188l-57 -158h234zM756 821q-1 1 -14 16.5t-35 41.5t-45 53t-45 51.5t-34 36.5q-25 24 -56 24q-16 0 -31.5 -7t-28 -19.5t-20 -29t-7.5 -35.5
q0 -23 11.5 -41t37.5 -31q16 -7 46.5 -18t64 -23t65.5 -22.5t51 -16.5t21 -7z" />
    <glyph glyph-name="Eacute" unicode="&#xc9;" horiz-adv-x="867" 
d="M1038 754h-816l-70 -194h92l-133 -367h-82l-70 -193h805l128 351h-235l-57 -158h-189l42 114h137l51 139h-137l41 114h188l-57 -158h234zM815 953q0 19 -7.5 35.5t-20 29t-28 19.5t-31.5 7q-31 0 -56 -24q-13 -12 -34.5 -36.5t-45 -51.5t-45 -53t-34.5 -41.5t-14 -16.5
l19 -27q2 1 21 7t51 16.5t65.5 22.5t64 23t46.5 18q26 13 37.5 31t11.5 41z" />
    <glyph glyph-name="Ecircumflex" unicode="&#xca;" horiz-adv-x="867" 
d="M1038 754h-816l-70 -194h92l-133 -367h-82l-70 -193h805l128 351h-235l-57 -158h-189l42 114h137l51 139h-137l41 114h188l-57 -158h234zM807 795l-29 172h-186l-155 -172h125l101 90l19 -90h125z" />
    <glyph glyph-name="Edieresis" unicode="&#xcb;" horiz-adv-x="867" 
d="M1038 754h-816l-70 -194h92l-133 -367h-82l-70 -193h805l128 351h-235l-57 -158h-189l42 114h137l51 139h-137l41 114h188l-57 -158h234zM877 908q0 22 -8.5 42t-23.5 35t-35 23.5t-42 8.5t-41.5 -8.5t-34.5 -23.5t-23.5 -35t-8.5 -42q0 -23 8.5 -42.5t23.5 -34t34.5 -23
t41.5 -8.5t42 8.5t35 23t23.5 34t8.5 42.5zM617 908q0 22 -8.5 42t-23.5 35t-35 23.5t-42 8.5q-23 0 -42.5 -8.5t-34 -23.5t-23 -35t-8.5 -42q0 -23 8.5 -42.5t23 -34t34 -23t42.5 -8.5q22 0 42 8.5t35 23t23.5 34t8.5 42.5z" />
    <glyph glyph-name="Igrave" unicode="&#xcc;" horiz-adv-x="535" 
d="M691 754h-469l-70 -194h92l-133 -367h-82l-70 -193h474l70 193h-92l134 367h76zM570 821q-1 1 -14 16.5t-35 41.5t-45 53t-45 51.5t-34 36.5q-25 24 -56 24q-16 0 -31.5 -7t-28 -19.5t-20 -29t-7.5 -35.5q0 -23 11.5 -41t37.5 -31q16 -7 46.5 -18t64 -23t65.5 -22.5
t51 -16.5t21 -7z" />
    <glyph glyph-name="Iacute" unicode="&#xcd;" horiz-adv-x="535" 
d="M691 754h-469l-70 -194h92l-133 -367h-82l-70 -193h474l70 193h-92l134 367h76zM668 953q0 19 -7.5 35.5t-20 29t-28 19.5t-31.5 7q-31 0 -56 -24q-13 -12 -34.5 -36.5t-45 -51.5t-45 -53t-34.5 -41.5t-14 -16.5l19 -27q2 1 21 7t51 16.5t65.5 22.5t64 23t46.5 18
q26 13 37.5 31t11.5 41z" />
    <glyph glyph-name="Icircumflex" unicode="&#xce;" horiz-adv-x="535" 
d="M691 754h-469l-70 -194h92l-133 -367h-82l-70 -193h474l70 193h-92l134 367h76zM653 795l-29 172h-186l-155 -172h125l101 90l19 -90h125z" />
    <glyph glyph-name="Idieresis" unicode="&#xcf;" horiz-adv-x="535" 
d="M691 754h-469l-70 -194h92l-133 -367h-82l-70 -193h474l70 193h-92l134 367h76zM724 908q0 22 -8.5 42t-23.5 35t-35 23.5t-42 8.5t-41.5 -8.5t-34.5 -23.5t-23.5 -35t-8.5 -42q0 -23 8.5 -42.5t23.5 -34t34.5 -23t41.5 -8.5t42 8.5t35 23t23.5 34t8.5 42.5zM464 908
q0 22 -8.5 42t-23.5 35t-35 23.5t-42 8.5q-23 0 -42.5 -8.5t-34 -23.5t-23 -35t-8.5 -42q0 -23 8.5 -42.5t23 -34t34 -23t42.5 -8.5q22 0 42 8.5t35 23t23.5 34t8.5 42.5z" />
    <glyph glyph-name="Ntilde" unicode="&#xd1;" horiz-adv-x="954" 
d="M1133 754h-366l-71 -194h82l-79 -219l-136 413h-341l-70 -194h92l-133 -367h-82l-70 -193h372l70 193h-81l79 219l136 -412h248l204 560h76zM921 967h-71l-17 -32q-13 -22 -40 -22q-15 0 -27 8.5t-27.5 18.5t-37.5 18.5t-57 8.5q-60 0 -110 -41.5t-82 -126.5h71l19 32
q6 9 16 15.5t28 6.5q15 0 26.5 -8.5t27 -18.5t37.5 -18.5t58 -8.5q59 0 109.5 41t76.5 127z" />
    <glyph glyph-name="Ograve" unicode="&#xd2;" 
d="M902 464q0 66 -22.5 122.5t-65 98t-103 65t-136.5 23.5q-113 0 -205 -43t-156.5 -112t-99.5 -155.5t-35 -173.5q0 -66 22.5 -122t65 -97.5t103 -65t136.5 -23.5q113 0 205 43t156.5 112t99.5 155t35 173zM615 531q0 -28 -13 -75.5t-43 -121.5q-14 -32 -29.5 -62t-33 -53
t-37 -37t-39.5 -14q-24 0 -39 12t-15 42q0 29 13 76t44 121q13 32 28.5 62t33.5 53.5t37 37.5t40 14q24 0 38.5 -12.5t14.5 -42.5zM736 821q-1 1 -14 16.5t-35 41.5t-45 53t-45 51.5t-34 36.5q-25 24 -56 24q-16 0 -31.5 -7t-28 -19.5t-20 -29t-7.5 -35.5q0 -23 11.5 -41
t37.5 -31q16 -7 46.5 -18t64 -23t65.5 -22.5t51 -16.5t21 -7z" />
    <glyph glyph-name="Oacute" unicode="&#xd3;" 
d="M902 464q0 66 -22.5 122.5t-65 98t-103 65t-136.5 23.5q-113 0 -205 -43t-156.5 -112t-99.5 -155.5t-35 -173.5q0 -66 22.5 -122t65 -97.5t103 -65t136.5 -23.5q113 0 205 43t156.5 112t99.5 155t35 173zM615 531q0 -28 -13 -75.5t-43 -121.5q-14 -32 -29.5 -62t-33 -53
t-37 -37t-39.5 -14q-24 0 -39 12t-15 42q0 29 13 76t44 121q13 32 28.5 62t33.5 53.5t37 37.5t40 14q24 0 38.5 -12.5t14.5 -42.5zM803 953q0 19 -7.5 35.5t-20 29t-28 19.5t-31.5 7q-31 0 -56 -24q-13 -12 -34.5 -36.5t-45 -51.5t-45 -53t-34.5 -41.5t-14 -16.5l19 -27
q2 1 21 7t51 16.5t65.5 22.5t64 23t46.5 18q26 13 37.5 31t11.5 41z" />
    <glyph glyph-name="Ocircumflex" unicode="&#xd4;" 
d="M902 464q0 66 -22.5 122.5t-65 98t-103 65t-136.5 23.5q-113 0 -205 -43t-156.5 -112t-99.5 -155.5t-35 -173.5q0 -66 22.5 -122t65 -97.5t103 -65t136.5 -23.5q113 0 205 43t156.5 112t99.5 155t35 173zM615 531q0 -28 -13 -75.5t-43 -121.5q-14 -32 -29.5 -62t-33 -53
t-37 -37t-39.5 -14q-24 0 -39 12t-15 42q0 29 13 76t44 121q13 32 28.5 62t33.5 53.5t37 37.5t40 14q24 0 38.5 -12.5t14.5 -42.5zM799 795l-29 172h-186l-155 -172h125l101 90l19 -90h125z" />
    <glyph glyph-name="Otilde" unicode="&#xd5;" 
d="M902 464q0 66 -22.5 122.5t-65 98t-103 65t-136.5 23.5q-113 0 -205 -43t-156.5 -112t-99.5 -155.5t-35 -173.5q0 -66 22.5 -122t65 -97.5t103 -65t136.5 -23.5q113 0 205 43t156.5 112t99.5 155t35 173zM615 531q0 -28 -13 -75.5t-43 -121.5q-14 -32 -29.5 -62t-33 -53
t-37 -37t-39.5 -14q-24 0 -39 12t-15 42q0 29 13 76t44 121q13 32 28.5 62t33.5 53.5t37 37.5t40 14q24 0 38.5 -12.5t14.5 -42.5zM873 967h-71l-17 -32q-13 -22 -40 -22q-15 0 -27 8.5t-27.5 18.5t-37.5 18.5t-57 8.5q-60 0 -110 -41.5t-82 -126.5h71l19 32q6 9 16 15.5
t28 6.5q15 0 26.5 -8.5t27 -18.5t37.5 -18.5t58 -8.5q59 0 109.5 41t76.5 127z" />
    <glyph glyph-name="Odieresis" unicode="&#xd6;" 
d="M902 464q0 66 -22.5 122.5t-65 98t-103 65t-136.5 23.5q-113 0 -205 -43t-156.5 -112t-99.5 -155.5t-35 -173.5q0 -66 22.5 -122t65 -97.5t103 -65t136.5 -23.5q113 0 205 43t156.5 112t99.5 155t35 173zM615 531q0 -28 -13 -75.5t-43 -121.5q-14 -32 -29.5 -62t-33 -53
t-37 -37t-39.5 -14q-24 0 -39 12t-15 42q0 29 13 76t44 121q13 32 28.5 62t33.5 53.5t37 37.5t40 14q24 0 38.5 -12.5t14.5 -42.5zM836 908q0 22 -8.5 42t-23.5 35t-35 23.5t-42 8.5t-41.5 -8.5t-34.5 -23.5t-23.5 -35t-8.5 -42q0 -23 8.5 -42.5t23.5 -34t34.5 -23
t41.5 -8.5t42 8.5t35 23t23.5 34t8.5 42.5zM576 908q0 22 -8.5 42t-23.5 35t-35 23.5t-42 8.5q-23 0 -42.5 -8.5t-34 -23.5t-23 -35t-8.5 -42q0 -23 8.5 -42.5t23 -34t34 -23t42.5 -8.5q22 0 42 8.5t35 23t23.5 34t8.5 42.5z" />
    <glyph glyph-name="Oslash" unicode="&#xd8;" 
d="M960 732l-68 75l-107 -98q-41 30 -93.5 47t-116.5 17q-113 0 -205 -43t-156.5 -112t-99.5 -155.5t-35 -173.5q0 -103 54 -180l-17 -15t-37.5 -34t-37.5 -34.5l-17 -15.5l65 -79l116 107q40 -27 90.5 -42t110.5 -15q113 0 205 43t156.5 112t99.5 155t35 173q0 97 -48 171
l17 15t36.5 33.5t36 33.5zM613 551l-216 -199q5 16 11.5 32.5t14.5 34.5q13 32 28.5 62t33.5 53.5t37 37.5t40 14q20 0 33 -8t18 -27zM577 379q-5 -11 -9 -22t-9 -23q-14 -32 -29.5 -62t-33 -53t-37 -37t-39.5 -14q-35 0 -48 23z" />
    <glyph glyph-name="Ugrave" unicode="&#xd9;" horiz-adv-x="858" 
d="M1053 754h-359l-71 -194h62l-87 -238q-17 -46 -32.5 -74t-32.5 -43.5t-35.5 -21t-40.5 -5.5t-34.5 6t-19 14.5t-8 17t-1.5 14.5q0 11 10 47.5t27 88.5l70 194h72l70 194h-453l-71 -194h82l-82 -234q-19 -51 -19 -103t19.5 -96t57.5 -76.5t94 -51t130 -18.5q154 0 252 71
t143 195l115 313h71zM768 821q-1 1 -14 16.5t-35 41.5t-45 53t-45 51.5t-34 36.5q-25 24 -56 24q-16 0 -31.5 -7t-28 -19.5t-20 -29t-7.5 -35.5q0 -23 11.5 -41t37.5 -31q16 -7 46.5 -18t64 -23t65.5 -22.5t51 -16.5t21 -7z" />
    <glyph glyph-name="Uacute" unicode="&#xda;" horiz-adv-x="858" 
d="M1053 754h-359l-71 -194h62l-87 -238q-17 -46 -32.5 -74t-32.5 -43.5t-35.5 -21t-40.5 -5.5t-34.5 6t-19 14.5t-8 17t-1.5 14.5q0 11 10 47.5t27 88.5l70 194h72l70 194h-453l-71 -194h82l-82 -234q-19 -51 -19 -103t19.5 -96t57.5 -76.5t94 -51t130 -18.5q154 0 252 71
t143 195l115 313h71zM851 953q0 19 -7.5 35.5t-20 29t-28 19.5t-31.5 7q-31 0 -56 -24q-13 -12 -34.5 -36.5t-45 -51.5t-45 -53t-34.5 -41.5t-14 -16.5l19 -27q2 1 21 7t51 16.5t65.5 22.5t64 23t46.5 18q26 13 37.5 31t11.5 41z" />
    <glyph glyph-name="Ucircumflex" unicode="&#xdb;" horiz-adv-x="858" 
d="M1053 754h-359l-71 -194h62l-87 -238q-17 -46 -32.5 -74t-32.5 -43.5t-35.5 -21t-40.5 -5.5t-34.5 6t-19 14.5t-8 17t-1.5 14.5q0 11 10 47.5t27 88.5l70 194h72l70 194h-453l-71 -194h82l-82 -234q-19 -51 -19 -103t19.5 -96t57.5 -76.5t94 -51t130 -18.5q154 0 252 71
t143 195l115 313h71zM852 795l-29 172h-186l-155 -172h125l101 90l19 -90h125z" />
    <glyph glyph-name="Udieresis" unicode="&#xdc;" horiz-adv-x="858" 
d="M1053 754h-359l-71 -194h62l-87 -238q-17 -46 -32.5 -74t-32.5 -43.5t-35.5 -21t-40.5 -5.5t-34.5 6t-19 14.5t-8 17t-1.5 14.5q0 11 10 47.5t27 88.5l70 194h72l70 194h-453l-71 -194h82l-82 -234q-19 -51 -19 -103t19.5 -96t57.5 -76.5t94 -51t130 -18.5q154 0 252 71
t143 195l115 313h71zM928 908q0 22 -8.5 42t-23.5 35t-35 23.5t-42 8.5t-41.5 -8.5t-34.5 -23.5t-23.5 -35t-8.5 -42q0 -23 8.5 -42.5t23.5 -34t34.5 -23t41.5 -8.5t42 8.5t35 23t23.5 34t8.5 42.5zM668 908q0 22 -8.5 42t-23.5 35t-35 23.5t-42 8.5q-23 0 -42.5 -8.5
t-34 -23.5t-23 -35t-8.5 -42q0 -23 8.5 -42.5t23 -34t34 -23t42.5 -8.5q22 0 42 8.5t35 23t23.5 34t8.5 42.5z" />
    <glyph glyph-name="germandbls" unicode="&#xdf;" horiz-adv-x="808" 
d="M791 295q0 30 -10.5 58t-30 50t-48.5 37t-66 21q66 16 99 61t33 104q0 41 -22 69.5t-58 46t-81.5 25t-93.5 7.5q-75 0 -137 -13.5t-111.5 -52t-88 -108t-67.5 -180.5l-61 -237q-28 -107 -47.5 -176.5t-34.5 -110.5t-27 -57.5t-26 -16.5q-30 0 -30 29q0 22 -6 42.5t-19 36
t-33 24.5t-48 9q-44 0 -70.5 -30t-26.5 -75q0 -29 16 -53t44 -41.5t66.5 -27.5t84.5 -10q69 0 124.5 19.5t100.5 63t79 112t60 166.5l70 273q23 90 41 151.5t36 99t39.5 54t51.5 16.5q46 0 59.5 -17t13.5 -43q0 -20 -6 -41.5t-17 -39t-27 -29t-37 -11.5h-19l-33 -90h19
q44 0 63.5 -24t19.5 -60q0 -29 -7 -66.5t-20.5 -70.5t-33.5 -56t-45 -23q-31 0 -20 31l10 27h-74l-12 -33q-11 -32 -4 -58.5t28.5 -46t56 -30.5t77.5 -11q77 0 134.5 24.5t95.5 66.5t57 97.5t19 117.5z" />
    <glyph glyph-name="agrave" unicode="&#xe0;" horiz-adv-x="696" 
d="M712 170h-89q-8 -24 -14.5 -39t-13.5 -23t-13.5 -10.5t-14.5 -2.5q-7 0 -9 6.5t-1 17t5 23.5t9 26l130 363h-242l-31 -86q-12 97 -124 97q-52 0 -103 -34.5t-91.5 -89t-65.5 -121t-25 -130.5q0 -96 39.5 -137t107.5 -41q57 0 103.5 34.5t83.5 96.5q0 -22 7.5 -45.5
t23.5 -42.5t42.5 -31t65.5 -12q89 0 143 45.5t77 135.5zM406 385l-61 -170q-16 -49 -31 -68t-29 -19q-13 0 -21.5 7t-8.5 24q0 15 6 40t15.5 54t21.5 58t25 52.5t26 38.5t23 15q14 0 23.5 -7.5t10.5 -24.5zM595 593q-1 1 -14 16.5t-35 41.5t-45 53t-45 51.5t-34 36.5
q-25 24 -56 24q-16 0 -31.5 -7t-28 -19.5t-20 -29t-7.5 -35.5q0 -23 11.5 -41t37.5 -31q16 -7 46.5 -18t64 -23t65.5 -22.5t51 -16.5t21 -7z" />
    <glyph glyph-name="aacute" unicode="&#xe1;" horiz-adv-x="696" 
d="M712 170h-89q-8 -24 -14.5 -39t-13.5 -23t-13.5 -10.5t-14.5 -2.5q-7 0 -9 6.5t-1 17t5 23.5t9 26l130 363h-242l-31 -86q-12 97 -124 97q-52 0 -103 -34.5t-91.5 -89t-65.5 -121t-25 -130.5q0 -96 39.5 -137t107.5 -41q57 0 103.5 34.5t83.5 96.5q0 -22 7.5 -45.5
t23.5 -42.5t42.5 -31t65.5 -12q89 0 143 45.5t77 135.5zM406 385l-61 -170q-16 -49 -31 -68t-29 -19q-13 0 -21.5 7t-8.5 24q0 15 6 40t15.5 54t21.5 58t25 52.5t26 38.5t23 15q14 0 23.5 -7.5t10.5 -24.5zM659 725q0 19 -7.5 35.5t-20 29t-28 19.5t-31.5 7q-31 0 -56 -24
q-13 -12 -34.5 -36.5t-45 -51.5t-45 -53t-34.5 -41.5t-14 -16.5l19 -27q2 1 21 7t51 16.5t65.5 22.5t64 23t46.5 18q26 13 37.5 31t11.5 41z" />
    <glyph glyph-name="acircumflex" unicode="&#xe2;" horiz-adv-x="696" 
d="M712 170h-89q-8 -24 -14.5 -39t-13.5 -23t-13.5 -10.5t-14.5 -2.5q-7 0 -9 6.5t-1 17t5 23.5t9 26l130 363h-242l-31 -86q-12 97 -124 97q-52 0 -103 -34.5t-91.5 -89t-65.5 -121t-25 -130.5q0 -96 39.5 -137t107.5 -41q57 0 103.5 34.5t83.5 96.5q0 -22 7.5 -45.5
t23.5 -42.5t42.5 -31t65.5 -12q89 0 143 45.5t77 135.5zM406 385l-61 -170q-16 -49 -31 -68t-29 -19q-13 0 -21.5 7t-8.5 24q0 15 6 40t15.5 54t21.5 58t25 52.5t26 38.5t23 15q14 0 23.5 -7.5t10.5 -24.5zM638 582l-29 172h-186l-155 -172h125l101 90l19 -90h125z" />
    <glyph glyph-name="atilde" unicode="&#xe3;" horiz-adv-x="696" 
d="M712 170h-89q-8 -24 -14.5 -39t-13.5 -23t-13.5 -10.5t-14.5 -2.5q-7 0 -9 6.5t-1 17t5 23.5t9 26l130 363h-242l-31 -86q-12 97 -124 97q-52 0 -103 -34.5t-91.5 -89t-65.5 -121t-25 -130.5q0 -96 39.5 -137t107.5 -41q57 0 103.5 34.5t83.5 96.5q0 -22 7.5 -45.5
t23.5 -42.5t42.5 -31t65.5 -12q89 0 143 45.5t77 135.5zM406 385l-61 -170q-16 -49 -31 -68t-29 -19q-13 0 -21.5 7t-8.5 24q0 15 6 40t15.5 54t21.5 58t25 52.5t26 38.5t23 15q14 0 23.5 -7.5t10.5 -24.5zM716 754h-71l-17 -32q-13 -22 -40 -22q-15 0 -27 8.5t-27.5 18.5
t-37.5 18.5t-57 8.5q-60 0 -110 -41.5t-82 -126.5h71l19 32q6 9 16 15.5t28 6.5q15 0 26.5 -8.5t27 -18.5t37.5 -18.5t58 -8.5q59 0 109.5 41t76.5 127z" />
    <glyph glyph-name="adieresis" unicode="&#xe4;" horiz-adv-x="696" 
d="M712 170h-89q-8 -24 -14.5 -39t-13.5 -23t-13.5 -10.5t-14.5 -2.5q-7 0 -9 6.5t-1 17t5 23.5t9 26l130 363h-242l-31 -86q-12 97 -124 97q-52 0 -103 -34.5t-91.5 -89t-65.5 -121t-25 -130.5q0 -96 39.5 -137t107.5 -41q57 0 103.5 34.5t83.5 96.5q0 -22 7.5 -45.5
t23.5 -42.5t42.5 -31t65.5 -12q89 0 143 45.5t77 135.5zM406 385l-61 -170q-16 -49 -31 -68t-29 -19q-13 0 -21.5 7t-8.5 24q0 15 6 40t15.5 54t21.5 58t25 52.5t26 38.5t23 15q14 0 23.5 -7.5t10.5 -24.5zM715 695q0 22 -8.5 42t-23.5 35t-35 23.5t-42 8.5t-41.5 -8.5
t-34.5 -23.5t-23.5 -35t-8.5 -42q0 -23 8.5 -42.5t23.5 -34t34.5 -23t41.5 -8.5t42 8.5t35 23t23.5 34t8.5 42.5zM455 695q0 22 -8.5 42t-23.5 35t-35 23.5t-42 8.5q-23 0 -42.5 -8.5t-34 -23.5t-23 -35t-8.5 -42q0 -23 8.5 -42.5t23 -34t34 -23t42.5 -8.5q22 0 42 8.5
t35 23t23.5 34t8.5 42.5z" />
    <glyph glyph-name="aring" unicode="&#xe5;" horiz-adv-x="696" 
d="M712 170h-89q-8 -24 -14.5 -39t-13.5 -23t-13.5 -10.5t-14.5 -2.5q-7 0 -9 6.5t-1 17t5 23.5t9 26l130 363h-242l-31 -86q-12 97 -124 97q-52 0 -103 -34.5t-91.5 -89t-65.5 -121t-25 -130.5q0 -96 39.5 -137t107.5 -41q57 0 103.5 34.5t83.5 96.5q0 -22 7.5 -45.5
t23.5 -42.5t42.5 -31t65.5 -12q89 0 143 45.5t77 135.5zM406 385l-61 -170q-16 -49 -31 -68t-29 -19q-13 0 -21.5 7t-8.5 24q0 15 6 40t15.5 54t21.5 58t25 52.5t26 38.5t23 15q14 0 23.5 -7.5t10.5 -24.5zM600 706q0 36 -24.5 60.5t-66.5 24.5q-31 0 -56.5 -12t-43.5 -31
t-27.5 -43t-9.5 -48q0 -36 24.5 -60.5t66.5 -24.5q31 0 56.5 12t43.5 31t27.5 43t9.5 48zM537 701q0 -13 -5 -27t-14 -25t-21 -18.5t-25 -7.5q-18 0 -27.5 11t-9.5 28q0 16 6 30t16 24.5t22 17t23 6.5q17 0 26 -11.5t9 -27.5z" />
    <glyph glyph-name="ae" unicode="&#xe6;" horiz-adv-x="895" 
d="M898 386q0 31 -15 59.5t-44.5 50t-71.5 34t-96 12.5t-96.5 -14t-87.5 -48q-30 29 -76 45t-103 16q-53 0 -99.5 -11t-81 -31.5t-54.5 -50t-20 -67.5q0 -18 10 -33t25 -25t33.5 -15.5t35.5 -5.5q44 0 74 18.5t30 50.5q0 16 -3 20.5t-5 9.5q-4 8 11 12.5t36 4.5
q47 0 52 -31.5t-18 -96.5q-91 0 -158.5 -13t-111.5 -35.5t-66 -53t-22 -66.5q0 -62 52.5 -97.5t138.5 -35.5q75 0 133.5 25.5t90.5 63.5q32 -43 78 -66t115 -23q61 0 106.5 14.5t78 38.5t53 55.5t31.5 66.5l-88 6q-14 -35 -40.5 -57t-70.5 -22q-27 0 -48 6t-34 20t-16.5 36
t5.5 55q78 1 140.5 15.5t106 38.5t67 56t23.5 68zM726 384q0 -15 -10 -31t-28.5 -29.5t-43.5 -22t-55 -8.5q7 25 17.5 48.5t24 42t29 29.5t32.5 11q34 0 34 -40zM308 219q-9 -26 -16 -45.5t-14.5 -32t-18 -18.5t-27.5 -6q-14 0 -25 7.5t-11 21.5q0 30 30 51.5t82 21.5z" />
    <glyph glyph-name="ccedilla" unicode="&#xe7;" horiz-adv-x="579" 
d="M584 386q0 31 -16 59.5t-45 50t-69.5 34t-90.5 12.5q-85 0 -149.5 -31t-107.5 -79.5t-65 -107.5t-22 -114q0 -38 12 -72.5t36 -63t59.5 -49t82.5 -29.5l-81 -73l38 -42q12 10 22 15t22 5q20 0 32 -13.5t12 -46.5q0 -36 -22 -56t-52 -20q-25 0 -30 8t-5 20q0 8 6 14t6 17
q0 14 -11 24.5t-30 10.5q-23 0 -38.5 -16.5t-15.5 -41.5q0 -37 31 -64t90 -27q39 0 74 11t61.5 30t42.5 45t16 55q0 42 -25.5 69.5t-69.5 27.5q-33 0 -54 -12l59 53q59 1 107 18.5t83 46t57 66.5t30 80l-88 6q-6 -24 -20.5 -45.5t-34 -37.5t-42.5 -25.5t-46 -9.5
q-47 0 -64.5 19.5t-17.5 57.5q0 37 12 85t32.5 91t46.5 72.5t54 29.5q14 0 23.5 -7t9.5 -21q0 -8 -3 -12.5t-7 -10t-7 -14t-3 -23.5q0 -25 23 -46t61 -21q43 0 67 26.5t24 71.5z" />
    <glyph glyph-name="egrave" unicode="&#xe8;" horiz-adv-x="591" 
d="M594 386q0 31 -15 59.5t-44.5 50t-71.5 34t-96 12.5q-85 0 -150 -31t-109 -79.5t-66.5 -107.5t-22.5 -114q0 -44 17 -84t50 -70.5t81.5 -48.5t111.5 -18q61 0 107 14.5t78.5 38.5t53 55.5t31.5 66.5l-89 6q-14 -35 -40.5 -57t-70.5 -22q-27 0 -48 6t-33.5 20t-16 36
t5.5 55q78 1 140.5 15.5t106 38.5t67 56t23.5 68zM421 384q0 -15 -10 -31t-28 -29.5t-43.5 -22t-55.5 -8.5q7 25 17.5 48.5t24 42t29 29.5t32.5 11q19 0 26.5 -10t7.5 -30zM505 593q-1 1 -14 16.5t-35 41.5t-45 53t-45 51.5t-34 36.5q-25 24 -56 24q-16 0 -31.5 -7
t-28 -19.5t-20 -29t-7.5 -35.5q0 -23 11.5 -41t37.5 -31q16 -7 46.5 -18t64 -23t65.5 -22.5t51 -16.5t21 -7z" />
    <glyph glyph-name="eacute" unicode="&#xe9;" horiz-adv-x="591" 
d="M594 386q0 31 -15 59.5t-44.5 50t-71.5 34t-96 12.5q-85 0 -150 -31t-109 -79.5t-66.5 -107.5t-22.5 -114q0 -44 17 -84t50 -70.5t81.5 -48.5t111.5 -18q61 0 107 14.5t78.5 38.5t53 55.5t31.5 66.5l-89 6q-14 -35 -40.5 -57t-70.5 -22q-27 0 -48 6t-33.5 20t-16 36
t5.5 55q78 1 140.5 15.5t106 38.5t67 56t23.5 68zM421 384q0 -15 -10 -31t-28 -29.5t-43.5 -22t-55.5 -8.5q7 25 17.5 48.5t24 42t29 29.5t32.5 11q19 0 26.5 -10t7.5 -30zM618 725q0 19 -7.5 35.5t-20 29t-28 19.5t-31.5 7q-31 0 -56 -24q-13 -12 -34.5 -36.5t-45 -51.5
t-45 -53t-34.5 -41.5t-14 -16.5l19 -27q2 1 21 7t51 16.5t65.5 22.5t64 23t46.5 18q26 13 37.5 31t11.5 41z" />
    <glyph glyph-name="ecircumflex" unicode="&#xea;" horiz-adv-x="591" 
d="M594 386q0 31 -15 59.5t-44.5 50t-71.5 34t-96 12.5q-85 0 -150 -31t-109 -79.5t-66.5 -107.5t-22.5 -114q0 -44 17 -84t50 -70.5t81.5 -48.5t111.5 -18q61 0 107 14.5t78.5 38.5t53 55.5t31.5 66.5l-89 6q-14 -35 -40.5 -57t-70.5 -22q-27 0 -48 6t-33.5 20t-16 36
t5.5 55q78 1 140.5 15.5t106 38.5t67 56t23.5 68zM421 384q0 -15 -10 -31t-28 -29.5t-43.5 -22t-55.5 -8.5q7 25 17.5 48.5t24 42t29 29.5t32.5 11q19 0 26.5 -10t7.5 -30zM579 582l-29 172h-186l-155 -172h125l101 90l19 -90h125z" />
    <glyph glyph-name="edieresis" unicode="&#xeb;" horiz-adv-x="591" 
d="M594 386q0 31 -15 59.5t-44.5 50t-71.5 34t-96 12.5q-85 0 -150 -31t-109 -79.5t-66.5 -107.5t-22.5 -114q0 -44 17 -84t50 -70.5t81.5 -48.5t111.5 -18q61 0 107 14.5t78.5 38.5t53 55.5t31.5 66.5l-89 6q-14 -35 -40.5 -57t-70.5 -22q-27 0 -48 6t-33.5 20t-16 36
t5.5 55q78 1 140.5 15.5t106 38.5t67 56t23.5 68zM421 384q0 -15 -10 -31t-28 -29.5t-43.5 -22t-55.5 -8.5q7 25 17.5 48.5t24 42t29 29.5t32.5 11q19 0 26.5 -10t7.5 -30zM641 695q0 22 -8.5 42t-23.5 35t-35 23.5t-42 8.5t-41.5 -8.5t-34.5 -23.5t-23.5 -35t-8.5 -42
q0 -23 8.5 -42.5t23.5 -34t34.5 -23t41.5 -8.5t42 8.5t35 23t23.5 34t8.5 42.5zM381 695q0 22 -8.5 42t-23.5 35t-35 23.5t-42 8.5q-23 0 -42.5 -8.5t-34 -23.5t-23 -35t-8.5 -42q0 -23 8.5 -42.5t23 -34t34 -23t42.5 -8.5q22 0 42 8.5t35 23t23.5 34t8.5 42.5z" />
    <glyph glyph-name="igrave" unicode="&#xec;" horiz-adv-x="426" 
d="M428 169h-89q-8 -24 -14.5 -39t-12.5 -22.5t-12.5 -10t-14.5 -2.5q-16 0 -16 16q0 11 5.5 28t18.5 45l47 105q32 71 32 126q0 61 -34.5 93.5t-88.5 32.5q-79 0 -141 -45.5t-104 -136.5l-19 -44h89q10 24 18.5 39t16 22.5t14.5 10t15 2.5q9 0 9 -12q0 -11 -6 -27t-14 -33
l-35 -79q-16 -35 -23 -64t-7 -55q0 -65 40.5 -97.5t102.5 -32.5q91 0 144.5 43t78.5 137zM340 593q-1 1 -14 16.5t-35 41.5t-45 53t-45 51.5t-34 36.5q-25 24 -56 24q-16 0 -31.5 -7t-28 -19.5t-20 -29t-7.5 -35.5q0 -23 11.5 -41t37.5 -31q16 -7 46.5 -18t64 -23
t65.5 -22.5t51 -16.5t21 -7z" />
    <glyph glyph-name="iacute" unicode="&#xed;" horiz-adv-x="426" 
d="M428 169h-89q-8 -24 -14.5 -39t-12.5 -22.5t-12.5 -10t-14.5 -2.5q-16 0 -16 16q0 11 5.5 28t18.5 45l47 105q32 71 32 126q0 61 -34.5 93.5t-88.5 32.5q-79 0 -141 -45.5t-104 -136.5l-19 -44h89q10 24 18.5 39t16 22.5t14.5 10t15 2.5q9 0 9 -12q0 -11 -6 -27t-14 -33
l-35 -79q-16 -35 -23 -64t-7 -55q0 -65 40.5 -97.5t102.5 -32.5q91 0 144.5 43t78.5 137zM553 725q0 19 -7.5 35.5t-20 29t-28 19.5t-31.5 7q-31 0 -56 -24q-13 -12 -34.5 -36.5t-45 -51.5t-45 -53t-34.5 -41.5t-14 -16.5l19 -27q2 1 21 7t51 16.5t65.5 22.5t64 23t46.5 18
q26 13 37.5 31t11.5 41z" />
    <glyph glyph-name="icircumflex" unicode="&#xee;" horiz-adv-x="426" 
d="M428 169h-89q-8 -24 -14.5 -39t-12.5 -22.5t-12.5 -10t-14.5 -2.5q-16 0 -16 16q0 11 5.5 28t18.5 45l47 105q32 71 32 126q0 61 -34.5 93.5t-88.5 32.5q-79 0 -141 -45.5t-104 -136.5l-19 -44h89q10 24 18.5 39t16 22.5t14.5 10t15 2.5q9 0 9 -12q0 -11 -6 -27t-14 -33
l-35 -79q-16 -35 -23 -64t-7 -55q0 -65 40.5 -97.5t102.5 -32.5q91 0 144.5 43t78.5 137zM449 582l-29 172h-186l-155 -172h125l101 90l19 -90h125z" />
    <glyph glyph-name="idieresis" unicode="&#xef;" horiz-adv-x="426" 
d="M428 169h-89q-8 -24 -14.5 -39t-12.5 -22.5t-12.5 -10t-14.5 -2.5q-16 0 -16 16q0 11 5.5 28t18.5 45l47 105q32 71 32 126q0 61 -34.5 93.5t-88.5 32.5q-79 0 -141 -45.5t-104 -136.5l-19 -44h89q10 24 18.5 39t16 22.5t14.5 10t15 2.5q9 0 9 -12q0 -11 -6 -27t-14 -33
l-35 -79q-16 -35 -23 -64t-7 -55q0 -65 40.5 -97.5t102.5 -32.5q91 0 144.5 43t78.5 137zM502 695q0 22 -8.5 42t-23.5 35t-35 23.5t-42 8.5t-41.5 -8.5t-34.5 -23.5t-23.5 -35t-8.5 -42q0 -23 8.5 -42.5t23.5 -34t34.5 -23t41.5 -8.5t42 8.5t35 23t23.5 34t8.5 42.5z
M242 695q0 22 -8.5 42t-23.5 35t-35 23.5t-42 8.5q-23 0 -42.5 -8.5t-34 -23.5t-23 -35t-8.5 -42q0 -23 8.5 -42.5t23 -34t34 -23t42.5 -8.5q22 0 42 8.5t35 23t23.5 34t8.5 42.5z" />
    <glyph glyph-name="ntilde" unicode="&#xf1;" horiz-adv-x="771" 
d="M786 170h-89q-8 -24 -15 -39t-14 -23t-13.5 -10.5t-14.5 -2.5q-10 0 -10 15q0 11 4 26t10 32l46 124q21 61 21 108q0 70 -39 105.5t-101 35.5q-57 0 -108 -34t-87 -96q-1 22 -8.5 45t-24.5 42t-44 31t-66 12q-70 0 -128 -47t-90 -135l-15 -44h89q8 24 15 39t14 23
t13.5 10.5t14.5 2.5q14 0 10 -23t-14 -50l-116 -317h242l115 315q8 24 16.5 39t17.5 23t17.5 10.5t16.5 2.5q17 0 17 -25q0 -11 -3 -22t-8 -26l-49 -133q-15 -41 -12 -76.5t21 -61.5t51 -41.5t78 -15.5q103 0 159 44t81 137zM705 754h-71l-17 -32q-13 -22 -40 -22
q-15 0 -27 8.5t-27.5 18.5t-37.5 18.5t-57 8.5q-60 0 -110 -41.5t-82 -126.5h71l19 32q6 9 16 15.5t28 6.5q15 0 26.5 -8.5t27 -18.5t37.5 -18.5t58 -8.5q59 0 109.5 41t76.5 127z" />
    <glyph glyph-name="ograve" unicode="&#xf2;" horiz-adv-x="645" 
d="M628 319q0 48 -16.5 88.5t-49.5 70.5t-81.5 46.5t-112.5 16.5q-75 0 -139 -27.5t-110.5 -73.5t-73 -106t-26.5 -124q0 -48 16.5 -88.5t49.5 -70t82 -46t113 -16.5q75 0 138.5 27.5t110 73.5t73 105.5t26.5 123.5zM405 394q0 -11 -6 -37t-16 -59t-23.5 -68.5t-28.5 -65
t-30.5 -48.5t-30.5 -19t-21 9.5t-6 29.5q0 10 6 36.5t16 59t23.5 68t28 65t30 48.5t30.5 19q16 0 22 -9t6 -29zM505 593q-1 1 -14 16.5t-35 41.5t-45 53t-45 51.5t-34 36.5q-25 24 -56 24q-16 0 -31.5 -7t-28 -19.5t-20 -29t-7.5 -35.5q0 -23 11.5 -41t37.5 -31
q16 -7 46.5 -18t64 -23t65.5 -22.5t51 -16.5t21 -7z" />
    <glyph glyph-name="oacute" unicode="&#xf3;" horiz-adv-x="645" 
d="M628 319q0 48 -16.5 88.5t-49.5 70.5t-81.5 46.5t-112.5 16.5q-75 0 -139 -27.5t-110.5 -73.5t-73 -106t-26.5 -124q0 -48 16.5 -88.5t49.5 -70t82 -46t113 -16.5q75 0 138.5 27.5t110 73.5t73 105.5t26.5 123.5zM405 394q0 -11 -6 -37t-16 -59t-23.5 -68.5t-28.5 -65
t-30.5 -48.5t-30.5 -19t-21 9.5t-6 29.5q0 10 6 36.5t16 59t23.5 68t28 65t30 48.5t30.5 19q16 0 22 -9t6 -29zM663 725q0 19 -7.5 35.5t-20 29t-28 19.5t-31.5 7q-31 0 -56 -24q-13 -12 -34.5 -36.5t-45 -51.5t-45 -53t-34.5 -41.5t-14 -16.5l19 -27q2 1 21 7t51 16.5
t65.5 22.5t64 23t46.5 18q26 13 37.5 31t11.5 41z" />
    <glyph glyph-name="ocircumflex" unicode="&#xf4;" horiz-adv-x="645" 
d="M628 319q0 48 -16.5 88.5t-49.5 70.5t-81.5 46.5t-112.5 16.5q-75 0 -139 -27.5t-110.5 -73.5t-73 -106t-26.5 -124q0 -48 16.5 -88.5t49.5 -70t82 -46t113 -16.5q75 0 138.5 27.5t110 73.5t73 105.5t26.5 123.5zM405 394q0 -11 -6 -37t-16 -59t-23.5 -68.5t-28.5 -65
t-30.5 -48.5t-30.5 -19t-21 9.5t-6 29.5q0 10 6 36.5t16 59t23.5 68t28 65t30 48.5t30.5 19q16 0 22 -9t6 -29zM583 582l-29 172h-186l-155 -172h125l101 90l19 -90h125z" />
    <glyph glyph-name="otilde" unicode="&#xf5;" horiz-adv-x="645" 
d="M628 319q0 48 -16.5 88.5t-49.5 70.5t-81.5 46.5t-112.5 16.5q-75 0 -139 -27.5t-110.5 -73.5t-73 -106t-26.5 -124q0 -48 16.5 -88.5t49.5 -70t82 -46t113 -16.5q75 0 138.5 27.5t110 73.5t73 105.5t26.5 123.5zM405 394q0 -11 -6 -37t-16 -59t-23.5 -68.5t-28.5 -65
t-30.5 -48.5t-30.5 -19t-21 9.5t-6 29.5q0 10 6 36.5t16 59t23.5 68t28 65t30 48.5t30.5 19q16 0 22 -9t6 -29zM655 754h-71l-17 -32q-13 -22 -40 -22q-15 0 -27 8.5t-27.5 18.5t-37.5 18.5t-57 8.5q-60 0 -110 -41.5t-82 -126.5h71l19 32q6 9 16 15.5t28 6.5
q15 0 26.5 -8.5t27 -18.5t37.5 -18.5t58 -8.5q59 0 109.5 41t76.5 127z" />
    <glyph glyph-name="odieresis" unicode="&#xf6;" horiz-adv-x="645" 
d="M628 319q0 48 -16.5 88.5t-49.5 70.5t-81.5 46.5t-112.5 16.5q-75 0 -139 -27.5t-110.5 -73.5t-73 -106t-26.5 -124q0 -48 16.5 -88.5t49.5 -70t82 -46t113 -16.5q75 0 138.5 27.5t110 73.5t73 105.5t26.5 123.5zM405 394q0 -11 -6 -37t-16 -59t-23.5 -68.5t-28.5 -65
t-30.5 -48.5t-30.5 -19t-21 9.5t-6 29.5q0 10 6 36.5t16 59t23.5 68t28 65t30 48.5t30.5 19q16 0 22 -9t6 -29zM634 695q0 22 -8.5 42t-23.5 35t-35 23.5t-42 8.5t-41.5 -8.5t-34.5 -23.5t-23.5 -35t-8.5 -42q0 -23 8.5 -42.5t23.5 -34t34.5 -23t41.5 -8.5t42 8.5t35 23
t23.5 34t8.5 42.5zM374 695q0 22 -8.5 42t-23.5 35t-35 23.5t-42 8.5q-23 0 -42.5 -8.5t-34 -23.5t-23 -35t-8.5 -42q0 -23 8.5 -42.5t23 -34t34 -23t42.5 -8.5q22 0 42 8.5t35 23t23.5 34t8.5 42.5z" />
    <glyph glyph-name="oslash" unicode="&#xf8;" horiz-adv-x="645" 
d="M684 477l-61 86l-85 -66q-32 21 -74 32.5t-96 11.5q-75 0 -139 -27.5t-110.5 -73.5t-73 -106t-26.5 -124q0 -55 21 -98l-76 -58l58 -89l88 68q32 -21 74 -32.5t96 -11.5q75 0 138.5 27.5t110 73.5t73 105.5t26.5 123.5q0 54 -21 98q34 26 55.5 43zM405 394l-114 -88
q10 25 20.5 48t21.5 40t22 27.5t22 10.5q16 0 22 -9t6 -29zM358 224q-10 -25 -21 -48t-22 -40.5t-22.5 -28t-22.5 -10.5q-15 0 -21 9.5t-6 29.5l18 14t39.5 30.5t39.5 30z" />
    <glyph glyph-name="ugrave" unicode="&#xf9;" horiz-adv-x="742" 
d="M751 170h-89q-8 -24 -14.5 -39t-13.5 -23t-13.5 -10.5t-14.5 -2.5q-11 0 -11 15t8 38.5t15 42.5l121 340h-242l-114 -316q-8 -24 -15.5 -39t-14.5 -23t-14 -10.5t-15 -2.5q-10 0 -17 8t-7 23t2.5 22t8.5 20l34 76q16 35 22.5 66.5t6.5 57.5q0 60 -34.5 94t-85.5 34
q-80 0 -141.5 -45t-103.5 -137l-19 -44h89q10 24 18.5 39t15.5 23t14 10.5t15 2.5q7 0 8.5 -6.5t-0.5 -16.5t-7 -23.5t-11 -26.5l-36 -78q-32 -73 -32 -125q0 -63 36 -94t93 -31q48 0 93 25t80 70q10 -42 47.5 -68.5t98.5 -26.5q52 0 91 11t68 33t48.5 56t31.5 81zM575 593
q-1 1 -14 16.5t-35 41.5t-45 53t-45 51.5t-34 36.5q-25 24 -56 24q-16 0 -31.5 -7t-28 -19.5t-20 -29t-7.5 -35.5q0 -23 11.5 -41t37.5 -31q16 -7 46.5 -18t64 -23t65.5 -22.5t51 -16.5t21 -7z" />
    <glyph glyph-name="uacute" unicode="&#xfa;" horiz-adv-x="742" 
d="M751 170h-89q-8 -24 -14.5 -39t-13.5 -23t-13.5 -10.5t-14.5 -2.5q-11 0 -11 15t8 38.5t15 42.5l121 340h-242l-114 -316q-8 -24 -15.5 -39t-14.5 -23t-14 -10.5t-15 -2.5q-10 0 -17 8t-7 23t2.5 22t8.5 20l34 76q16 35 22.5 66.5t6.5 57.5q0 60 -34.5 94t-85.5 34
q-80 0 -141.5 -45t-103.5 -137l-19 -44h89q10 24 18.5 39t15.5 23t14 10.5t15 2.5q7 0 8.5 -6.5t-0.5 -16.5t-7 -23.5t-11 -26.5l-36 -78q-32 -73 -32 -125q0 -63 36 -94t93 -31q48 0 93 25t80 70q10 -42 47.5 -68.5t98.5 -26.5q52 0 91 11t68 33t48.5 56t31.5 81zM637 725
q0 19 -7.5 35.5t-20 29t-28 19.5t-31.5 7q-31 0 -56 -24q-13 -12 -34.5 -36.5t-45 -51.5t-45 -53t-34.5 -41.5t-14 -16.5l19 -27q2 1 21 7t51 16.5t65.5 22.5t64 23t46.5 18q26 13 37.5 31t11.5 41z" />
    <glyph glyph-name="ucircumflex" unicode="&#xfb;" horiz-adv-x="742" 
d="M751 170h-89q-8 -24 -14.5 -39t-13.5 -23t-13.5 -10.5t-14.5 -2.5q-11 0 -11 15t8 38.5t15 42.5l121 340h-242l-114 -316q-8 -24 -15.5 -39t-14.5 -23t-14 -10.5t-15 -2.5q-10 0 -17 8t-7 23t2.5 22t8.5 20l34 76q16 35 22.5 66.5t6.5 57.5q0 60 -34.5 94t-85.5 34
q-80 0 -141.5 -45t-103.5 -137l-19 -44h89q10 24 18.5 39t15.5 23t14 10.5t15 2.5q7 0 8.5 -6.5t-0.5 -16.5t-7 -23.5t-11 -26.5l-36 -78q-32 -73 -32 -125q0 -63 36 -94t93 -31q48 0 93 25t80 70q10 -42 47.5 -68.5t98.5 -26.5q52 0 91 11t68 33t48.5 56t31.5 81zM635 582
l-29 172h-186l-155 -172h125l101 90l19 -90h125z" />
    <glyph glyph-name="udieresis" unicode="&#xfc;" horiz-adv-x="742" 
d="M751 170h-89q-8 -24 -14.5 -39t-13.5 -23t-13.5 -10.5t-14.5 -2.5q-11 0 -11 15t8 38.5t15 42.5l121 340h-242l-114 -316q-8 -24 -15.5 -39t-14.5 -23t-14 -10.5t-15 -2.5q-10 0 -17 8t-7 23t2.5 22t8.5 20l34 76q16 35 22.5 66.5t6.5 57.5q0 60 -34.5 94t-85.5 34
q-80 0 -141.5 -45t-103.5 -137l-19 -44h89q10 24 18.5 39t15.5 23t14 10.5t15 2.5q7 0 8.5 -6.5t-0.5 -16.5t-7 -23.5t-11 -26.5l-36 -78q-32 -73 -32 -125q0 -63 36 -94t93 -31q48 0 93 25t80 70q10 -42 47.5 -68.5t98.5 -26.5q52 0 91 11t68 33t48.5 56t31.5 81zM698 695
q0 22 -8.5 42t-23.5 35t-35 23.5t-42 8.5t-41.5 -8.5t-34.5 -23.5t-23.5 -35t-8.5 -42q0 -23 8.5 -42.5t23.5 -34t34.5 -23t41.5 -8.5t42 8.5t35 23t23.5 34t8.5 42.5zM438 695q0 22 -8.5 42t-23.5 35t-35 23.5t-42 8.5q-23 0 -42.5 -8.5t-34 -23.5t-23 -35t-8.5 -42
q0 -23 8.5 -42.5t23 -34t34 -23t42.5 -8.5q22 0 42 8.5t35 23t23.5 34t8.5 42.5z" />
    <glyph glyph-name="ydieresis" unicode="&#xff;" horiz-adv-x="741" 
d="M718 403q0 29 -9.5 54.5t-27 44t-41.5 29t-53 10.5q-23 0 -45.5 -9t-40 -24.5t-28 -37.5t-10.5 -48q0 -54 31.5 -83.5t86.5 -37.5q-14 -68 -35.5 -124.5t-63.5 -112.5q0 92 -18.5 178t-51.5 152.5t-78.5 106.5t-99.5 40q-42 0 -76 -14.5t-61 -39.5t-46.5 -58t-32.5 -70
l-15 -44h89q13 30 25.5 45.5t30.5 15.5q16 0 34.5 -24t36.5 -64t34 -91.5t28 -105.5t19.5 -107.5t7.5 -96.5q-10 -14 -29.5 -25.5t-64.5 -11.5q-29 0 -41.5 10t-12.5 31q0 42 -27 71t-78 29q-43 0 -70 -31t-27 -77q0 -60 48.5 -98t140.5 -38q74 0 145 30t134.5 81t117 117.5
t92.5 139.5t60.5 147.5t21.5 140.5zM668 695q0 22 -8.5 42t-23.5 35t-35 23.5t-42 8.5t-41.5 -8.5t-34.5 -23.5t-23.5 -35t-8.5 -42q0 -23 8.5 -42.5t23.5 -34t34.5 -23t41.5 -8.5t42 8.5t35 23t23.5 34t8.5 42.5zM408 695q0 22 -8.5 42t-23.5 35t-35 23.5t-42 8.5
q-23 0 -42.5 -8.5t-34 -23.5t-23 -35t-8.5 -42q0 -23 8.5 -42.5t23 -34t34 -23t42.5 -8.5q22 0 42 8.5t35 23t23.5 34t8.5 42.5z" />
    <glyph glyph-name="dotlessi" unicode="&#x131;" horiz-adv-x="426" 
d="M428 169h-89q-8 -24 -14.5 -39t-12.5 -22.5t-12.5 -10t-14.5 -2.5q-16 0 -16 16q0 11 5.5 28t18.5 45l47 105q32 71 32 126q0 61 -34.5 93.5t-88.5 32.5q-79 0 -141 -45.5t-104 -136.5l-19 -44h89q10 24 18.5 39t16 22.5t14.5 10t15 2.5q9 0 9 -12q0 -11 -6 -27t-14 -33
l-35 -79q-16 -35 -23 -64t-7 -55q0 -65 40.5 -97.5t102.5 -32.5q91 0 144.5 43t78.5 137z" />
    <glyph glyph-name="OE" unicode="&#x152;" horiz-adv-x="1229" 
d="M1400 754h-807q-114 0 -209 -35.5t-162.5 -97.5t-105 -145t-37.5 -178q0 -59 19.5 -113t58 -95t95 -65.5t131.5 -24.5h742l128 351h-234l-57 -158h-189l41 114h138l51 139h-138l42 114h188l-57 -158h234zM605 560l-132 -367h-33q-35 0 -49.5 21t-14.5 54q0 42 12 90
t33 92q29 57 61 83.5t77 26.5h46z" />
    <glyph glyph-name="oe" unicode="&#x153;" horiz-adv-x="940" 
d="M943 386q0 31 -15 59.5t-44.5 50t-71.5 34t-96 12.5t-95 -13t-83 -43q-33 29 -74.5 42t-101.5 13q-72 0 -135 -27.5t-109 -73.5t-72.5 -105.5t-26.5 -123.5q0 -48 17 -88.5t49 -70.5t79.5 -46.5t109.5 -16.5q57 0 100.5 14.5t83.5 43.5q35 -29 74 -43.5t96 -14.5
q61 0 107 14.5t78.5 38.5t53 55.5t31.5 66.5l-89 6q-14 -35 -40.5 -57t-70.5 -22q-27 0 -48 6t-33.5 20t-16 36t5.5 55q78 1 140.5 15.5t106 38.5t67 56t23.5 68zM770 384q0 -15 -10 -31t-28 -29.5t-43.5 -22t-55.5 -8.5q7 25 17.5 48.5t24 42t29 29.5t32.5 11
q19 0 26.5 -10t7.5 -30zM404 394q0 -11 -6 -37t-16 -58.5t-23 -68t-28 -65t-30.5 -48.5t-30.5 -19t-21 9t-6 29q0 10 6 36.5t16 59.5t23 68.5t28 65t30.5 48.5t30.5 19t21 -9.5t6 -29.5z" />
    <glyph glyph-name="Ydieresis" unicode="&#x178;" horiz-adv-x="867" 
d="M1058 754h-373l-70 -194h61l-133 -127l-40 127h61l70 194h-442l-70 -194h76l116 -258l-39 -109h-82l-70 -193h480l70 193h-98l39 106l307 261h67zM918 908q0 22 -8.5 42t-23.5 35t-35 23.5t-42 8.5t-41.5 -8.5t-34.5 -23.5t-23.5 -35t-8.5 -42q0 -23 8.5 -42.5t23.5 -34
t34.5 -23t41.5 -8.5t42 8.5t35 23t23.5 34t8.5 42.5zM658 908q0 22 -8.5 42t-23.5 35t-35 23.5t-42 8.5q-23 0 -42.5 -8.5t-34 -23.5t-23 -35t-8.5 -42q0 -23 8.5 -42.5t23 -34t34 -23t42.5 -8.5q22 0 42 8.5t35 23t23.5 34t8.5 42.5z" />
    <glyph glyph-name="florin" unicode="&#x192;" horiz-adv-x="860" 
d="M1010 620q0 31 -15.5 59t-44 49t-69 33t-90.5 12q-81 0 -144 -23t-111 -65.5t-81 -102t-54 -131.5l-4 -16h-124l-39 -111h130l-89 -308q-5 -16 -15.5 -27.5t-26.5 -11.5q-14 0 -21 9t-7 23q0 24 -6.5 45.5t-20.5 38t-35 26.5t-51 10q-47 0 -76 -32t-29 -80q0 -31 17 -57
t47.5 -45t72 -29.5t90.5 -10.5q79 0 141.5 24.5t110.5 68t81.5 104t54.5 132.5l35 120h137l38 111h-142l57 197q5 17 16.5 28t30.5 11q22 0 31 -11t9 -32q0 -41 26 -64.5t76 -23.5q49 0 71.5 24.5t22.5 55.5z" />
    <glyph glyph-name="circumflex" unicode="&#x2c6;" horiz-adv-x="406" 
d="M513 582l-29 172h-186l-155 -172h125l101 90l19 -90h125z" />
    <glyph glyph-name="caron" unicode="&#x2c7;" horiz-adv-x="406" 
d="M577 754h-125l-101 -91l-19 91h-125l30 -172h185z" />
    <glyph glyph-name="breve" unicode="&#x2d8;" horiz-adv-x="395" 
d="M550 753h-70q-9 -26 -38 -42.5t-76 -16.5t-69 16.5t-13 42.5h-70q-11 -20 -17 -39t-6 -33q0 -47 36.5 -73t105.5 -26q53 0 91.5 13t65 36.5t41 54.5t19.5 67z" />
    <glyph glyph-name="dotaccent" unicode="&#x2d9;" horiz-adv-x="400" 
d="M478 695q0 22 -8.5 42t-23.5 35t-35 23.5t-42 8.5q-23 0 -42.5 -8.5t-34 -23.5t-23 -35t-8.5 -42q0 -23 8.5 -42.5t23 -34t34 -23t42.5 -8.5q22 0 42 8.5t35 23t23.5 34t8.5 42.5z" />
    <glyph glyph-name="ring" unicode="&#x2da;" horiz-adv-x="250" 
d="M408 706q0 36 -24.5 60.5t-66.5 24.5q-31 0 -56.5 -12t-43.5 -31t-27.5 -43t-9.5 -48q0 -36 24.5 -60.5t66.5 -24.5q31 0 56.5 12t43.5 31t27.5 43t9.5 48zM345 701q0 -13 -5 -27t-14 -25t-21 -18.5t-25 -7.5q-18 0 -27.5 11t-9.5 28q0 16 6 30t16 24.5t22 17t23 6.5
q17 0 26 -11.5t9 -27.5z" />
    <glyph glyph-name="ogonek" unicode="&#x2db;" horiz-adv-x="290" 
d="M195 14l-11 24q-64 -20 -115.5 -45.5t-88 -55t-56 -62t-19.5 -65.5q0 -42 30 -71t86 -29q35 0 63.5 5t42.5 13l9 51h-25q-42 0 -59.5 15.5t-17.5 38.5q0 28 14.5 54t38 48.5t52 42t56.5 36.5z" />
    <glyph glyph-name="tilde" unicode="&#x2dc;" horiz-adv-x="455" 
d="M626 754h-71l-17 -32q-13 -22 -40 -22q-15 0 -27 8.5t-27.5 18.5t-37.5 18.5t-57 8.5q-60 0 -110 -41.5t-82 -126.5h71l19 32q6 9 16 15.5t28 6.5q15 0 26.5 -8.5t27 -18.5t37.5 -18.5t58 -8.5q59 0 109.5 41t76.5 127z" />
    <glyph glyph-name="hungarumlaut" unicode="&#x2dd;" horiz-adv-x="615" 
d="M758 725q0 19 -7.5 35.5t-20 29t-28 19.5t-31.5 7q-31 0 -56 -24q-13 -12 -34.5 -36.5t-45 -51.5t-45 -53t-34.5 -41.5t-14 -16.5l19 -27q2 1 21 7t51 16.5t65.5 22.5t64 23t46.5 18q26 13 37.5 31t11.5 41zM491 725q0 19 -7.5 35.5t-20 29t-28 19.5t-31.5 7
q-31 0 -56 -24q-13 -12 -34.5 -36.5t-45 -51.5t-45 -53t-34.5 -41.5t-14 -16.5l19 -27q2 1 21 7t51 16.5t65.5 22.5t64 23t46.5 18q26 13 37.5 31t11.5 41z" />
    <glyph glyph-name="Omega" unicode="&#x3a9;" horiz-adv-x="838" 
d="M1086 631q0 29 -14.5 55t-40.5 45.5t-63 31t-83 11.5q-50 0 -92.5 -9.5t-78.5 -30.5q-13 9 -34 16.5t-46 12.5t-53 8t-55 3q-59 0 -108.5 -13.5t-91 -43t-75.5 -77t-60 -115.5h-133l-45 -151h127l-53 -191q-31 -107 -52.5 -176.5t-37.5 -110.5t-28.5 -57.5t-26.5 -16.5
q-29 0 -29 29q0 23 -5.5 43.5t-18 35.5t-32 24t-47.5 9q-43 0 -71.5 -30t-28.5 -76q0 -30 15 -54t42.5 -41.5t65.5 -27t84 -9.5q120 0 204 63q23 -29 72 -46t110 -17q69 0 125 20t100.5 63.5t79 112t59.5 166.5l74 287h125l45 151h-127q23 73 43.5 113t38.5 40
q20 0 28.5 -10t8.5 -30q0 -38 24.5 -60t70.5 -22t67 23t21 52zM592 603q-10 -17 -19 -36.5t-18 -41.5h-134q15 45 27 74.5t22.5 47t22 24.5t26.5 7q35 0 52 -23t21 -52zM510 374l-50 -191q-28 -107 -47 -176.5t-34.5 -111t-30.5 -58t-34 -16.5q-45 0 -65.5 30t-20.5 73
q8 13 17 33t17.5 42.5t16 45.5t12.5 42l82 287h137z" />
    <glyph glyph-name="pi" unicode="&#x3c0;" horiz-adv-x="671" 
d="M725 530h-243l-114 -315q-8 -24 -15.5 -39t-14.5 -23t-14 -10.5t-15 -2.5q-9 0 -16.5 8t-7.5 22q0 13 2.5 21.5t8.5 21.5l34 76q16 36 22.5 66t6.5 59q0 59 -34.5 93t-85.5 34q-80 0 -141.5 -45t-103.5 -137l-19 -44h89q10 24 18.5 39t15.5 23t14 10.5t15 2.5
q10 0 10 -13q0 -6 -6 -24.5t-14 -35.5l-36 -78q-17 -38 -24 -71t-7 -59q0 -58 36 -89t93 -31q44 0 85 29.5t74 84.5q-24 -65 -43.5 -117.5t-39 -89t-41.5 -56t-49 -19.5q-15 0 -22.5 8t-7.5 22q0 22 -6 42t-19 35.5t-33 24.5t-48 9q-43 0 -70 -29.5t-27 -74.5q0 -29 16 -53
t44 -41.5t66.5 -27.5t84.5 -10q149 0 246 71t149 216z" />
    <glyph glyph-name="endash" unicode="&#x2013;" horiz-adv-x="631" 
d="M578 375h-500l-55 -151h500z" />
    <glyph glyph-name="emdash" unicode="&#x2014;" horiz-adv-x="881" 
d="M828 375h-750l-55 -151h750z" />
    <glyph glyph-name="quoteleft" unicode="&#x2018;" horiz-adv-x="364" 
d="M311 738v33q-52 -2 -93.5 -20t-70.5 -47.5t-44.5 -68t-15.5 -82.5q0 -26 6.5 -51t20.5 -44.5t35 -31t51 -11.5q24 0 44 10t34 25.5t21.5 35t7.5 37.5q0 25 -8.5 43t-20.5 30.5t-25 19.5t-22 11q-17 6 -27.5 9.5t-10.5 20.5q0 27 32 49t86 32z" />
    <glyph glyph-name="quoteright" unicode="&#x2019;" horiz-adv-x="364" 
d="M317 635q0 26 -6.5 51t-20.5 44.5t-35 31t-51 11.5q-24 0 -44 -10t-34 -25.5t-21.5 -35t-7.5 -37.5q0 -25 8.5 -43t20.5 -30.5t25 -19.5t22 -11q17 -6 27.5 -9.5t10.5 -20.5q0 -27 -32 -49t-86 -32v-33q52 2 93.5 20t70.5 47.5t44.5 68t15.5 82.5z" />
    <glyph glyph-name="quotesinglbase" unicode="&#x201a;" horiz-adv-x="499" 
d="M290 68q0 26 -6.5 51t-20.5 44.5t-35 31t-51 11.5q-24 0 -44 -10t-34 -25.5t-21.5 -35t-7.5 -37.5q0 -25 8.5 -43t20.5 -30.5t25 -19.5t22 -11q17 -6 27.5 -9.5t10.5 -20.5q0 -27 -32 -49t-86 -32v-33q52 2 93.5 20t70.5 47.5t44.5 68t15.5 82.5z" />
    <glyph glyph-name="quotedblleft" unicode="&#x201c;" horiz-adv-x="626" 
d="M575 738v33q-52 -2 -93.5 -20t-70.5 -47.5t-44.5 -68t-15.5 -82.5q0 -26 6.5 -51t20.5 -44.5t35 -31t51 -11.5q24 0 44 10t34 25.5t21.5 35t7.5 37.5q0 25 -8.5 43t-20.5 30.5t-25 19.5t-22 11q-17 6 -27.5 9.5t-10.5 20.5q0 27 32 49t86 32zM311 738v33
q-52 -2 -93.5 -20t-70.5 -47.5t-44.5 -68t-15.5 -82.5q0 -26 6.5 -51t20.5 -44.5t35 -31t51 -11.5q24 0 44 10t34 25.5t21.5 35t7.5 37.5q0 25 -8.5 43t-20.5 30.5t-25 19.5t-22 11q-17 6 -27.5 9.5t-10.5 20.5q0 27 32 49t86 32z" />
    <glyph glyph-name="quotedblright" unicode="&#x201d;" horiz-adv-x="626" 
d="M581 635q0 26 -6.5 51t-20.5 44.5t-35 31t-51 11.5q-24 0 -44 -10t-34 -25.5t-21.5 -35t-7.5 -37.5q0 -25 8.5 -43t20.5 -30.5t25 -19.5t22 -11q17 -6 27.5 -9.5t10.5 -20.5q0 -27 -32 -49t-86 -32v-33q52 2 93.5 20t70.5 47.5t44.5 68t15.5 82.5zM317 635q0 26 -6.5 51
t-20.5 44.5t-35 31t-51 11.5q-24 0 -44 -10t-34 -25.5t-21.5 -35t-7.5 -37.5q0 -25 8.5 -43t20.5 -30.5t25 -19.5t22 -11q17 -6 27.5 -9.5t10.5 -20.5q0 -27 -32 -49t-86 -32v-33q52 2 93.5 20t70.5 47.5t44.5 68t15.5 82.5z" />
    <glyph glyph-name="quotedblbase" unicode="&#x201e;" horiz-adv-x="764" 
d="M554 68q0 26 -6.5 51t-20.5 44.5t-35 31t-51 11.5q-24 0 -44 -10t-34 -25.5t-21.5 -35t-7.5 -37.5q0 -25 8.5 -43t20.5 -30.5t25 -19.5t22 -11q17 -6 27.5 -9.5t10.5 -20.5q0 -27 -32 -49t-86 -32v-33q52 2 93.5 20t70.5 47.5t44.5 68t15.5 82.5zM290 68q0 26 -6.5 51
t-20.5 44.5t-35 31t-51 11.5q-24 0 -44 -10t-34 -25.5t-21.5 -35t-7.5 -37.5q0 -25 8.5 -43t20.5 -30.5t25 -19.5t22 -11q17 -6 27.5 -9.5t10.5 -20.5q0 -27 -32 -49t-86 -32v-33q52 2 93.5 20t70.5 47.5t44.5 68t15.5 82.5z" />
    <glyph glyph-name="dagger" unicode="&#x2020;" horiz-adv-x="667" 
d="M698 425q0 21 -8 40t-22 33t-33 22t-40 8q-5 0 -10 -0.5t-10 -1.5l-123 -33l106 114q22 27 22 63q0 21 -8 40t-22 33t-33 22t-40 8t-40 -8t-33 -22.5t-22 -33t-8 -39.5l17 -166l-108 83q-13 9 -28.5 14.5t-32.5 5.5q-21 0 -40 -8t-33 -22t-22 -33t-8 -40t8 -40t22 -33
t33 -22t40 -8q3 0 10 0.5t13 2.5l121 32l-99 -85q-24 -25 -30 -64q-4 -24 -8.5 -60.5t-10.5 -79.5t-13.5 -90.5t-16 -93.5t-17.5 -88.5t-19 -75.5l51 -18q21 50 53 113t65.5 124.5t64.5 115.5t51 86q15 26 16 54l-25 151l109 -85q25 -18 59 -18q21 0 39.5 8t32.5 22t22 33
t8 40z" />
    <glyph glyph-name="daggerdbl" unicode="&#x2021;" horiz-adv-x="667" 
d="M714 425q0 21 -8 39.5t-21.5 32.5t-32 22t-39.5 8h-10t-10 -2l-121 -32l104 113q22 28 22 64q0 21 -8 40t-22 33t-32.5 22t-39.5 8t-39 -8.5t-32 -22.5t-22 -33t-8 -40l17 -166l-106 83q-27 21 -60 21q-21 0 -39.5 -8t-32 -22.5t-21.5 -33t-8 -39.5t8 -40t21.5 -33
t32 -22t39.5 -8q3 0 10 0.5t12 1.5l120 33l-97 -85q-14 -15 -23.5 -37t-6.5 -45l21 -162l-106 83q-26 20 -61 20q-21 0 -39 -8t-32 -22t-22 -33t-8 -40t8 -40t22 -33t32.5 -22t39.5 -8q2 0 9 1t13 2l119 32l-97 -84q-30 -32 -30 -76q0 -23 8.5 -42.5t22.5 -34t33.5 -23
t41.5 -8.5t41 8.5t33.5 22.5t23 33.5t8.5 41.5l-24 151l107 -85q13 -8 27 -13t31 -5q21 0 39 8t32 22t22 33t8 40t-8 40t-22 33t-32.5 22t-39.5 8q-5 0 -9.5 -0.5t-9.5 -1.5l-121 -33l109 114q17 21 19.5 42.5t0.5 33.5l-23 139l108 -85q24 -18 57 -18q21 0 39.5 8t32 22
t21.5 33t8 40z" />
    <glyph glyph-name="bullet" unicode="&#x2022;" horiz-adv-x="335" 
d="M384 377q0 31 -11.5 58t-31.5 47t-48.5 31.5t-61.5 11.5t-61 -11.5t-48.5 -31.5t-31.5 -47t-11 -58q0 -32 11 -59t31.5 -47t48.5 -31.5t61 -11.5t61.5 11.5t48.5 31.5t31.5 47t11.5 59z" />
    <glyph glyph-name="ellipsis" unicode="&#x2026;" horiz-adv-x="902" 
d="M855 97q0 22 -8.5 42t-23 35t-34.5 23.5t-42 8.5q-23 0 -42.5 -8.5t-34.5 -23.5t-23.5 -35t-8.5 -42t8.5 -41.5t23.5 -34.5t34.5 -23.5t42.5 -8.5q22 0 42 8.5t34.5 23.5t23 34.5t8.5 41.5zM570 97q0 22 -8.5 42t-23 35t-34.5 23.5t-42 8.5q-23 0 -42.5 -8.5t-34.5 -23.5
t-23.5 -35t-8.5 -42t8.5 -41.5t23.5 -34.5t34.5 -23.5t42.5 -8.5q22 0 42 8.5t34.5 23.5t23 34.5t8.5 41.5zM285 97q0 22 -8.5 42t-23 35t-34.5 23.5t-42 8.5q-23 0 -42.5 -8.5t-34.5 -23.5t-23.5 -35t-8.5 -42t8.5 -41.5t23.5 -34.5t34.5 -23.5t42.5 -8.5q22 0 42 8.5
t34.5 23.5t23 34.5t8.5 41.5z" />
    <glyph glyph-name="perthousand" unicode="&#x2030;" horiz-adv-x="1386" 
d="M1417 256q0 34 -12 63.5t-34 50.5t-51.5 33t-65.5 12q-51 0 -97 -23t-81.5 -61.5t-56.5 -88t-21 -103.5q0 -35 12 -64t34 -50t52 -32.5t65 -11.5q51 0 97.5 23t81.5 61t56 87.5t21 103.5zM967 256q0 34 -12 63.5t-34 50.5t-51.5 33t-65.5 12q-51 0 -97 -23t-81.5 -61.5
t-56.5 -88t-21 -103.5q0 -35 12 -64t34 -50t52 -32.5t65 -11.5q51 0 97.5 23t81.5 61t56 87.5t21 103.5zM866 754h-122l-561 -754h123zM503 614q0 34 -12 63.5t-33.5 50.5t-51.5 33t-65 12q-51 0 -97.5 -23t-81.5 -61t-56 -87.5t-21 -103.5q0 -35 12 -64t34 -50t51.5 -33
t65.5 -12q51 0 97 23t81 61t56 87.5t21 103.5zM1273 288q0 -32 -32 -114q-6 -18 -14.5 -35t-18 -31t-19.5 -22.5t-20 -8.5q-12 0 -19.5 6.5t-7.5 23.5q0 32 32 114q7 18 15 35t17.5 31t19.5 22.5t20 8.5q12 0 19.5 -6.5t7.5 -23.5zM823 288q0 -32 -32 -114q-6 -18 -14.5 -35
t-18 -31t-19.5 -22.5t-20 -8.5q-12 0 -19.5 6.5t-7.5 23.5q0 32 32 114q7 18 15 35t17.5 31t19.5 22.5t20 8.5q12 0 19.5 -6.5t7.5 -23.5zM360 647q0 -16 -8.5 -45t-23.5 -69q-7 -18 -15 -35.5t-17.5 -31.5t-19.5 -22.5t-20 -8.5q-12 0 -19.5 6.5t-7.5 23.5q0 16 8 44.5
t23 69.5q7 18 15.5 35t18 31t19.5 22.5t20 8.5q12 0 19.5 -6t7.5 -23z" />
    <glyph glyph-name="guilsinglleft" unicode="&#x2039;" horiz-adv-x="442" 
d="M498 531h-106q-14 -29 -47 -65t-75 -69t-88.5 -56t-89.5 -25l-37 -102q39 -6 70 -26.5t52 -50.5t32.5 -65.5t11.5 -71.5h92q13 36 16.5 75t-0.5 75t-14.5 66.5t-25.5 48.5q36 16 68 46.5t59 67.5t48 77t34 75z" />
    <glyph glyph-name="guilsinglright" unicode="&#x203a;" horiz-adv-x="442" 
d="M396 316q-39 6 -70 27t-52 51t-32.5 65.5t-11.5 71.5h-92q-13 -36 -16.5 -75.5t0.5 -75.5t14.5 -66t25.5 -49q-36 -16 -68 -46.5t-59 -67.5t-48 -76.5t-34 -74.5h105q15 28 47.5 64.5t74.5 69t89 55.5t90 25z" />
    <glyph glyph-name="trademark" unicode="&#x2122;" horiz-adv-x="1107" 
d="M1273 754h-247l-102 -137l-2 137h-253l-35 -97h46l-67 -183h-40l-36 -97h186l36 97h-41l60 164l14 -261h46l205 261l-60 -164h-41l-35 -97h237l35 97h-46l67 183h38zM636 754h-421l-64 -176h102l29 79h33l-67 -183h-41l-35 -97h237l35 97h-46l67 183h33l-29 -79h103z" />
    <glyph glyph-name="product" unicode="&#x220f;" horiz-adv-x="671" 
d="M718 403q0 29 -9.5 54.5t-27 44t-41.5 29t-53 10.5q-23 0 -45.5 -9t-40 -24.5t-28 -37.5t-10.5 -48q0 -54 31.5 -83.5t86.5 -37.5q-14 -68 -35.5 -124.5t-63.5 -112.5q0 92 -18.5 178t-51.5 152.5t-78.5 106.5t-99.5 40q-42 0 -76 -14.5t-61 -39.5t-46.5 -58t-32.5 -70
l-15 -44h89q13 30 25.5 45.5t30.5 15.5q16 0 34.5 -24t36.5 -64t34 -91.5t28 -105.5t19.5 -107.5t7.5 -96.5q-10 -14 -29.5 -25.5t-64.5 -11.5q-29 0 -41.5 10t-12.5 31q0 42 -27 71t-78 29q-43 0 -70 -31t-27 -77q0 -60 48.5 -98t140.5 -38q74 0 145 30t134.5 81t117 117.5
t92.5 139.5t60.5 147.5t21.5 140.5zM691 695q0 22 -8.5 42t-23.5 35t-35 23.5t-42 8.5t-41.5 -8.5t-34.5 -23.5t-23.5 -35t-8.5 -42q0 -23 8.5 -42.5t23.5 -34t34.5 -23t41.5 -8.5t42 8.5t35 23t23.5 34t8.5 42.5zM431 695q0 22 -8.5 42t-23.5 35t-35 23.5t-42 8.5
q-23 0 -42.5 -8.5t-34 -23.5t-23 -35t-8.5 -42q0 -23 8.5 -42.5t23 -34t34 -23t42.5 -8.5q22 0 42 8.5t35 23t23.5 34t8.5 42.5z" />
    <glyph glyph-name="fraction" unicode="&#x2215;" horiz-adv-x="123" 
d="M406 754h-122l-560 -754h122z" />
    <glyph glyph-name="radical" unicode="&#x221a;" horiz-adv-x="1183" 
d="M1253 758l-213 -8q-29 11 -67.5 17.5t-87.5 6.5q-50 0 -92 -9.5t-79 -30.5q-13 9 -33.5 16.5t-45.5 12.5t-53 8t-56 3q-60 0 -110 -14t-92 -44.5t-76 -80t-60 -119.5h-129l-46 -152h125l-51 -181q-31 -107 -52.5 -176.5t-37.5 -110.5t-28.5 -57.5t-26.5 -16.5
q-29 0 -29 29q0 23 -5.5 43.5t-18 35.5t-32 24t-47.5 9q-43 0 -71.5 -30t-28.5 -76q0 -30 15 -54t42.5 -41.5t65.5 -27t84 -9.5q120 0 204 63q23 -29 72.5 -46t110.5 -17q69 0 124.5 20t100.5 63.5t79 112t60 166.5l71 277h128l-66 -181q-6 -17 -9 -31.5t-3 -34.5
q0 -57 39.5 -92.5t111.5 -35.5q103 0 158.5 44t80.5 137h-89q-8 -24 -15 -39t-13.5 -23t-13.5 -10.5t-15 -2.5q-10 0 -10 14q0 10 4.5 26t10.5 33zM952 598l-30 -82h-141q25 82 47.5 122t49.5 40q37 0 54.5 -24.5t19.5 -55.5zM592 603q-21 -37 -40 -87h-134q16 48 28 79.5
t23 49.5t23 25.5t27 7.5q36 0 53 -23t20 -52zM508 364l-48 -181q-28 -107 -46.5 -176.5t-34 -110.5t-30.5 -57.5t-35 -16.5q-45 0 -65 29.5t-20 72.5q7 13 16 33t17.5 42.5t16 45.5t13.5 42l79 277h137z" />
    <glyph glyph-name="approxequal" unicode="&#x2248;" horiz-adv-x="1160" 
d="M1162 169h-89q-8 -24 -14.5 -39t-12.5 -22.5t-12.5 -10t-14.5 -2.5q-16 0 -16 16q0 11 5 28t16 46l119 307l-21 24h-342q16 54 28.5 86.5t24.5 49t24.5 21.5t28.5 5q29 0 42.5 -9t13.5 -31q0 -38 24.5 -60t70.5 -22t67 23t21 52q0 34 -16.5 60.5t-45.5 45t-69.5 28
t-89.5 9.5q-58 0 -106 -9.5t-85 -30.5q-26 18 -79 29t-109 11q-59 0 -109.5 -14t-92 -44.5t-75.5 -80t-60 -119.5h-130l-45 -152h124l-50 -181q-31 -107 -52.5 -176.5t-37.5 -110.5t-28.5 -57.5t-26.5 -16.5q-30 0 -30 29q0 23 -5.5 43.5t-17.5 35.5t-31.5 24t-47.5 9
q-43 0 -71.5 -30t-28.5 -76q0 -30 15 -54t42.5 -41.5t65.5 -27t84 -9.5q121 0 203 63q24 -29 73 -46t110 -17q69 0 125 20t100.5 63.5t79 112t59.5 166.5l72 277h131l-49 -125q-14 -35 -19.5 -64.5t-5.5 -55.5q0 -65 40.5 -97.5t102.5 -32.5q91 0 144.5 43t78.5 137z
M591 603q-11 -20 -20.5 -41.5t-19.5 -45.5h-134q16 48 28.5 79.5t23.5 49.5t22.5 25.5t27.5 7.5q35 0 52 -23t20 -52zM507 364l-47 -181q-28 -107 -47 -176.5t-34.5 -110.5t-30.5 -57.5t-34 -16.5q-45 0 -65.5 29.5t-20.5 72.5q8 13 16.5 33t17 42.5t16 45.5t13.5 42l79 277
h137z" />
    <glyph glyph-name="lessequal" unicode="&#x2264;" horiz-adv-x="913" 
d="M985 517h-124l45 129h-114q-29 -65 -77.5 -97t-131.5 -32h-165q28 87 50 124t42 37q9 0 17.5 -10t8.5 -30q0 -33 24.5 -52t67.5 -19q38 0 62 23t24 57q0 59 -49.5 93t-141.5 34q-59 0 -108 -12.5t-89.5 -42.5t-74 -79.5t-62.5 -122.5h-132l-45 -151h126l-51 -183
q-31 -107 -52.5 -176.5t-37.5 -110.5t-28.5 -57.5t-26.5 -16.5q-29 0 -29 29q0 23 -5.5 43.5t-18 35.5t-32 24t-47.5 9q-43 0 -71.5 -30t-28.5 -75q0 -30 15 -54t42.5 -41.5t65.5 -27t84 -9.5q69 0 125.5 20t102.5 63t82 111.5t64 166.5l80 279h193l-67 -182
q-7 -18 -10 -33.5t-3 -34.5q0 -55 40 -91t111 -36q52 0 91 11t68 33t48.5 56t32.5 81h-89q-8 -24 -15 -39t-14 -23t-13.5 -10.5t-14.5 -2.5q-5 0 -8 4.5t-3 9.5q0 10 4.5 26t10.5 33l73 198h124z" />
    <glyph glyph-name="apple" unicode="&#xf8ff;" horiz-adv-x="967" 
d="M857 0v750h-767v-750h767zM810 520q0 -1 -1 -1v0q-4 0 -6 0.5t-7 0.5t-7 -0.5t-7 -0.5q-1 0 -1 1v1v1q7 1 7 5q0 3 -1 4l-3 15h-25l4 -15q0 -4 1 -5.5t8 -3.5v-2v-1q-4 0 -5.5 0.5t-6.5 0.5t-7.5 -0.5t-7.5 -0.5q-1 0 -1 1v1v1q8 1 8 5q0 3 -1 4l-7 33l-3 6t-8 3v2v1
q4 0 6.5 -0.5t6.5 -0.5q5 0 7 0.5t7 0.5q1 0 1 -2v-1q-7 -1 -7 -5v-4l4 -14h25l-3 14l-3 6t-6 3q-1 0 -1 2v1q4 0 6 -0.5t7 -0.5q4 0 7 0.5t7 0.5q2 0 2 -2q0 -1 -1 -1q-8 -1 -8 -5q0 -3 1 -4l8 -33q1 -4 2 -5.5t7 -3.5q2 0 2 -2zM549 686h-2q-3 9 -11 9q-3 0 -3 -3v-22
q0 -5 5 -6q1 0 1 -1t-1 -1h-8h-9q-1 0 -1 1t1 1q5 1 5 6v22q0 3 -3 3q-5 0 -6 -2t-3 -7h-1h-1q1 4 1.5 6.5t0.5 5.5q2 -1 4 -1h12h11t4 1q2 -3 2 -6q0 -2 2 -6zM684 540q0 -12 -7.5 -17t-14.5 -5q-14 0 -25 11t-11 27q0 12 7.5 17t14.5 5q14 0 25 -11.5t11 -26.5zM493 662
h-9h-9v1v1q5 1 5 6v9h-17v-9q0 -5 5 -6v-1v-1h-9h-8q-1 0 -1 1t1 1q5 1 5 6v19q0 6 -5 6q-1 0 -1 1t1 1h8h9v-1v-1q-5 0 -5 -6v-8h17v8q0 6 -5 6v1v1h9h9v-1v-1q-5 0 -5.5 -1.5t-0.5 -4.5v-19q0 -3 0.5 -4t5.5 -2v-1v-1zM815 378h-36v28h-11v-65h14v-33h-81v33h14v65h-11
v-28h-36v62h147v-62zM577 536q0 -8 -6.5 -13t-17.5 -5q-16 0 -16 13q0 10 9 10q7 0 7 -5t-4 -5q-2 0 -3 1t-2 1q-3 0 -3 -3q0 -9 12 -9t12 14q0 10 -6 15q-5 -5 -11 -5q-8 0 -8 6t8 6h8q2 2 2 6q0 12 -10 12q-7 0 -7 -6q0 -2 1.5 -2.5t1.5 -3.5t-4 -3q-5 0 -5 6q0 5 3.5 8.5
t9.5 3.5q9 0 14.5 -5t5.5 -10t-4 -9q13 -7 13 -18zM816 619h-685v4h685v-4zM429 663q0 -1 -1 -1v0h-16h-12q-1 3 -2 5.5t-2 5.5v0q0 1 1 1q4 -9 12 -9h3q4 0 4 3v12h-4q-6 0 -6 -6v-1h-1h-1v1v6v6q0 1 1 1t1 -1q0 -5 6 -5h4v10q0 4 -4 4h-3q-6 0 -9 -8v-1q-1 0 -1.5 0.5
l-0.5 0.5q2 4 2 10h12h16v0q1 0 1 -1t-1 -1v0q-5 0 -5 -6v-19q0 -5 5 -6v0q1 0 1 -1zM487 519q-5 0 -7 0.5t-7 0.5q-4 0 -7 -0.5t-7 -0.5q-1 0 -1.5 1l-0.5 1v1h1q8 1 8 5q0 3 -1 4l-3 16h-5q-9 0 -8 -11h-1h-2q-1 4 -1 6q0 3 -1 6q-1 4 -1.5 5.5t-1.5 5.5v1h1q2 0 2 -1
q2 -6 4.5 -7.5t7.5 -1.5h4l-3 16q-1 6 -6 6h-4q-13 0 -14 -13q0 -1 -1 -1q-2 0 -2 1q0 3 0.5 5.5t0.5 4.5q0 5 -1 7q5 0 10 -0.5t10 -0.5t13.5 0.5t11.5 0.5l0.5 -0.5t0.5 -1.5t-1 -1q-7 -1 -7 -5q0 -3 1 -4l7 -33q2 -4 3 -5.5t7 -3.5q1 0 1 -2v-1zM813 173q0 -1 -0.5 -1.5
l-0.5 -0.5q-4 0 -6 0.5t-7 0.5t-7.5 -0.5t-7.5 -0.5q-1 0 -1 1v1v2q8 1 8 5q0 1 -0.5 1.5t-0.5 2.5l-3 15h-5q-9 0 -8 -11h-1h-1q-2 4 -2 7t-1 5q-1 4 -1.5 5.5t-1.5 6.5h2h1q2 -7 4.5 -8t7.5 -1h5l-4 15q-1 6 -6 6h-4q-11 0 -14 -13v-1h-1t-1.5 0.5t0.5 0.5v11v6h19h25
q2 0 2 -2l-1 -1q-8 -1 -8 -5v-4l9 -32q1 -5 2 -6.5t7 -2.5q1 0 1.5 -1zM816 476h-685v4h685v-4zM634 406h-14l-37 -45v-20h15v-33h-81v33h14v19l-37 46h-12v34h62v-34h-10l15 -23l15 23h-11v34h81v-34zM389 521q0 -3 -4 -3q-7 0 -12 7q-8 0 -11 -6t-16 -6t-13 11q0 6 5 6
t5 -4q0 -2 -1 -2.5t-1 -2.5q0 -4 5 -4q7 0 8.5 6.5t12.5 6.5q-5 6 -7 14t-3 14.5t-2.5 11.5t-6.5 5t-5 -6t-4 -6q-5 0 -5 5q0 3 4 6.5t9 3.5q10 0 14.5 -6t6.5 -13.5t3.5 -16t4.5 -12.5q7 -1 10 -4t3 -5zM715 192q0 -12 -7.5 -17t-14.5 -5q-13 0 -24 11.5t-11 26.5
q0 12 7 17t14 5q14 0 25 -11.5t11 -26.5zM282 536q0 -8 -6 -13t-17 -5q-17 0 -17 13q0 10 9 10q8 0 8 -5t-5 -5q-2 0 -3 1t-2 1q-2 0 -2 -3q0 -9 12 -9q5 0 8.5 3t3.5 11q0 9 -6 15q-5 -5 -12 -5t-7 6t7 6h9q0 1 0.5 2t0.5 4q0 12 -10 12q-6 0 -6 -6q0 -2 1.5 -2.5t1.5 -3.5
t-5 -3t-5 6q0 5 4 8.5t9 3.5q9 0 14.5 -5t5.5 -10t-4 -9q13 -7 13 -18zM610 225q-9 -1 -9 -5q0 -1 0.5 -1.5t0.5 -2.5l5 -22q2 -6 2 -8q0 -5 -4.5 -10.5t-16.5 -5.5q-14 0 -19 9t-7 17l-5 20q-1 5 -2.5 6.5t-8.5 2.5q-1 0 -1 1v1v1h11h12v-1v-2q-8 -1 -8 -5q0 -1 0.5 -1.5
t0.5 -2.5l4 -19q2 -9 7 -15.5t13 -6.5q13 0 13 10q0 2 -2 10l-5 21q-1 5 -2 6.5t-8 2.5q-1 0 -1 1v1v1h14h15q1 0 1 -2v-1zM445 308h-81v33h15v19h-30q-22 0 -34.5 11.5t-12.5 28.5t12.5 28.5t34.5 11.5h96v-34h-14v-65h14v-33zM816 272h-685v4h685v-4zM684 47h-8h-6
q-1 0 -1 1v0q0 1 1 1q5 0 5 5l-1 19l-25 -27h-1h-2v28q0 2 -0.5 3.5t-5.5 1.5v2v1q2 0 3.5 -0.5t3.5 -0.5t4 0.5t4 0.5v-1v-2q-5 0 -5.5 -1.5t-0.5 -3.5v-17l24 25q2 0 2.5 -0.5t2.5 -0.5t2.5 0.5t2.5 0.5v-1v-2q-6 0 -6 -5l1 -20q0 -5 6 -5v-1v-1zM193 520q0 -1 -1 -1
q-4 0 -6.5 0.5t-6.5 0.5q-5 0 -8 -0.5t-7 -0.5q-1 0 -1 1v1v1q8 1 8 5v4l-4 14q-4 0 -5 -3l-12 -23q-6 0 -10.5 -0.5t-7.5 -0.5q-2 0 -2 1q0 2 1 2q9 1 14 9l8 16q-7 2 -13 6.5t-6 10.5q0 13 20 13q5 0 7.5 -0.5t6.5 -0.5t6 0.5t7 0.5v-2v-1q-8 -1 -8 -5q0 -3 1 -4l7 -33
q2 -4 3 -5.5t8 -3.5l0.5 -0.5t0.5 -1.5zM512 173q0 -2 -1 -2q-2 0 -4 0.5t-5 0.5q-4 0 -7 -0.5t-5 -0.5l-1 2q0 2 1 2q8 1 6 9l-5 30l-31 -44h-2q-1 0 -1 1l-8 45q-2 8 -10 9v2v1q3 0 5 -0.5t5 -0.5q4 0 6.5 0.5t4.5 0.5t2 -2v-1h-1q-9 -1 -7 -9l4 -28l30 40h9h5q2 0 2 -2
v-1h-1q-9 -1 -9 -6q0 -2 1 -3l7 -32q0 -8 9 -9zM622 46q-3 1 -8 1h-9q-8 0 -12 -1q-1 7 -4 11q0 1 1 1h1q3 -9 12 -9h2q4 0 4 4v11h-4q-2 0 -3.5 -0.5t-2.5 -5.5h-1v6v7v1q1 0 1 -1v0q1 -5 6 -5h4v9q0 4 -4 4h-2q-8 0 -10 -7q0 -1 -1 -1v1q0 3 0.5 5t1.5 5q3 0 5.5 -0.5
t6.5 -0.5q3 0 8 0.5t8 0.5v-1v-2q-5 0 -5.5 -1.5t-0.5 -3.5v-20q0 -2 0.5 -3.5t5.5 -1.5v-1v-2zM572 81q0 -2 -1 -2q-2 0 -6 -6l-12 -27h-1l-9 15l-7 -15h-1h-1l-12 27q-2 3 -2.5 4.5t-3.5 1.5v2v1q2 0 2.5 -0.5t2.5 -0.5t3 0.5t3 0.5q1 0 1 -1v0q0 -2 -1 -2q-2 0 -2 -3v-3
l8 -18l7 13l-3 5q-3 6 -7 6q-1 0 -1 2v1q2 0 3.5 -0.5t3.5 -0.5t2.5 0.5t2.5 0.5q3 0 4 -0.5t3 -0.5q3 0 3.5 0.5t3.5 0.5l1 -1q0 -1 -0.5 -1.5l-0.5 -0.5q-5 0 -6 -6l-5 -9l6 -9l9 19v2q0 3 -2 3v2v1q3 0 4.5 -0.5t3.5 -0.5t3 0.5t4 0.5v-1zM816 128h-685v4h685v-4z
M267 308h-141v61h41v-28h33v21h-24v24h24v20h-33v-28h-41v62h141v-34h-14v-65h14v-33zM403 171q-3 1 -8 1h-9h-15q-13 0 -24 9t-11 25q0 11 8 17t17 6q3 0 6.5 -0.5t8.5 -0.5h15v-2v-1q-7 -1 -7 -5v-4l8 -32q1 -5 2 -6.5t8 -2.5q1 0 1 -1v-1v-2zM469 79q-5 0 -7 -5l-8 -12
v-8q0 -5 5 -5q1 0 1 -1v0q0 -2 -1 -2q-2 0 -4 0.5t-4 0.5q-4 0 -5.5 -0.5t-3.5 -0.5v2v1q5 0 5 5v8l-8 12q-4 5 -8 5v2v1q2 0 3 -0.5t3 -0.5t4 0.5t4 0.5v-1v-2q-4 0 -4 -3v-1l1 -1l6 -9l6 9q1 1 1 3t-2 2q-1 0 -1 2v0q0 1 1 1q2 0 3.5 -0.5t4.5 -0.5t4.5 0.5t3.5 0.5v-1v-2
zM296 173q0 -1 -0.5 -1.5l-0.5 -0.5q-4 0 -6 0.5t-7 0.5t-7.5 -0.5t-7.5 -0.5l-1 2q0 2 1 2q7 1 7 5v4l-3 13q-4 0 -6 -3l-12 -22q-6 0 -10 -0.5t-8 -1.5h-1v2q0 1 1 1q9 3 12 10l9 16q-7 1 -12.5 6t-5.5 11q0 12 19 12h14h12q2 0 2 -2v-1h-1q-7 -1 -7 -5v-4l8 -32
q1 -5 2 -6.5t8 -2.5zM414 64q0 -8 -5.5 -13t-14.5 -5t-14 5t-5 13t5 13t14 5t14.5 -5t5.5 -13zM354 48q0 -2 -1 -2q-2 0 -3.5 0.5t-5.5 0.5q-3 0 -4.5 -0.5t-3.5 -0.5q-1 0 -1 2v0q0 1 1 1q5 0 5 5v9q-3 0 -4 -1t-3 -4l-6 -11h-6h-6v1v1q5 0 7 4l8 11q-8 3 -8 9q0 9 12 9
q3 0 4.5 -0.5t4.5 -0.5t5 0.5t4 0.5q1 0 1 -1v0q0 -2 -1 -2q-5 0 -5 -5v-20q0 -5 5 -5q1 0 1 -1v0zM192 215h-2l-4.5 4.5t-7.5 2.5q-9 0 -9 -13q0 -8 3 -17l2 -8q1 -5 2 -6.5t8 -2.5l1 -2q0 -1 -0.5 -1.5l-0.5 -0.5q-4 0 -6 0.5t-6 0.5q-5 0 -7.5 -0.5t-7.5 -0.5q-1 0 -1 1
v1v2q7 1 7 5v4l-1 6q-4 14 -9 23.5t-15 9.5q-8 0 -8 -6h-3v1q0 5 2 8.5t7 3.5q8 0 14.5 -6.5t9.5 -16.5v5q0 18 14 18q8 0 11.5 -4t6.5 -9q2 0 0 -2zM298 46q-2 0 -4 0.5t-5 0.5t-4.5 -0.5t-4.5 -0.5v2v1q5 0 5.5 1.5t0.5 3.5v9q-2 0 -4 -2l-7 -8q-1 -1 -1 -2q0 -2 3 -2v-1
v-2q-3 0 -5.5 0.5t-4.5 0.5q-3 0 -4.5 -0.5t-3.5 -0.5q-1 0 -1 2l1 1q3 0 7 4l13 13l-9 9l-3 3t-5 1v2v1q2 0 3 -0.5t3 -0.5t3.5 0.5t3.5 0.5v-1v-2q-3 0 -3 -1t2 -3l8 -8q1 -3 4 -3v10q0 2 -0.5 3.5t-5.5 1.5v2v1q3 0 4.5 -0.5t4.5 -0.5t5 0.5t4 0.5v-1v-2q-6 0 -6 -5v-20
q0 -5 6 -5v-1v-2zM673 535q0 16 -7.5 28t-16.5 12q-12 0 -12 -15t7.5 -27t16.5 -12q12 0 12 14zM555 553q-2 1 -7 1q-4 0 -4 -3q0 -2 4 -2t7 4zM703 188q0 15 -6.5 27t-17.5 12q-10 0 -10 -14q0 -16 6.5 -28t17.5 -12q10 0 10 15zM260 553q-2 1 -7 1q-3 0 -3 -3q0 -2 3 -2
q4 0 7 4zM379 384v22h-11q-13 0 -13 -11t13 -11h11zM166 548l-3 18q-2 6 -9 6q-8 0 -8 -9q0 -5 3 -10t12 -5h5zM544 77q0 2 -3 2q-2 0 -2 -3l0.5 -1.5t1.5 -3.5q3 4 3 6zM382 182l-9 36q-2 5 -3 5.5t-3 0.5l-6 1q-14 0 -14 -18q0 -12 7.5 -21.5t18.5 -9.5h5q2 0 3 0.5t1 5.5
zM270 201l-5 17q0 7 -7 7q-8 0 -8 -10q0 -5 3 -9.5t12 -4.5h5zM406 64q0 7 -2.5 12t-9.5 5q-6 0 -9 -5t-3 -12q0 -16 12 -16t12 16zM341 65v10q0 4 -4 4q-7 0 -7 -6q0 -8 8 -8h3z" />
    <glyph glyph-name="fi" unicode="&#xfb01;" horiz-adv-x="801" 
d="M803 169h-89q-8 -24 -14.5 -39t-12.5 -22.5t-12.5 -10t-14.5 -2.5q-16 0 -16 16q0 11 5 28t16 46l119 307l-21 24h-346q17 51 30.5 82.5t25.5 49t24.5 24t29.5 6.5q29 0 42.5 -9t13.5 -31q0 -38 24.5 -60t70.5 -22t67.5 23t21.5 52q0 34 -16.5 60.5t-46 45t-70 28
t-89.5 9.5q-63 0 -116 -12t-97.5 -41.5t-80.5 -79t-64 -125.5h-132l-45 -152h128l-51 -181q-31 -107 -52.5 -176.5t-37.5 -110.5t-28.5 -57.5t-26.5 -16.5q-30 0 -30 29q0 23 -5.5 43.5t-17.5 35.5t-31.5 24t-47.5 9q-43 0 -71.5 -30t-28.5 -75q0 -30 15 -54t42.5 -41.5
t65.5 -27t84 -9.5q69 0 125.5 20t102.5 63t82 111.5t64 166.5l79 277h141l-49 -125q-14 -35 -19.5 -64.5t-5.5 -55.5q0 -65 40.5 -97.5t102.5 -32.5q91 0 144.5 43t78.5 137z" />
    <glyph glyph-name="fl" unicode="&#xfb02;" horiz-adv-x="824" 
d="M894 758l-213 -8q-29 11 -67.5 17.5t-87.5 6.5q-59 0 -109.5 -14t-92.5 -45t-76 -80t-60 -119h-132l-45 -152h128l-52 -181q-31 -107 -52.5 -176.5t-37.5 -110.5t-28.5 -57.5t-26.5 -16.5q-29 0 -29 29q0 23 -5.5 43.5t-18 35.5t-32 24t-47.5 9q-43 0 -71.5 -30
t-28.5 -75q0 -30 15 -54.5t42.5 -41.5t66 -26.5t84.5 -9.5q69 0 125.5 20t102 63t82 111.5t64.5 166.5l79 277h137l-66 -180q-6 -18 -9 -32.5t-3 -34.5q0 -57 39.5 -92.5t111.5 -35.5q103 0 158.5 44t80.5 137h-89q-8 -24 -15 -39t-13.5 -23t-13.5 -10.5t-15 -2.5
q-10 0 -10 14q0 10 4.5 26t10.5 33zM593 598l-30 -82h-145q16 48 28 79.5t23 49.5t23 25.5t27 7.5q37 0 54.5 -24.5t19.5 -55.5z" />
    </font>
</defs>
</svg>
